G04 Layer_Physical_Order=2*
G04 Layer_Color=32768*
%FSLAX43Y43*%
%MOMM*%
G71*
G01*
G75*
%ADD68C,0.500*%
%ADD69C,0.250*%
%ADD70O,1.250X1.450*%
%ADD71O,1.250X1.450*%
%ADD72O,1.425X2.100*%
%ADD73C,1.600*%
%ADD74C,1.600*%
G04:AMPARAMS|DCode=75|XSize=2.524mm|YSize=2.524mm|CornerRadius=0mm|HoleSize=0mm|Usage=FLASHONLY|Rotation=0.000|XOffset=0mm|YOffset=0mm|HoleType=Round|Shape=Relief|Width=0.254mm|Gap=0.254mm|Entries=4|*
%AMTHD75*
7,0,0,2.524,2.016,0.254,45*
%
%ADD75THD75*%
G04:AMPARAMS|DCode=76|XSize=1.45mm|YSize=1.45mm|CornerRadius=0mm|HoleSize=0mm|Usage=FLASHONLY|Rotation=0.000|XOffset=0mm|YOffset=0mm|HoleType=Round|Shape=Relief|Width=0.2mm|Gap=0.2mm|Entries=4|*
%AMTHD76*
7,0,0,1.450,1.050,0.200,45*
%
%ADD76THD76*%
%ADD77C,1.250*%
%ADD78C,1.250*%
%ADD79C,0.850*%
%ADD80C,0.850*%
%ADD81C,0.800*%
G36*
X-43600Y-99325D02*
X-55600D01*
Y-97325D01*
Y-87325D01*
X-43600D01*
Y-99325D01*
D02*
G37*
%LPC*%
G36*
X-45600Y-89325D02*
X-53600D01*
Y-97325D01*
X-45600D01*
Y-89325D01*
D02*
G37*
%LPD*%
D68*
X-10600Y-350D02*
G03*
X-9825Y-1I0J1036D01*
G01*
X-21375D02*
G03*
X-20600Y-350I776J686D01*
G01*
X-60000Y-100000D02*
X0D01*
Y0D01*
X-9825D02*
X0D01*
X-9825Y-1D02*
Y0D01*
X-10600Y-350D02*
Y-350D01*
X-20600Y-350D02*
X-10600D01*
X-21375Y-1D02*
Y0D01*
X-60000D02*
X-21375D01*
X-60000Y-100000D02*
Y0D01*
D69*
X-46100Y-89825D02*
D03*
D70*
X-13375Y-4800D02*
D03*
D71*
X-17825D02*
D03*
D72*
X-19688Y-1675D02*
D03*
X-11512D02*
D03*
D73*
X-57778Y-83340D02*
D03*
Y-85880D02*
D03*
Y-78260D02*
D03*
Y-80800D02*
D03*
Y-75720D02*
D03*
Y-73180D02*
D03*
X-9518Y-85880D02*
D03*
Y-83340D02*
D03*
Y-78260D02*
D03*
Y-80800D02*
D03*
Y-70640D02*
D03*
Y-68100D02*
D03*
Y-73180D02*
D03*
Y-75720D02*
D03*
Y-53876D02*
D03*
Y-46256D02*
D03*
Y-58956D02*
D03*
Y-56416D02*
D03*
Y-61496D02*
D03*
Y-64036D02*
D03*
X-55950Y-30490D02*
D03*
X-4430Y-87150D02*
D03*
X-6970Y-76990D02*
D03*
X-4430D02*
D03*
Y-79530D02*
D03*
X-6970D02*
D03*
X-4430Y-82070D02*
D03*
Y-84610D02*
D03*
X-6970D02*
D03*
X-48240Y-59500D02*
D03*
X-4430Y-51590D02*
D03*
X-6970Y-41430D02*
D03*
X-4430D02*
D03*
Y-43970D02*
D03*
X-6970D02*
D03*
X-38890Y-93030D02*
D03*
Y-95570D02*
D03*
X-36350Y-93030D02*
D03*
Y-95570D02*
D03*
X-31270D02*
D03*
Y-93030D02*
D03*
X-41430Y-95570D02*
D03*
X-23065Y-12525D02*
D03*
X-20525D02*
D03*
X-17985D02*
D03*
X-51300Y-40965D02*
D03*
X-57778Y-50320D02*
D03*
Y-52860D02*
D03*
Y-57940D02*
D03*
Y-55400D02*
D03*
Y-68100D02*
D03*
Y-60480D02*
D03*
X-32429Y-86020D02*
D03*
X-29889Y-88560D02*
D03*
D74*
X-9518Y-51336D02*
D03*
Y-43716D02*
D03*
Y-41176D02*
D03*
X-55950Y-35570D02*
D03*
X-55925Y-42000D02*
D03*
X-6970Y-13490D02*
D03*
Y-16030D02*
D03*
X-4430D02*
D03*
X-6970Y-64290D02*
D03*
Y-82070D02*
D03*
Y-74450D02*
D03*
Y-71910D02*
D03*
X-4430D02*
D03*
X-6970Y-69370D02*
D03*
X-4430D02*
D03*
X-6970Y-66830D02*
D03*
X-4430D02*
D03*
Y-74450D02*
D03*
X-38730Y-10950D02*
D03*
X-41270D02*
D03*
X-45700Y-59500D02*
D03*
Y-56960D02*
D03*
X-48240D02*
D03*
X-6970Y-28730D02*
D03*
X-4430Y-46510D02*
D03*
X-6970D02*
D03*
X-4430Y-49050D02*
D03*
X-6970D02*
D03*
Y-38890D02*
D03*
Y-36350D02*
D03*
X-4430D02*
D03*
X-6970Y-33810D02*
D03*
X-4430D02*
D03*
X-6970Y-31270D02*
D03*
X-4430D02*
D03*
Y-38890D02*
D03*
X-28730Y-95570D02*
D03*
X-21110D02*
D03*
Y-93030D02*
D03*
X-23650Y-95570D02*
D03*
Y-93030D02*
D03*
X-26190Y-95570D02*
D03*
Y-93030D02*
D03*
X-28730D02*
D03*
X-33810D02*
D03*
Y-95570D02*
D03*
X-18570Y-93030D02*
D03*
X-56000Y-17400D02*
D03*
Y-19940D02*
D03*
X-51400Y-27930D02*
D03*
Y-30470D02*
D03*
X-51300Y-38425D02*
D03*
X-34969Y-86020D02*
D03*
X-29889D02*
D03*
X-32429Y-88560D02*
D03*
D75*
X-9518Y-48796D02*
D03*
X-55950Y-33030D02*
D03*
X-55925Y-44540D02*
D03*
X-4430Y-13490D02*
D03*
X-6970Y-87150D02*
D03*
X-4430Y-64290D02*
D03*
X-43160Y-59500D02*
D03*
Y-56960D02*
D03*
X-6970Y-51590D02*
D03*
X-4430Y-28730D02*
D03*
X-18570Y-95570D02*
D03*
X-41430Y-93030D02*
D03*
X-57778Y-65560D02*
D03*
Y-63020D02*
D03*
X-34969Y-88560D02*
D03*
D76*
X-7530Y-21305D02*
D03*
X-4990D02*
D03*
X-3720D02*
D03*
D77*
X-7530Y-22575D02*
D03*
X-2450D02*
D03*
X-3720D02*
D03*
D78*
X-4990D02*
D03*
X-6260D02*
D03*
Y-21305D02*
D03*
X-2450D02*
D03*
D79*
X-45550Y-33175D02*
D03*
X-38925Y-35525D02*
D03*
X-40200Y-37638D02*
D03*
X-41550Y-34275D02*
D03*
X-44900Y-20700D02*
D03*
X-45225Y-26825D02*
D03*
X-46375Y-27050D02*
D03*
X-47550Y-39775D02*
D03*
X-45400D02*
D03*
X-31688Y-26150D02*
D03*
X-33200Y-32300D02*
D03*
X-46600Y-27850D02*
D03*
X-47825Y-36000D02*
D03*
X-43450Y-25325D02*
D03*
X-43600Y-24600D02*
D03*
X-39152Y-27001D02*
D03*
X-35588Y-25462D02*
D03*
X-32750Y-21425D02*
D03*
X-36050Y-21375D02*
D03*
X-30875Y-38500D02*
D03*
X-32050Y-32075D02*
D03*
X-36350Y-40775D02*
D03*
X-35950Y-27600D02*
D03*
X-43375Y-23145D02*
D03*
X-31300Y-28250D02*
D03*
X-40550Y-26875D02*
D03*
X-37300Y-32100D02*
D03*
X-32575Y-29825D02*
D03*
X-32675Y-29000D02*
D03*
X-35802Y-15951D02*
D03*
X-36228Y-13722D02*
D03*
X-37875Y-14350D02*
D03*
X-43125Y-27750D02*
D03*
X-43375Y-28525D02*
D03*
X-19600Y-36025D02*
D03*
X-16425Y-38450D02*
D03*
X-40175Y-86550D02*
D03*
X-37650Y-86625D02*
D03*
X-27875Y-16625D02*
D03*
X-29975Y-13025D02*
D03*
X-28700Y-72450D02*
D03*
X-28850Y-73825D02*
D03*
X-28900Y-75075D02*
D03*
X-30650Y-35200D02*
D03*
X-34475Y-10800D02*
D03*
X-30075Y-19425D02*
D03*
X-29525Y-39000D02*
D03*
X-28175Y-70025D02*
D03*
X-20550Y-68325D02*
D03*
X-21850Y-78250D02*
D03*
X-33375Y-79200D02*
D03*
X-24825Y-49975D02*
D03*
X-22290Y-71910D02*
D03*
X-31450Y-54725D02*
D03*
X-13275Y-46225D02*
D03*
X-21775Y-52475D02*
D03*
X-25351Y-39702D02*
D03*
X-29150Y-36625D02*
D03*
X-21100Y-21425D02*
D03*
X-34875Y-47225D02*
D03*
X-31800Y-38375D02*
D03*
X-33302Y-38850D02*
D03*
X-39350Y-36425D02*
D03*
X-45600Y-23145D02*
D03*
X-31750Y-59825D02*
D03*
X-29675Y-59425D02*
D03*
X-31750Y-59025D02*
D03*
X-29675Y-58625D02*
D03*
X-33325Y-59825D02*
D03*
X-34150Y-59750D02*
D03*
X-29700Y-54675D02*
D03*
X-14175Y-36650D02*
D03*
X-17075Y-36850D02*
D03*
X-17975Y-38875D02*
D03*
X-19375Y-39200D02*
D03*
X-25025Y-28800D02*
D03*
X-27750Y-29425D02*
D03*
X-24075Y-26725D02*
D03*
X-27500Y-28575D02*
D03*
X-30900Y-25475D02*
D03*
X-45875Y-28775D02*
D03*
X-41375Y-14350D02*
D03*
X-11225Y-34800D02*
D03*
X-17100Y-38850D02*
D03*
X-22275Y-29175D02*
D03*
X-22350Y-32150D02*
D03*
X-24225Y-37550D02*
D03*
X-47500Y-17070D02*
D03*
X-26375Y-72800D02*
D03*
X-30000Y-69700D02*
D03*
X-37675Y-71125D02*
D03*
X-40225Y-16975D02*
D03*
X-38025Y-38450D02*
D03*
X-7650Y-1525D02*
D03*
X-12175Y-11575D02*
D03*
X-9825Y-15450D02*
D03*
X-12525Y-14110D02*
D03*
X-8450Y-12450D02*
D03*
X-21100Y-23300D02*
D03*
X-33775Y-53775D02*
D03*
X-34200Y-45775D02*
D03*
X-32100Y-66500D02*
D03*
X-21562Y-53713D02*
D03*
X-29250Y-22050D02*
D03*
X-26525Y-48875D02*
D03*
X-31000Y-49925D02*
D03*
X-29350Y-16075D02*
D03*
X-30075Y-1525D02*
D03*
X-24925Y-1500D02*
D03*
X-4900Y-23900D02*
D03*
Y-26500D02*
D03*
Y-25200D02*
D03*
X-32390Y-6865D02*
D03*
Y-8465D02*
D03*
X-33290Y-7665D02*
D03*
X-4550Y-9800D02*
D03*
X-40325Y-57225D02*
D03*
X-26550Y-25500D02*
D03*
X-14125Y-25100D02*
D03*
X-24500Y-14375D02*
D03*
X-21200Y-15075D02*
D03*
X-14825Y-16325D02*
D03*
X-36062Y-8538D02*
D03*
X-21742Y-61976D02*
D03*
X-19600Y-18200D02*
D03*
X-19150Y-17400D02*
D03*
X-40675Y-63050D02*
D03*
X-14075Y-27425D02*
D03*
X-19525Y-27475D02*
D03*
X-21600Y-29675D02*
D03*
X-14750Y-31350D02*
D03*
X-20175D02*
D03*
X-25675D02*
D03*
X-16775Y-36050D02*
D03*
X-36150Y-24800D02*
D03*
X-31525Y-21425D02*
D03*
X-33900Y-20000D02*
D03*
X-27750Y-36075D02*
D03*
X-33200Y-36850D02*
D03*
X-22250Y-36025D02*
D03*
X-13425Y-32200D02*
D03*
X-22650Y-24450D02*
D03*
X-23375Y-16725D02*
D03*
X-25150Y-34375D02*
D03*
X-51175Y-47925D02*
D03*
X-22600Y-6300D02*
D03*
X-56975Y-13495D02*
D03*
X-20350Y-7375D02*
D03*
X-59225Y-13620D02*
D03*
X-48825Y-78275D02*
D03*
X-51175Y-80800D02*
D03*
X-37650Y-62425D02*
D03*
X-26450Y-36950D02*
D03*
X-10400Y-30125D02*
D03*
X-15450Y-36850D02*
D03*
X-20175Y-32100D02*
D03*
X-16775Y-29300D02*
D03*
X-16100Y-29775D02*
D03*
X-22494Y-56250D02*
D03*
X-23075Y-56750D02*
D03*
X-22375Y-59750D02*
D03*
X-25663Y-60250D02*
D03*
X-21750Y-60750D02*
D03*
X-20050Y-59250D02*
D03*
X-28250Y-62025D02*
D03*
X-27641Y-56625D02*
D03*
X-29750Y-61475D02*
D03*
X-29250Y-62150D02*
D03*
X-28750Y-61300D02*
D03*
X-28438Y-57350D02*
D03*
X-30250Y-62275D02*
D03*
X-26075Y-41500D02*
D03*
X-23825D02*
D03*
X-21950Y-64600D02*
D03*
X-17275D02*
D03*
X-16600Y-68125D02*
D03*
X-40600Y-77225D02*
D03*
X-23575Y-72700D02*
D03*
X-21125Y-73200D02*
D03*
X-19900Y-74450D02*
D03*
X-19925Y-75750D02*
D03*
X-32750Y-62300D02*
D03*
X-23151Y-57453D02*
D03*
X-25950Y-59550D02*
D03*
X-25900Y-61100D02*
D03*
X-20900Y-63750D02*
D03*
X-11775Y-71225D02*
D03*
X-22500Y-72925D02*
D03*
X-32000Y-61775D02*
D03*
X-21000Y-58250D02*
D03*
X-32000Y-44950D02*
D03*
X-23400Y-43200D02*
D03*
X-32760Y-49625D02*
D03*
X-23275Y-45975D02*
D03*
X-23400Y-44925D02*
D03*
X-22175Y-44300D02*
D03*
X-41550Y-76275D02*
D03*
X-32250Y-53703D02*
D03*
X-31650Y-48050D02*
D03*
X-34200Y-48250D02*
D03*
X-14125Y-88050D02*
D03*
X-39450Y-61875D02*
D03*
X-53875Y-83350D02*
D03*
X-43150Y-83375D02*
D03*
X-42375Y-84075D02*
D03*
X-18875Y-33625D02*
D03*
D80*
X-45125Y-27850D02*
D03*
X-18175Y-36775D02*
D03*
X-21212Y-27737D02*
D03*
X-38775Y-37100D02*
D03*
X-44700Y-17095D02*
D03*
X-28525Y-29675D02*
D03*
X-34725Y-26875D02*
D03*
X-20875Y-37575D02*
D03*
X-21100Y-38825D02*
D03*
X-30750Y-14175D02*
D03*
X-28150Y-49600D02*
D03*
X-1200Y-7250D02*
D03*
X-6350Y-8750D02*
D03*
Y-10050D02*
D03*
X-2800Y-12250D02*
D03*
X-29850Y-20250D02*
D03*
X-13350Y-7400D02*
D03*
X-39675Y-59050D02*
D03*
X-29925Y-25000D02*
D03*
X-33425Y-17025D02*
D03*
X-18350Y-22275D02*
D03*
X-16100Y-16425D02*
D03*
X-34150Y-13225D02*
D03*
X-23950Y-25475D02*
D03*
X-23075Y-29650D02*
D03*
X-40175Y-45975D02*
D03*
X-38525Y-61950D02*
D03*
X-29300Y-33875D02*
D03*
X-24375Y-33750D02*
D03*
X-13950Y-33713D02*
D03*
X-27750Y-27425D02*
D03*
X-18325Y-27350D02*
D03*
X-30875Y-61200D02*
D03*
X-52375Y-18725D02*
D03*
X-20263Y-52888D02*
D03*
X-28525Y-37500D02*
D03*
X-47675Y-28575D02*
D03*
X-43924Y-35000D02*
D03*
X-47525Y-20800D02*
D03*
X-49550Y-32345D02*
D03*
X-35912Y-42888D02*
D03*
X-35575Y-36925D02*
D03*
X-30625Y-32525D02*
D03*
D81*
X-26325Y-21425D02*
D03*
X-23525Y-17375D02*
D03*
X-25025Y-20125D02*
D03*
X-25025Y-21425D02*
D03*
X-23726Y-20126D02*
D03*
X-25675Y-20125D02*
D03*
X-25675Y-22725D02*
D03*
X-23050Y-19500D02*
D03*
X-26975Y-23375D02*
D03*
X-23175Y-14075D02*
D03*
X-25678Y-22079D02*
D03*
X-23075Y-21425D02*
D03*
X-23725Y-19475D02*
D03*
X-25675Y-18175D02*
D03*
X-25025D02*
D03*
X-26325Y-20125D02*
D03*
Y-19475D02*
D03*
M02*
