G04 Layer_Physical_Order=1*
G04 Layer_Color=255*
%FSLAX43Y43*%
%MOMM*%
G71*
G01*
G75*
%ADD10R,0.950X1.000*%
%ADD11R,0.400X1.350*%
%ADD12R,1.000X2.250*%
%ADD13C,1.270*%
%ADD14R,1.150X1.400*%
%ADD15R,1.600X1.000*%
%ADD16R,2.500X3.000*%
%ADD17R,1.400X1.600*%
%ADD18R,0.700X0.300*%
%ADD19R,0.675X0.350*%
%ADD20R,1.700X2.500*%
%ADD21O,0.300X1.650*%
%ADD22O,1.650X0.300*%
%ADD23R,2.200X0.600*%
%ADD24R,1.400X0.600*%
%ADD25R,1.200X1.200*%
%ADD26R,1.100X1.000*%
%ADD27R,1.100X0.600*%
%ADD28R,0.700X0.700*%
%ADD29R,2.800X1.400*%
%ADD30R,0.650X0.800*%
%ADD31R,2.700X1.250*%
%ADD32R,1.500X1.350*%
%ADD33R,0.900X0.600*%
%ADD34R,1.000X0.950*%
%ADD35R,0.600X0.900*%
%ADD36R,0.762X0.762*%
%ADD37R,0.800X0.650*%
%ADD38R,0.600X0.550*%
%ADD39R,0.550X0.600*%
%ADD40R,0.500X0.650*%
%ADD41R,1.200X1.200*%
%ADD42R,0.700X0.700*%
%ADD43C,0.175*%
%ADD44C,0.200*%
%ADD45C,0.125*%
%ADD46C,0.150*%
%ADD47C,0.300*%
%ADD48C,0.180*%
%ADD49C,0.250*%
%ADD50R,0.300X0.900*%
%ADD51R,1.800X1.900*%
%ADD52R,0.900X0.300*%
G04:AMPARAMS|DCode=53|XSize=1.05mm|YSize=1.25mm|CornerRadius=0.525mm|HoleSize=0mm|Usage=FLASHONLY|Rotation=180.000|XOffset=0mm|YOffset=0mm|HoleType=Round|Shape=RoundedRectangle|*
%AMROUNDEDRECTD53*
21,1,1.050,0.200,0,0,180.0*
21,1,0.000,1.250,0,0,180.0*
1,1,1.050,0.000,0.100*
1,1,1.050,0.000,0.100*
1,1,1.050,0.000,-0.100*
1,1,1.050,0.000,-0.100*
%
%ADD53ROUNDEDRECTD53*%
G04:AMPARAMS|DCode=54|XSize=1.05mm|YSize=1.25mm|CornerRadius=0.525mm|HoleSize=0mm|Usage=FLASHONLY|Rotation=180.000|XOffset=0mm|YOffset=0mm|HoleType=Round|Shape=RoundedRectangle|*
%AMROUNDEDRECTD54*
21,1,1.050,0.200,0,0,180.0*
21,1,0.000,1.250,0,0,180.0*
1,1,1.050,0.000,0.100*
1,1,1.050,0.000,0.100*
1,1,1.050,0.000,-0.100*
1,1,1.050,0.000,-0.100*
%
%ADD54ROUNDEDRECTD54*%
G04:AMPARAMS|DCode=55|XSize=2.1mm|YSize=1.9mm|CornerRadius=0.494mm|HoleSize=0mm|Usage=FLASHONLY|Rotation=180.000|XOffset=0mm|YOffset=0mm|HoleType=Round|Shape=RoundedRectangle|*
%AMROUNDEDRECTD55*
21,1,2.100,0.912,0,0,180.0*
21,1,1.112,1.900,0,0,180.0*
1,1,0.988,-0.556,0.456*
1,1,0.988,0.556,0.456*
1,1,0.988,0.556,-0.456*
1,1,0.988,-0.556,-0.456*
%
%ADD55ROUNDEDRECTD55*%
%ADD56R,1.700X1.700*%
%ADD57R,1.700X1.700*%
%ADD58C,1.700*%
%ADD59C,1.700*%
%ADD60R,1.700X1.700*%
%ADD61C,1.050*%
%ADD62C,1.050*%
%ADD63R,1.700X1.700*%
%ADD64C,3.600*%
%ADD65C,0.550*%
%ADD66C,0.550*%
%ADD67C,0.400*%
G36*
X-24343Y-28967D02*
Y-29500D01*
X-24322Y-29602D01*
X-24264Y-29689D01*
X-22404Y-31549D01*
X-22454Y-31712D01*
X-22526Y-31726D01*
X-22674Y-31826D01*
X-22774Y-31974D01*
X-22809Y-32150D01*
X-22774Y-32326D01*
X-22674Y-32474D01*
X-22618Y-32512D01*
Y-34314D01*
X-24414Y-36111D01*
X-24472Y-36198D01*
X-24493Y-36300D01*
Y-37188D01*
X-24549Y-37226D01*
X-24649Y-37374D01*
X-24684Y-37550D01*
X-24649Y-37726D01*
X-24549Y-37874D01*
X-24401Y-37974D01*
X-24225Y-38009D01*
X-24049Y-37974D01*
X-23901Y-37874D01*
X-23801Y-37726D01*
X-23766Y-37550D01*
X-23801Y-37374D01*
X-23901Y-37226D01*
X-23957Y-37188D01*
Y-36411D01*
X-22161Y-34614D01*
X-22103Y-34527D01*
X-22082Y-34425D01*
Y-32512D01*
X-22026Y-32474D01*
X-21926Y-32326D01*
X-21912Y-32254D01*
X-21749Y-32204D01*
X-21664Y-32289D01*
X-21577Y-32347D01*
X-21475Y-32368D01*
X-20537D01*
X-20499Y-32424D01*
X-20351Y-32524D01*
X-20175Y-32559D01*
X-19999Y-32524D01*
X-19851Y-32424D01*
X-19818Y-32375D01*
X-19668Y-32421D01*
Y-34314D01*
X-24802Y-39448D01*
X-24993Y-39428D01*
X-25027Y-39378D01*
X-25176Y-39278D01*
X-25351Y-39243D01*
X-25527Y-39278D01*
X-25676Y-39378D01*
X-25775Y-39526D01*
X-25810Y-39702D01*
X-25775Y-39878D01*
X-25676Y-40026D01*
X-25619Y-40064D01*
Y-41103D01*
X-25691Y-41142D01*
X-25769Y-41163D01*
X-25899Y-41076D01*
X-26075Y-41041D01*
X-26251Y-41076D01*
X-26399Y-41176D01*
X-26437Y-41232D01*
X-29268D01*
X-31571Y-38929D01*
X-31543Y-38745D01*
X-31476Y-38699D01*
X-31454Y-38667D01*
X-31367Y-38672D01*
X-31289Y-38690D01*
X-31199Y-38824D01*
X-31051Y-38924D01*
X-30875Y-38959D01*
X-30699Y-38924D01*
X-30551Y-38824D01*
X-30451Y-38676D01*
X-30416Y-38500D01*
X-30451Y-38324D01*
X-30551Y-38176D01*
X-30699Y-38076D01*
X-30875Y-38041D01*
X-30942Y-38055D01*
X-32080Y-36917D01*
Y-36700D01*
X-31725D01*
Y-35375D01*
X-31525D01*
Y-36700D01*
X-30925D01*
X-30925Y-36700D01*
Y-36700D01*
X-30775Y-36654D01*
X-29793Y-37636D01*
Y-38638D01*
X-29849Y-38676D01*
X-29949Y-38824D01*
X-29984Y-39000D01*
X-29949Y-39176D01*
X-29849Y-39324D01*
X-29701Y-39424D01*
X-29525Y-39459D01*
X-29349Y-39424D01*
X-29201Y-39324D01*
X-29101Y-39176D01*
X-29066Y-39000D01*
X-29101Y-38824D01*
X-29201Y-38676D01*
X-29257Y-38638D01*
Y-37841D01*
X-29158Y-37769D01*
X-29107Y-37751D01*
X-29025Y-37768D01*
X-28887D01*
X-28849Y-37824D01*
X-28701Y-37924D01*
X-28525Y-37959D01*
X-28349Y-37924D01*
X-28201Y-37824D01*
X-28163Y-37768D01*
X-25900D01*
X-25798Y-37747D01*
X-25711Y-37689D01*
X-24961Y-36939D01*
X-24903Y-36852D01*
X-24882Y-36750D01*
Y-34737D01*
X-24826Y-34699D01*
X-24726Y-34551D01*
X-24691Y-34375D01*
X-24717Y-34243D01*
X-24601Y-34146D01*
X-24596Y-34144D01*
X-24551Y-34174D01*
X-24375Y-34209D01*
X-24199Y-34174D01*
X-24051Y-34074D01*
X-23951Y-33926D01*
X-23916Y-33750D01*
X-23951Y-33574D01*
X-24051Y-33426D01*
X-24107Y-33388D01*
Y-31375D01*
X-24128Y-31273D01*
X-24186Y-31186D01*
X-25307Y-30064D01*
Y-29319D01*
X-25157Y-29232D01*
X-25025Y-29259D01*
X-24849Y-29224D01*
X-24701Y-29124D01*
X-24601Y-28976D01*
X-24591Y-28923D01*
X-24451Y-28877D01*
X-24343Y-28967D01*
D02*
G37*
G36*
X-24843Y-22956D02*
Y-23464D01*
X-25339Y-23961D01*
X-25397Y-24048D01*
X-25418Y-24150D01*
Y-27750D01*
X-25397Y-27852D01*
X-25339Y-27939D01*
X-25079Y-28199D01*
X-25129Y-28362D01*
X-25201Y-28376D01*
X-25306Y-28447D01*
X-25328Y-28438D01*
X-25386Y-28351D01*
X-25782Y-27954D01*
Y-23811D01*
X-25063Y-23092D01*
X-25005Y-23005D01*
X-24993Y-22942D01*
X-24843Y-22956D01*
D02*
G37*
G36*
X-22614Y-22264D02*
X-22527Y-22322D01*
X-22425Y-22343D01*
X-21461D01*
X-21105Y-22699D01*
X-21162Y-22854D01*
X-21276Y-22876D01*
X-21424Y-22976D01*
X-21524Y-23124D01*
X-21559Y-23300D01*
X-21524Y-23476D01*
X-21424Y-23624D01*
X-21276Y-23724D01*
X-21100Y-23759D01*
X-21033Y-23745D01*
X-19157Y-25622D01*
Y-26999D01*
X-19307Y-27080D01*
X-19349Y-27051D01*
X-19525Y-27016D01*
X-19701Y-27051D01*
X-19849Y-27151D01*
X-19949Y-27299D01*
X-19984Y-27475D01*
X-19949Y-27651D01*
X-19849Y-27799D01*
X-19701Y-27899D01*
X-19525Y-27934D01*
X-19349Y-27899D01*
X-19307Y-27871D01*
X-19157Y-27951D01*
Y-28814D01*
X-19137Y-28917D01*
X-19079Y-29004D01*
X-18468Y-29614D01*
Y-29996D01*
X-18618Y-30011D01*
X-18628Y-29960D01*
X-18686Y-29873D01*
X-20765Y-27794D01*
X-20754Y-27737D01*
X-20789Y-27562D01*
X-20888Y-27413D01*
X-21037Y-27314D01*
X-21212Y-27279D01*
X-21269Y-27290D01*
X-22382Y-26177D01*
Y-24812D01*
X-22326Y-24774D01*
X-22226Y-24626D01*
X-22191Y-24450D01*
X-22226Y-24274D01*
X-22326Y-24126D01*
X-22474Y-24026D01*
X-22650Y-23991D01*
X-22826Y-24026D01*
X-22974Y-24126D01*
X-23035Y-24216D01*
X-23185Y-24170D01*
Y-22295D01*
X-23205Y-22193D01*
X-23230Y-22156D01*
Y-21929D01*
X-23191Y-21882D01*
X-23039Y-21839D01*
X-22614Y-22264D01*
D02*
G37*
G36*
X-22974Y-24774D02*
X-22918Y-24812D01*
Y-26288D01*
X-22897Y-26390D01*
X-22839Y-26477D01*
X-21656Y-27660D01*
X-21671Y-27737D01*
X-21636Y-27913D01*
X-21537Y-28062D01*
X-21388Y-28161D01*
X-21212Y-28196D01*
X-21135Y-28181D01*
X-19143Y-30173D01*
Y-31042D01*
X-19293Y-31104D01*
X-19836Y-30561D01*
X-19923Y-30503D01*
X-20025Y-30482D01*
X-21489D01*
X-21706Y-30266D01*
X-21632Y-30127D01*
X-21600Y-30134D01*
X-21424Y-30099D01*
X-21276Y-29999D01*
X-21176Y-29851D01*
X-21141Y-29675D01*
X-21176Y-29499D01*
X-21276Y-29351D01*
X-21424Y-29251D01*
X-21600Y-29216D01*
X-21674Y-29231D01*
X-21804Y-29180D01*
X-21827Y-29120D01*
X-21851Y-28999D01*
X-21951Y-28851D01*
X-22099Y-28751D01*
X-22275Y-28716D01*
X-22451Y-28751D01*
X-22599Y-28851D01*
X-22699Y-28999D01*
X-22731Y-29159D01*
X-22794Y-29204D01*
X-22873Y-29244D01*
X-22899Y-29226D01*
X-23075Y-29191D01*
X-23185Y-29066D01*
Y-24730D01*
X-23035Y-24684D01*
X-22974Y-24774D01*
D02*
G37*
G36*
X-36300Y-30851D02*
X-36439Y-30908D01*
X-37111Y-30236D01*
X-37198Y-30178D01*
X-37300Y-30157D01*
X-38975D01*
Y-29654D01*
X-38639Y-29318D01*
X-36300D01*
Y-30851D01*
D02*
G37*
G36*
X-39975Y-30180D02*
X-40023Y-30190D01*
X-40105Y-30245D01*
X-40276Y-30415D01*
X-40588D01*
Y-30320D01*
X-41462D01*
Y-30195D01*
X-42412D01*
Y-31645D01*
X-42612D01*
Y-30195D01*
X-43562D01*
Y-30295D01*
X-43825D01*
Y-30670D01*
X-43924D01*
Y-30770D01*
X-44462D01*
Y-31045D01*
X-44598Y-31078D01*
X-44750D01*
Y-30920D01*
X-44725D01*
Y-30370D01*
X-45225D01*
Y-30170D01*
X-44725D01*
Y-29813D01*
X-39975D01*
Y-30180D01*
D02*
G37*
G36*
X-14343Y-30007D02*
Y-30901D01*
X-14493Y-30981D01*
X-14574Y-30926D01*
X-14750Y-30891D01*
X-14926Y-30926D01*
X-15074Y-31026D01*
X-15174Y-31174D01*
X-15209Y-31350D01*
X-15174Y-31526D01*
X-15074Y-31674D01*
X-14926Y-31774D01*
X-14750Y-31809D01*
X-14574Y-31774D01*
X-14493Y-31719D01*
X-14343Y-31799D01*
Y-32838D01*
X-14322Y-32940D01*
X-14264Y-33027D01*
X-14218Y-33073D01*
Y-33350D01*
X-14274Y-33388D01*
X-14374Y-33537D01*
X-14409Y-33713D01*
X-14374Y-33888D01*
X-14274Y-34037D01*
X-14126Y-34136D01*
X-13950Y-34171D01*
X-13873Y-34156D01*
X-13857Y-34165D01*
X-13758Y-34286D01*
X-13766Y-34327D01*
Y-35217D01*
X-13916Y-35232D01*
X-13928Y-35173D01*
X-13986Y-35086D01*
X-16450Y-32622D01*
Y-30263D01*
X-16300Y-30183D01*
X-16276Y-30199D01*
X-16100Y-30234D01*
X-15924Y-30199D01*
X-15776Y-30099D01*
X-15676Y-29951D01*
X-15641Y-29775D01*
X-15676Y-29599D01*
X-15776Y-29451D01*
X-15924Y-29351D01*
X-16100Y-29316D01*
X-16169Y-29330D01*
X-16296Y-29304D01*
X-16332Y-29221D01*
X-16351Y-29124D01*
X-16451Y-28976D01*
X-16599Y-28876D01*
X-16775Y-28841D01*
X-16951Y-28876D01*
X-17099Y-28976D01*
X-17199Y-29124D01*
X-17205Y-29154D01*
X-17368Y-29204D01*
X-18057Y-28514D01*
Y-27712D01*
X-18001Y-27674D01*
X-17901Y-27526D01*
X-17866Y-27350D01*
X-17901Y-27174D01*
X-18001Y-27026D01*
X-18149Y-26926D01*
X-18325Y-26891D01*
X-18472Y-26920D01*
X-18622Y-26840D01*
Y-25924D01*
X-18483Y-25867D01*
X-14343Y-30007D01*
D02*
G37*
G36*
X-36585Y-24680D02*
X-36609Y-24800D01*
X-36574Y-24976D01*
X-36474Y-25124D01*
X-36326Y-25224D01*
X-36150Y-25259D01*
X-36032Y-25388D01*
X-36046Y-25462D01*
X-36011Y-25638D01*
X-35912Y-25787D01*
X-35763Y-25886D01*
X-35588Y-25921D01*
X-35412Y-25886D01*
X-35263Y-25787D01*
X-35095Y-25784D01*
X-34600Y-26279D01*
X-34664Y-26409D01*
X-34800Y-26421D01*
X-34936Y-26286D01*
X-35023Y-26228D01*
X-35125Y-26207D01*
X-38626D01*
X-38728Y-26228D01*
X-38815Y-26286D01*
X-39085Y-26556D01*
X-39152Y-26542D01*
X-39327Y-26577D01*
X-39476Y-26677D01*
X-39576Y-26826D01*
X-39611Y-27001D01*
X-39592Y-27097D01*
X-39691Y-27243D01*
X-39703Y-27249D01*
X-39787Y-27260D01*
X-40105Y-26942D01*
X-40091Y-26875D01*
X-40126Y-26699D01*
X-40226Y-26551D01*
X-40374Y-26451D01*
X-40550Y-26416D01*
X-40726Y-26451D01*
X-40874Y-26551D01*
X-40974Y-26699D01*
X-41009Y-26875D01*
X-40974Y-27051D01*
X-40874Y-27199D01*
X-40726Y-27299D01*
X-40550Y-27334D01*
X-40483Y-27320D01*
X-40096Y-27707D01*
X-40158Y-27857D01*
X-41264D01*
X-43238Y-25883D01*
X-43206Y-25703D01*
X-43126Y-25649D01*
X-43088Y-25593D01*
X-41787D01*
X-41685Y-25572D01*
X-41598Y-25514D01*
X-40614Y-24530D01*
X-36678D01*
X-36585Y-24680D01*
D02*
G37*
G36*
X-43755Y-15791D02*
Y-17545D01*
X-43950D01*
Y-17802D01*
X-44054Y-17855D01*
X-44188Y-17768D01*
Y-17420D01*
X-44196D01*
X-44276Y-17271D01*
X-44241Y-17095D01*
X-44276Y-16919D01*
X-44250Y-16770D01*
X-44250D01*
X-44250Y-16770D01*
Y-15820D01*
X-45325D01*
Y-15795D01*
X-45875D01*
Y-16295D01*
Y-16795D01*
X-45325D01*
X-45325Y-16795D01*
Y-16795D01*
X-45216Y-16808D01*
X-45128Y-16941D01*
X-45159Y-17095D01*
X-45149Y-17145D01*
X-45272Y-17295D01*
X-46012D01*
Y-18745D01*
X-46212D01*
Y-17295D01*
X-46942D01*
X-47056Y-17145D01*
X-47041Y-17070D01*
X-47071Y-16920D01*
X-47025Y-16770D01*
X-47025D01*
X-47025Y-16770D01*
Y-15695D01*
X-47000D01*
Y-15145D01*
X-47500D01*
Y-15045D01*
X-47600D01*
Y-14395D01*
X-48000D01*
Y-14929D01*
X-48150Y-14991D01*
X-48661Y-14481D01*
X-48748Y-14423D01*
X-48850Y-14402D01*
X-50800D01*
Y-13795D01*
X-53950D01*
Y-14402D01*
X-54900D01*
X-55002Y-14423D01*
X-55089Y-14481D01*
X-56189Y-15581D01*
X-56247Y-15668D01*
X-56268Y-15770D01*
Y-16401D01*
X-56517Y-16505D01*
X-56731Y-16669D01*
X-56895Y-16883D01*
X-56999Y-17132D01*
X-57034Y-17400D01*
X-56999Y-17668D01*
X-56895Y-17917D01*
X-56731Y-18131D01*
X-56517Y-18295D01*
X-56268Y-18399D01*
X-56000Y-18434D01*
X-55732Y-18399D01*
X-55483Y-18295D01*
X-55269Y-18131D01*
X-55105Y-17917D01*
X-55001Y-17668D01*
X-54966Y-17400D01*
X-55001Y-17132D01*
X-55105Y-16883D01*
X-55269Y-16669D01*
X-55483Y-16505D01*
X-55732Y-16401D01*
Y-15881D01*
X-54789Y-14938D01*
X-53950D01*
Y-15545D01*
X-50800D01*
Y-14938D01*
X-48961D01*
X-48468Y-15431D01*
Y-17020D01*
X-49300D01*
Y-17895D01*
X-49400D01*
Y-17995D01*
X-50350D01*
Y-18770D01*
X-50325D01*
Y-19265D01*
X-50800D01*
Y-19020D01*
X-51864D01*
X-51945Y-18870D01*
X-51916Y-18725D01*
X-51942Y-18595D01*
X-51854Y-18445D01*
X-50800D01*
Y-16695D01*
X-53950D01*
Y-18445D01*
X-52896D01*
X-52808Y-18595D01*
X-52834Y-18725D01*
X-52805Y-18870D01*
X-52886Y-19020D01*
X-53950D01*
Y-20770D01*
X-50800D01*
Y-19825D01*
X-50325D01*
Y-20395D01*
X-48579D01*
X-48529Y-20545D01*
X-50511Y-22527D01*
X-50800D01*
Y-21920D01*
X-53950D01*
Y-22527D01*
X-54489D01*
X-55732Y-21284D01*
Y-20965D01*
X-54975D01*
Y-18915D01*
X-57025D01*
Y-20965D01*
X-56268D01*
Y-21395D01*
X-56247Y-21497D01*
X-56189Y-21584D01*
X-54789Y-22984D01*
X-54702Y-23042D01*
X-54600Y-23063D01*
X-53950D01*
Y-23670D01*
X-50800D01*
Y-23063D01*
X-50400D01*
X-50298Y-23042D01*
X-50211Y-22984D01*
X-48350Y-21124D01*
X-48200Y-21186D01*
Y-22395D01*
X-46850D01*
Y-22073D01*
X-46525D01*
Y-22420D01*
X-45925D01*
Y-21745D01*
X-45725D01*
Y-22420D01*
X-45168D01*
Y-22726D01*
X-45182Y-22738D01*
X-45318Y-22792D01*
X-45424Y-22721D01*
X-45600Y-22686D01*
X-45776Y-22721D01*
X-45924Y-22821D01*
X-46024Y-22969D01*
X-46059Y-23145D01*
X-46024Y-23321D01*
X-45924Y-23469D01*
X-45868Y-23507D01*
Y-25550D01*
X-45847Y-25652D01*
X-45789Y-25739D01*
X-45300Y-26228D01*
X-45350Y-26391D01*
X-45401Y-26401D01*
X-45549Y-26501D01*
X-45587Y-26557D01*
X-45675D01*
X-45777Y-26578D01*
X-45864Y-26636D01*
X-45904Y-26675D01*
X-46051Y-26726D01*
X-46199Y-26626D01*
X-46375Y-26591D01*
X-46551Y-26626D01*
X-46699Y-26726D01*
X-46799Y-26874D01*
X-46834Y-27050D01*
X-46799Y-27226D01*
X-46768Y-27272D01*
X-46776Y-27426D01*
X-46814Y-27452D01*
X-46924Y-27526D01*
X-47024Y-27674D01*
X-47059Y-27850D01*
X-47024Y-28026D01*
X-46924Y-28174D01*
X-46776Y-28274D01*
X-46600Y-28309D01*
X-46424Y-28274D01*
X-46276Y-28174D01*
X-46238Y-28118D01*
X-45487D01*
X-45449Y-28174D01*
X-45301Y-28274D01*
X-45125Y-28309D01*
X-44949Y-28274D01*
X-44801Y-28174D01*
X-44701Y-28026D01*
X-44666Y-27850D01*
X-44701Y-27674D01*
X-44801Y-27526D01*
X-44949Y-27426D01*
X-45060Y-27404D01*
Y-27251D01*
X-45049Y-27249D01*
X-44901Y-27149D01*
X-44801Y-27001D01*
X-44791Y-26950D01*
X-44628Y-26900D01*
X-44043Y-27486D01*
Y-28125D01*
X-44022Y-28227D01*
X-43964Y-28314D01*
X-43820Y-28458D01*
X-43834Y-28525D01*
X-43799Y-28701D01*
X-43699Y-28849D01*
X-43551Y-28949D01*
X-43375Y-28984D01*
X-43199Y-28949D01*
X-43051Y-28849D01*
X-42951Y-28701D01*
X-42916Y-28525D01*
X-42951Y-28349D01*
X-42964Y-28330D01*
X-42949Y-28174D01*
X-42916Y-28152D01*
X-42801Y-28074D01*
X-42727Y-27964D01*
X-42559Y-27920D01*
X-41819Y-28659D01*
X-41732Y-28717D01*
X-41630Y-28738D01*
X-39024D01*
X-38993Y-28783D01*
X-38966Y-28888D01*
X-39328Y-29250D01*
X-39975D01*
Y-29277D01*
X-45547D01*
X-45592Y-29127D01*
X-45551Y-29099D01*
X-45451Y-28951D01*
X-45416Y-28775D01*
X-45451Y-28599D01*
X-45551Y-28451D01*
X-45699Y-28351D01*
X-45875Y-28316D01*
X-46051Y-28351D01*
X-46199Y-28451D01*
X-46299Y-28599D01*
X-46334Y-28775D01*
X-46299Y-28951D01*
X-46199Y-29099D01*
X-46158Y-29127D01*
X-46203Y-29277D01*
X-47175D01*
Y-29270D01*
X-47407D01*
Y-28937D01*
X-47351Y-28899D01*
X-47251Y-28751D01*
X-47216Y-28575D01*
X-47251Y-28399D01*
X-47351Y-28251D01*
X-47499Y-28151D01*
X-47675Y-28116D01*
X-47851Y-28151D01*
X-47999Y-28251D01*
X-48099Y-28399D01*
X-48134Y-28575D01*
X-48099Y-28751D01*
X-47999Y-28899D01*
X-47943Y-28937D01*
Y-29270D01*
X-48175D01*
Y-30203D01*
X-48550D01*
Y-29270D01*
X-48782D01*
Y-28745D01*
X-48803Y-28643D01*
X-48861Y-28556D01*
X-49676Y-27741D01*
X-49763Y-27683D01*
X-49865Y-27662D01*
X-50401D01*
X-50505Y-27413D01*
X-50669Y-27199D01*
X-50883Y-27035D01*
X-51132Y-26931D01*
X-51400Y-26896D01*
X-51668Y-26931D01*
X-51917Y-27035D01*
X-52131Y-27199D01*
X-52295Y-27413D01*
X-52399Y-27662D01*
X-52434Y-27930D01*
X-52399Y-28198D01*
X-52295Y-28447D01*
X-52131Y-28661D01*
X-51917Y-28825D01*
X-51668Y-28929D01*
X-51400Y-28964D01*
X-51132Y-28929D01*
X-50883Y-28825D01*
X-50669Y-28661D01*
X-50505Y-28447D01*
X-50401Y-28198D01*
X-49976D01*
X-49318Y-28856D01*
Y-29270D01*
X-49550D01*
Y-30203D01*
X-50375D01*
Y-29445D01*
X-52425D01*
Y-30222D01*
X-54951D01*
X-55055Y-29973D01*
X-55219Y-29759D01*
X-55433Y-29595D01*
X-55682Y-29491D01*
X-55950Y-29456D01*
X-56218Y-29491D01*
X-56467Y-29595D01*
X-56681Y-29759D01*
X-56845Y-29973D01*
X-56949Y-30222D01*
X-56984Y-30490D01*
X-56949Y-30758D01*
X-56845Y-31007D01*
X-56681Y-31221D01*
X-56467Y-31385D01*
X-56218Y-31489D01*
X-55950Y-31524D01*
X-55682Y-31489D01*
X-55433Y-31385D01*
X-55219Y-31221D01*
X-55055Y-31007D01*
X-54951Y-30758D01*
X-52425D01*
Y-31495D01*
X-50375D01*
Y-30687D01*
X-49550D01*
Y-31620D01*
X-49404D01*
X-49354Y-31770D01*
X-49483Y-31900D01*
X-49550Y-31886D01*
X-49726Y-31921D01*
X-49874Y-32021D01*
X-49974Y-32169D01*
X-50009Y-32345D01*
X-49995Y-32412D01*
X-50289Y-32706D01*
X-50347Y-32793D01*
X-50368Y-32895D01*
Y-33145D01*
X-50975D01*
Y-34095D01*
X-49225D01*
Y-33145D01*
X-49806D01*
X-49821Y-32995D01*
X-49617Y-32790D01*
X-49550Y-32804D01*
X-49374Y-32769D01*
X-49226Y-32669D01*
X-49126Y-32521D01*
X-49091Y-32345D01*
X-49101Y-32296D01*
X-49012Y-32214D01*
X-48875Y-32271D01*
Y-32300D01*
X-48225D01*
Y-32400D01*
X-48125D01*
Y-32900D01*
X-47575D01*
Y-32875D01*
X-47318D01*
Y-33770D01*
X-48575D01*
Y-34302D01*
X-51125D01*
Y-34095D01*
X-52875D01*
Y-35045D01*
X-51125D01*
Y-34838D01*
X-49258D01*
X-49230Y-34895D01*
X-49268Y-34986D01*
X-49323Y-35045D01*
X-50975D01*
Y-35252D01*
X-54925D01*
Y-34545D01*
X-56975D01*
Y-36595D01*
X-54925D01*
Y-35788D01*
X-50975D01*
Y-35995D01*
X-49293D01*
X-49225Y-35995D01*
X-49143Y-36111D01*
Y-37534D01*
X-49766Y-38157D01*
X-50275D01*
Y-37400D01*
X-52325D01*
Y-39450D01*
X-50275D01*
Y-38693D01*
X-49655D01*
X-49553Y-38672D01*
X-49466Y-38614D01*
X-48750Y-37899D01*
X-48600Y-37961D01*
Y-38445D01*
X-47150D01*
Y-37620D01*
Y-36795D01*
X-48457D01*
X-48600Y-36795D01*
X-48607Y-36648D01*
Y-35507D01*
X-48575Y-35370D01*
X-45525D01*
Y-33780D01*
X-45525Y-33770D01*
X-45511Y-33626D01*
X-45374Y-33599D01*
X-45226Y-33499D01*
X-45126Y-33351D01*
X-45091Y-33175D01*
X-45126Y-32999D01*
X-45226Y-32851D01*
X-45275Y-32818D01*
X-45275Y-32756D01*
X-45240Y-32661D01*
X-45173Y-32647D01*
X-45086Y-32589D01*
X-44807Y-32310D01*
X-44437D01*
Y-32970D01*
X-44192D01*
Y-33770D01*
X-44500D01*
Y-34770D01*
X-44479D01*
X-44367Y-34920D01*
X-44383Y-35000D01*
X-44348Y-35176D01*
X-44304Y-35241D01*
X-44333Y-35337D01*
X-44503Y-35467D01*
X-44633Y-35637D01*
X-44714Y-35834D01*
X-44742Y-36045D01*
X-44714Y-36256D01*
X-44633Y-36453D01*
X-44503Y-36623D01*
X-44333Y-36753D01*
X-44201Y-36807D01*
X-44231Y-36957D01*
X-44614D01*
X-45761Y-35811D01*
X-45848Y-35753D01*
X-45950Y-35732D01*
X-47463D01*
X-47501Y-35676D01*
X-47649Y-35576D01*
X-47825Y-35541D01*
X-48001Y-35576D01*
X-48149Y-35676D01*
X-48249Y-35824D01*
X-48284Y-36000D01*
X-48249Y-36176D01*
X-48149Y-36324D01*
X-48001Y-36424D01*
X-47825Y-36459D01*
X-47649Y-36424D01*
X-47501Y-36324D01*
X-47463Y-36268D01*
X-46061D01*
X-45672Y-36656D01*
X-45729Y-36795D01*
X-46950D01*
Y-37520D01*
X-45500D01*
Y-37024D01*
X-45361Y-36967D01*
X-44914Y-37414D01*
X-44827Y-37472D01*
X-44725Y-37493D01*
X-42925D01*
X-42823Y-37472D01*
X-42736Y-37414D01*
X-41361Y-36039D01*
X-41303Y-35952D01*
X-41282Y-35850D01*
Y-34714D01*
X-41218Y-34665D01*
X-41068Y-34740D01*
Y-45350D01*
X-41047Y-45452D01*
X-40989Y-45539D01*
X-40620Y-45908D01*
X-40634Y-45975D01*
X-40599Y-46151D01*
X-40499Y-46299D01*
X-40351Y-46399D01*
X-40175Y-46434D01*
X-39999Y-46399D01*
X-39851Y-46299D01*
X-39751Y-46151D01*
X-39716Y-45975D01*
X-39751Y-45799D01*
X-39851Y-45651D01*
X-39999Y-45551D01*
X-40175Y-45516D01*
X-40242Y-45530D01*
X-40532Y-45239D01*
Y-38137D01*
X-40382Y-38057D01*
X-40376Y-38061D01*
X-40200Y-38096D01*
X-40024Y-38061D01*
X-39876Y-37962D01*
X-39776Y-37813D01*
X-39768Y-37771D01*
X-39618Y-37785D01*
Y-41275D01*
X-39597Y-41377D01*
X-39539Y-41464D01*
X-36189Y-44814D01*
X-36102Y-44872D01*
X-36000Y-44893D01*
X-34536D01*
X-34254Y-45174D01*
X-34304Y-45337D01*
X-34376Y-45351D01*
X-34524Y-45451D01*
X-34624Y-45599D01*
X-34659Y-45775D01*
X-34624Y-45951D01*
X-34524Y-46099D01*
X-34468Y-46137D01*
Y-46776D01*
X-34618Y-46856D01*
X-34699Y-46801D01*
X-34875Y-46766D01*
X-35051Y-46801D01*
X-35199Y-46901D01*
X-35299Y-47049D01*
X-35334Y-47225D01*
X-35299Y-47401D01*
X-35199Y-47549D01*
X-35143Y-47587D01*
Y-49675D01*
X-35122Y-49777D01*
X-35064Y-49864D01*
X-33641Y-51287D01*
X-33715Y-51426D01*
X-33750Y-51419D01*
X-33877Y-51444D01*
X-33984Y-51516D01*
X-34056Y-51623D01*
X-34081Y-51750D01*
Y-53100D01*
X-34056Y-53227D01*
X-34035Y-53258D01*
X-34059Y-53424D01*
X-34099Y-53451D01*
X-34199Y-53599D01*
X-34234Y-53775D01*
X-34199Y-53951D01*
X-34099Y-54099D01*
X-33951Y-54199D01*
X-33775Y-54234D01*
X-33599Y-54199D01*
X-33451Y-54099D01*
X-33351Y-53951D01*
X-33316Y-53775D01*
X-33351Y-53599D01*
X-33378Y-53559D01*
X-33288Y-53424D01*
X-33250Y-53431D01*
X-33123Y-53406D01*
X-33016Y-53334D01*
X-32984D01*
X-32877Y-53406D01*
X-32786Y-53424D01*
X-32728Y-53478D01*
X-32683Y-53571D01*
X-32709Y-53703D01*
X-32674Y-53878D01*
X-32574Y-54027D01*
X-32426Y-54127D01*
X-32250Y-54161D01*
X-32074Y-54127D01*
X-31926Y-54027D01*
X-31826Y-53878D01*
X-31791Y-53703D01*
X-31817Y-53571D01*
X-31781Y-53495D01*
X-31642Y-53441D01*
X-31518Y-53519D01*
Y-53864D01*
X-31639Y-53986D01*
X-31697Y-54073D01*
X-31718Y-54175D01*
Y-54363D01*
X-31774Y-54401D01*
X-31874Y-54549D01*
X-31909Y-54725D01*
X-31874Y-54901D01*
X-31774Y-55049D01*
X-31626Y-55149D01*
X-31450Y-55184D01*
X-31274Y-55149D01*
X-31126Y-55049D01*
X-31042Y-54924D01*
X-30933Y-54891D01*
X-30870Y-54884D01*
X-30421Y-55332D01*
X-30483Y-55482D01*
X-34498D01*
X-34585Y-55332D01*
X-34569Y-55250D01*
X-34594Y-55123D01*
X-34666Y-55016D01*
Y-54984D01*
X-34594Y-54877D01*
X-34569Y-54750D01*
X-34594Y-54623D01*
X-34597Y-54619D01*
X-34658Y-54500D01*
X-34597Y-54381D01*
X-34594Y-54377D01*
X-34569Y-54250D01*
X-34594Y-54123D01*
X-34666Y-54016D01*
X-34773Y-53944D01*
X-34900Y-53919D01*
X-36250D01*
X-36377Y-53944D01*
X-36415Y-53970D01*
X-37134D01*
X-37445Y-53659D01*
Y-50650D01*
X-37445Y-50650D01*
X-37466Y-50543D01*
X-37527Y-50452D01*
X-37802Y-50177D01*
X-37893Y-50116D01*
X-38000Y-50095D01*
X-38300D01*
Y-49750D01*
X-39250D01*
Y-50095D01*
X-39500D01*
Y-49700D01*
X-41450D01*
Y-51050D01*
X-39500D01*
Y-50655D01*
X-39250D01*
Y-50825D01*
X-39275D01*
Y-51375D01*
X-38275D01*
Y-50825D01*
X-38300D01*
Y-50655D01*
X-38116D01*
X-38005Y-50766D01*
Y-53775D01*
X-37984Y-53882D01*
X-37942Y-53945D01*
X-37974Y-54040D01*
X-38014Y-54095D01*
X-38300D01*
Y-53925D01*
X-38275D01*
Y-53375D01*
X-39275D01*
Y-53925D01*
X-39250D01*
Y-54095D01*
X-39444D01*
X-39550Y-53989D01*
Y-53779D01*
X-39500Y-53650D01*
X-39500D01*
X-39500Y-53650D01*
Y-52300D01*
X-41450D01*
Y-52695D01*
X-41475D01*
X-41582Y-52716D01*
X-41673Y-52777D01*
X-42123Y-53227D01*
X-42184Y-53318D01*
X-42205Y-53425D01*
Y-53725D01*
X-42600D01*
Y-54970D01*
X-48584D01*
X-48895Y-54659D01*
Y-48750D01*
X-48895Y-48750D01*
X-48916Y-48643D01*
X-48977Y-48552D01*
X-54900Y-42628D01*
Y-40975D01*
X-56950D01*
Y-43025D01*
X-55297D01*
X-50962Y-47359D01*
X-51041Y-47493D01*
X-51175Y-47466D01*
X-51351Y-47501D01*
X-51499Y-47601D01*
X-51521Y-47632D01*
X-51925D01*
Y-47400D01*
X-52975D01*
X-53075Y-47400D01*
X-53225Y-47400D01*
X-54275D01*
Y-48400D01*
X-53968D01*
Y-52764D01*
X-56336Y-55132D01*
X-56753D01*
Y-54375D01*
X-58795D01*
Y-53885D01*
X-56753D01*
Y-51835D01*
X-58795D01*
Y-51345D01*
X-56753D01*
Y-49295D01*
X-58795D01*
Y-15686D01*
X-57048Y-13939D01*
X-56975Y-13954D01*
X-56799Y-13919D01*
X-56651Y-13819D01*
X-56551Y-13671D01*
X-56516Y-13495D01*
X-56551Y-13319D01*
X-56581Y-13275D01*
X-56500Y-13125D01*
X-46421D01*
X-43755Y-15791D01*
D02*
G37*
G36*
X-29745Y-15856D02*
X-29774Y-15899D01*
X-29809Y-16075D01*
X-29798Y-16127D01*
X-30416Y-16745D01*
X-33071D01*
X-33101Y-16701D01*
X-33249Y-16601D01*
X-33425Y-16566D01*
X-33601Y-16601D01*
X-33749Y-16701D01*
X-33849Y-16849D01*
X-33884Y-17025D01*
X-33849Y-17201D01*
X-33749Y-17349D01*
X-33601Y-17449D01*
X-33425Y-17484D01*
X-33249Y-17449D01*
X-33101Y-17349D01*
X-33071Y-17305D01*
X-30467D01*
X-30405Y-17455D01*
X-34057Y-21107D01*
X-35688D01*
X-35726Y-21051D01*
X-35874Y-20951D01*
X-36050Y-20916D01*
X-36226Y-20951D01*
X-36374Y-21051D01*
X-36474Y-21199D01*
X-36509Y-21375D01*
X-36474Y-21551D01*
X-36374Y-21699D01*
X-36226Y-21799D01*
X-36050Y-21834D01*
X-35874Y-21799D01*
X-35726Y-21699D01*
X-35688Y-21643D01*
X-34292D01*
X-34235Y-21781D01*
X-34936Y-22482D01*
X-40925D01*
X-41027Y-22503D01*
X-41114Y-22561D01*
X-42886Y-24332D01*
X-43238D01*
X-43276Y-24276D01*
X-43424Y-24176D01*
X-43600Y-24141D01*
X-43776Y-24176D01*
X-43807Y-24197D01*
X-43957Y-24117D01*
Y-23293D01*
X-43807Y-23278D01*
X-43799Y-23321D01*
X-43699Y-23469D01*
X-43551Y-23569D01*
X-43375Y-23604D01*
X-43199Y-23569D01*
X-43051Y-23469D01*
X-42951Y-23321D01*
X-42916Y-23145D01*
X-42930Y-23078D01*
X-36127Y-16275D01*
X-36126Y-16275D01*
X-35977Y-16375D01*
X-35802Y-16410D01*
X-35626Y-16375D01*
X-35477Y-16275D01*
X-35378Y-16126D01*
X-35343Y-15951D01*
X-35362Y-15856D01*
X-35257Y-15706D01*
X-29825D01*
X-29745Y-15856D01*
D02*
G37*
G36*
X-24862Y-14106D02*
X-24924Y-14199D01*
X-24959Y-14375D01*
X-24924Y-14551D01*
X-24903Y-14582D01*
X-24983Y-14732D01*
X-27571D01*
X-27674Y-14753D01*
X-27761Y-14811D01*
X-28796Y-15846D01*
X-28980Y-15818D01*
X-29026Y-15751D01*
X-29174Y-15651D01*
X-29220Y-15489D01*
X-27688Y-13956D01*
X-24933D01*
X-24862Y-14106D01*
D02*
G37*
G36*
X-26818Y-18204D02*
Y-18653D01*
X-26797Y-18755D01*
X-26739Y-18842D01*
X-26572Y-19009D01*
X-26591Y-19202D01*
X-26595Y-19205D01*
X-26678Y-19329D01*
X-26707Y-19475D01*
X-26698Y-19522D01*
X-28009Y-20833D01*
X-28147Y-20775D01*
Y-19337D01*
X-26956Y-18146D01*
X-26818Y-18204D01*
D02*
G37*
G36*
X-39138Y-15294D02*
X-40393Y-16550D01*
X-40401Y-16551D01*
X-40549Y-16651D01*
X-40649Y-16799D01*
X-40684Y-16975D01*
X-40649Y-17151D01*
X-40549Y-17299D01*
X-40401Y-17399D01*
X-40225Y-17434D01*
X-40049Y-17399D01*
X-39901Y-17299D01*
X-39801Y-17151D01*
X-39766Y-16975D01*
X-39785Y-16879D01*
X-38613Y-15706D01*
X-36527D01*
X-36465Y-15856D01*
X-43308Y-22700D01*
X-43375Y-22686D01*
X-43551Y-22721D01*
X-43699Y-22821D01*
X-43799Y-22969D01*
X-43807Y-23012D01*
X-43957Y-22997D01*
Y-19975D01*
X-43912Y-19920D01*
X-43575D01*
Y-19270D01*
X-43475D01*
Y-19170D01*
X-42975D01*
Y-18620D01*
X-43000D01*
Y-18034D01*
X-40121Y-15155D01*
X-39195D01*
X-39138Y-15294D01*
D02*
G37*
G36*
X-30918Y-20155D02*
Y-21900D01*
X-30897Y-22002D01*
X-30839Y-22089D01*
X-29345Y-23583D01*
Y-24840D01*
X-29495Y-24854D01*
X-29501Y-24824D01*
X-29601Y-24676D01*
X-29749Y-24576D01*
X-29925Y-24541D01*
X-30101Y-24576D01*
X-30249Y-24676D01*
X-30272Y-24710D01*
X-31450D01*
X-31552Y-24730D01*
X-31639Y-24788D01*
X-31864Y-25013D01*
X-31922Y-25100D01*
X-31943Y-25202D01*
Y-25425D01*
X-31922Y-25527D01*
X-31888Y-25578D01*
X-31884Y-25605D01*
X-31897Y-25697D01*
X-31910Y-25731D01*
X-32062Y-25784D01*
X-33773Y-24073D01*
X-33860Y-24015D01*
X-33963Y-23995D01*
X-40725D01*
X-40827Y-24015D01*
X-40914Y-24073D01*
X-41898Y-25057D01*
X-42970D01*
X-43013Y-25018D01*
X-42993Y-24937D01*
X-42930Y-24868D01*
X-42775D01*
X-42673Y-24847D01*
X-42586Y-24789D01*
X-40814Y-23018D01*
X-34825D01*
X-34723Y-22997D01*
X-34636Y-22939D01*
X-33312Y-21616D01*
X-33138Y-21654D01*
X-33074Y-21749D01*
X-32926Y-21849D01*
X-32750Y-21884D01*
X-32574Y-21849D01*
X-32426Y-21749D01*
X-32326Y-21601D01*
X-32291Y-21425D01*
X-32309Y-21334D01*
X-31068Y-20093D01*
X-30918Y-20155D01*
D02*
G37*
G36*
X-26598Y-20391D02*
X-26595Y-20395D01*
X-26471Y-20478D01*
X-26325Y-20507D01*
X-26179Y-20478D01*
X-26104Y-20428D01*
X-26000Y-20407D01*
X-25896Y-20428D01*
X-25821Y-20478D01*
X-25675Y-20507D01*
X-25529Y-20478D01*
X-25454Y-20428D01*
X-25295Y-20395D01*
X-25171Y-20478D01*
X-25025Y-20507D01*
X-24993Y-20501D01*
X-24843Y-20621D01*
Y-20929D01*
X-24993Y-21049D01*
X-25025Y-21043D01*
X-25171Y-21072D01*
X-25295Y-21155D01*
X-25378Y-21279D01*
X-25407Y-21425D01*
X-25378Y-21571D01*
X-25295Y-21695D01*
X-25171Y-21778D01*
X-25025Y-21807D01*
X-24993Y-21801D01*
X-24843Y-21921D01*
Y-22369D01*
X-24993Y-22383D01*
X-25005Y-22320D01*
X-25063Y-22233D01*
X-25316Y-21981D01*
X-25325Y-21932D01*
X-25408Y-21808D01*
X-25532Y-21725D01*
X-25678Y-21696D01*
X-25825Y-21725D01*
X-25949Y-21808D01*
X-26032Y-21932D01*
X-26044Y-21995D01*
X-26100Y-22032D01*
X-26296D01*
X-26365Y-21885D01*
X-26309Y-21804D01*
X-26179Y-21778D01*
X-26055Y-21695D01*
X-25972Y-21571D01*
X-25943Y-21425D01*
X-25972Y-21279D01*
X-26055Y-21155D01*
X-26179Y-21072D01*
X-26325Y-21043D01*
X-26471Y-21072D01*
X-26595Y-21155D01*
X-26678Y-21279D01*
X-26707Y-21425D01*
X-26707Y-21428D01*
X-27669Y-22390D01*
X-27807Y-22333D01*
Y-21388D01*
X-26791Y-20372D01*
X-26598Y-20391D01*
D02*
G37*
G36*
X-17295Y-30033D02*
Y-34548D01*
X-17275Y-34650D01*
X-17217Y-34737D01*
X-15718Y-36236D01*
Y-36488D01*
X-15774Y-36526D01*
X-15874Y-36674D01*
X-15909Y-36850D01*
X-15874Y-37026D01*
X-15869Y-37032D01*
X-15950Y-37182D01*
X-16575D01*
X-16656Y-37032D01*
X-16651Y-37026D01*
X-16616Y-36850D01*
X-16651Y-36674D01*
X-16673Y-36641D01*
X-16604Y-36475D01*
X-16599Y-36474D01*
X-16451Y-36374D01*
X-16351Y-36226D01*
X-16316Y-36050D01*
X-16351Y-35874D01*
X-16451Y-35726D01*
X-16599Y-35626D01*
X-16775Y-35591D01*
X-16951Y-35626D01*
X-17099Y-35726D01*
X-17199Y-35874D01*
X-17234Y-36050D01*
X-17199Y-36226D01*
X-17177Y-36259D01*
X-17246Y-36425D01*
X-17251Y-36426D01*
X-17399Y-36526D01*
X-17499Y-36674D01*
X-17534Y-36850D01*
X-17627Y-36920D01*
X-17719Y-36791D01*
X-17716Y-36775D01*
X-17751Y-36599D01*
X-17851Y-36451D01*
X-17932Y-36396D01*
Y-29608D01*
X-17782Y-29546D01*
X-17295Y-30033D01*
D02*
G37*
G36*
X-25444Y-54560D02*
X-25424Y-54605D01*
X-25430Y-54613D01*
X-25437Y-54650D01*
X-24425D01*
Y-54850D01*
X-25437D01*
X-25430Y-54887D01*
X-25352Y-55002D01*
X-25406Y-55123D01*
X-25431Y-55250D01*
X-25406Y-55377D01*
X-25403Y-55381D01*
X-25342Y-55500D01*
X-25403Y-55619D01*
X-25406Y-55623D01*
X-25431Y-55750D01*
X-25406Y-55877D01*
X-25403Y-55881D01*
X-25342Y-56000D01*
X-25403Y-56119D01*
X-25406Y-56123D01*
X-25431Y-56250D01*
X-25406Y-56377D01*
X-25334Y-56484D01*
Y-56516D01*
X-25406Y-56623D01*
X-25431Y-56750D01*
X-25415Y-56832D01*
X-25422Y-56847D01*
X-25571Y-56901D01*
X-26036Y-56436D01*
X-26123Y-56378D01*
X-26225Y-56357D01*
X-27278D01*
X-27316Y-56301D01*
X-27465Y-56201D01*
X-27641Y-56166D01*
X-27816Y-56201D01*
X-27965Y-56301D01*
X-28064Y-56449D01*
X-28099Y-56625D01*
X-28064Y-56801D01*
X-28051Y-56821D01*
X-28046Y-56864D01*
X-28087Y-56973D01*
X-28113Y-56998D01*
X-28159Y-56995D01*
X-28262Y-56926D01*
X-28438Y-56891D01*
X-28613Y-56926D01*
X-28762Y-57026D01*
X-28861Y-57174D01*
X-28865Y-57194D01*
X-29028Y-57243D01*
X-30104Y-56168D01*
X-30042Y-56018D01*
X-29075D01*
X-28973Y-55997D01*
X-28886Y-55939D01*
X-27914Y-54968D01*
X-26175D01*
X-26073Y-54947D01*
X-25986Y-54889D01*
X-25624Y-54527D01*
X-25444Y-54560D01*
D02*
G37*
G36*
X-33200Y-32759D02*
X-33093Y-32737D01*
X-32943Y-32836D01*
Y-36314D01*
X-33093Y-36413D01*
X-33200Y-36391D01*
X-33357Y-36422D01*
X-33413Y-36406D01*
X-33507Y-36356D01*
Y-32794D01*
X-33413Y-32744D01*
X-33357Y-32728D01*
X-33200Y-32759D01*
D02*
G37*
G36*
X-44817Y-55680D02*
X-45196Y-56059D01*
X-45432Y-55961D01*
X-45700Y-55926D01*
X-45968Y-55961D01*
X-46217Y-56065D01*
X-46431Y-56229D01*
X-46595Y-56443D01*
X-46699Y-56692D01*
X-46734Y-56960D01*
X-46699Y-57228D01*
X-46595Y-57477D01*
X-46431Y-57691D01*
X-46217Y-57855D01*
X-45968Y-57959D01*
X-45700Y-57994D01*
X-45432Y-57959D01*
X-45183Y-57855D01*
X-44969Y-57691D01*
X-44805Y-57477D01*
X-44701Y-57228D01*
X-44666Y-56960D01*
X-44701Y-56692D01*
X-44799Y-56456D01*
X-44374Y-56030D01*
X-43920D01*
X-43869Y-56180D01*
X-43909Y-56211D01*
X-44077Y-56430D01*
X-44183Y-56686D01*
X-44206Y-56860D01*
X-42114D01*
X-42137Y-56686D01*
X-42243Y-56430D01*
X-42411Y-56211D01*
X-42451Y-56180D01*
X-42400Y-56030D01*
X-41625D01*
Y-56450D01*
X-41650D01*
Y-57000D01*
X-41150D01*
Y-57100D01*
X-41050D01*
Y-57750D01*
X-40650D01*
Y-57729D01*
X-40501Y-57649D01*
X-40325Y-57684D01*
X-40225Y-57766D01*
Y-58475D01*
X-39980D01*
Y-58713D01*
X-39999Y-58726D01*
X-40099Y-58874D01*
X-40134Y-59050D01*
X-40099Y-59226D01*
X-40053Y-59295D01*
X-40133Y-59445D01*
X-40650D01*
Y-58800D01*
X-40845D01*
Y-58675D01*
X-40866Y-58568D01*
X-40927Y-58477D01*
X-41187Y-58217D01*
X-41278Y-58156D01*
X-41385Y-58135D01*
X-42889D01*
X-42898Y-57985D01*
X-42886Y-57983D01*
X-42630Y-57877D01*
X-42411Y-57709D01*
X-42243Y-57490D01*
X-42137Y-57234D01*
X-42114Y-57060D01*
X-44206D01*
X-44183Y-57234D01*
X-44077Y-57490D01*
X-43909Y-57709D01*
X-43690Y-57877D01*
X-43434Y-57983D01*
X-43422Y-57985D01*
X-43431Y-58135D01*
X-44615D01*
X-44722Y-58156D01*
X-44813Y-58217D01*
X-45196Y-58599D01*
X-45432Y-58501D01*
X-45700Y-58466D01*
X-45968Y-58501D01*
X-46217Y-58605D01*
X-46431Y-58769D01*
X-46595Y-58983D01*
X-46699Y-59232D01*
X-46734Y-59500D01*
X-46699Y-59768D01*
X-46595Y-60017D01*
X-46431Y-60231D01*
X-46217Y-60395D01*
X-45968Y-60499D01*
X-45700Y-60534D01*
X-45432Y-60499D01*
X-45183Y-60395D01*
X-44969Y-60231D01*
X-44805Y-60017D01*
X-44701Y-59768D01*
X-44666Y-59500D01*
X-44701Y-59232D01*
X-44799Y-58996D01*
X-44499Y-58695D01*
X-44055D01*
X-43981Y-58845D01*
X-44077Y-58970D01*
X-44183Y-59226D01*
X-44206Y-59400D01*
X-42114D01*
X-42137Y-59226D01*
X-42243Y-58970D01*
X-42339Y-58845D01*
X-42265Y-58695D01*
X-41707D01*
X-41600Y-58800D01*
Y-59875D01*
X-41625D01*
Y-60425D01*
X-40625D01*
Y-60005D01*
X-37666D01*
X-37339Y-60332D01*
X-37401Y-60482D01*
X-37675D01*
Y-60250D01*
X-38725D01*
X-38825Y-60250D01*
X-38975Y-60250D01*
X-40025D01*
Y-61250D01*
X-39718D01*
Y-61513D01*
X-39774Y-61551D01*
X-39874Y-61699D01*
X-39909Y-61875D01*
X-39874Y-62051D01*
X-39774Y-62199D01*
X-39626Y-62299D01*
X-39450Y-62334D01*
X-39274Y-62299D01*
X-39126Y-62199D01*
X-39096Y-62155D01*
X-39053Y-62147D01*
X-38922Y-62165D01*
X-38849Y-62274D01*
X-38701Y-62374D01*
X-38525Y-62409D01*
X-38349Y-62374D01*
X-38237Y-62299D01*
X-38105Y-62367D01*
X-38098Y-62373D01*
X-38109Y-62425D01*
X-38074Y-62601D01*
X-37974Y-62749D01*
X-37826Y-62849D01*
X-37650Y-62884D01*
X-37474Y-62849D01*
X-37326Y-62749D01*
X-37226Y-62601D01*
X-37191Y-62425D01*
X-37205Y-62358D01*
X-36864Y-62018D01*
X-36434D01*
X-36377Y-62056D01*
X-36250Y-62081D01*
X-35269D01*
X-35212Y-62220D01*
X-45917Y-72925D01*
X-56753D01*
Y-72155D01*
X-58531D01*
X-58588Y-72016D01*
X-54261Y-67689D01*
X-54203Y-67602D01*
X-54182Y-67500D01*
Y-61111D01*
X-48602Y-55530D01*
X-44879D01*
X-44817Y-55680D01*
D02*
G37*
G36*
X-49455Y-48866D02*
Y-54775D01*
X-49434Y-54882D01*
X-49373Y-54973D01*
X-49088Y-55259D01*
X-54639Y-60811D01*
X-54697Y-60898D01*
X-54718Y-61000D01*
Y-67389D01*
X-58909Y-71581D01*
X-59048Y-71523D01*
Y-62560D01*
X-58978Y-62505D01*
X-58828Y-62574D01*
Y-62920D01*
X-56728D01*
Y-61993D01*
X-56150D01*
X-56048Y-61972D01*
X-55961Y-61914D01*
X-55461Y-61414D01*
X-55403Y-61327D01*
X-55382Y-61225D01*
Y-55975D01*
X-55403Y-55873D01*
X-55461Y-55786D01*
X-55771Y-55475D01*
Y-55325D01*
X-53511Y-53064D01*
X-53453Y-52977D01*
X-53432Y-52875D01*
Y-48506D01*
X-53326Y-48400D01*
X-53125Y-48400D01*
X-52975Y-48400D01*
X-51925D01*
Y-48168D01*
X-51554D01*
X-51499Y-48249D01*
X-51351Y-48349D01*
X-51175Y-48384D01*
X-50999Y-48349D01*
X-50851Y-48249D01*
X-50751Y-48101D01*
X-50716Y-47925D01*
X-50743Y-47791D01*
X-50609Y-47712D01*
X-49455Y-48866D01*
D02*
G37*
G36*
X-31839Y-45489D02*
X-31752Y-45547D01*
X-31650Y-45568D01*
X-31449D01*
X-28592Y-48425D01*
X-28654Y-48575D01*
X-28875D01*
Y-49225D01*
X-29075D01*
Y-48575D01*
X-29475D01*
Y-48575D01*
X-29575D01*
Y-48575D01*
X-30575D01*
Y-49125D01*
X-30075D01*
Y-49325D01*
X-30575D01*
Y-49501D01*
X-30576Y-49502D01*
X-30725Y-49568D01*
X-30824Y-49501D01*
X-31000Y-49466D01*
X-31176Y-49501D01*
X-31232Y-49539D01*
X-31382Y-49459D01*
Y-48412D01*
X-31326Y-48374D01*
X-31226Y-48226D01*
X-31191Y-48050D01*
X-31226Y-47874D01*
X-31326Y-47726D01*
X-31474Y-47626D01*
X-31650Y-47591D01*
X-31826Y-47626D01*
X-31974Y-47726D01*
X-32074Y-47874D01*
X-32109Y-48050D01*
X-32074Y-48226D01*
X-31974Y-48374D01*
X-31918Y-48412D01*
Y-50612D01*
X-31939Y-50634D01*
X-31994Y-50715D01*
X-31998Y-50721D01*
X-32159Y-50763D01*
X-32697Y-50224D01*
X-32648Y-50062D01*
X-32584Y-50049D01*
X-32436Y-49949D01*
X-32336Y-49801D01*
X-32301Y-49625D01*
X-32336Y-49449D01*
X-32436Y-49301D01*
X-32492Y-49263D01*
Y-45821D01*
X-32067Y-45395D01*
X-32000Y-45409D01*
X-31933Y-45395D01*
X-31839Y-45489D01*
D02*
G37*
G36*
X-28650Y-53437D02*
X-28613Y-53430D01*
X-28498Y-53352D01*
X-28377Y-53406D01*
X-28250Y-53431D01*
X-28123Y-53406D01*
X-28119Y-53403D01*
X-28000Y-53342D01*
X-27881Y-53403D01*
X-27877Y-53406D01*
X-27750Y-53431D01*
X-27623Y-53406D01*
X-27619Y-53403D01*
X-27500Y-53342D01*
X-27381Y-53403D01*
X-27377Y-53406D01*
X-27250Y-53431D01*
X-27168Y-53415D01*
X-27018Y-53502D01*
Y-53575D01*
X-26997Y-53677D01*
X-26939Y-53764D01*
X-26846Y-53857D01*
X-26908Y-54007D01*
X-28125D01*
X-28227Y-54028D01*
X-28314Y-54086D01*
X-29049Y-54820D01*
X-29120Y-54814D01*
X-29241Y-54675D01*
X-29276Y-54499D01*
X-29376Y-54351D01*
X-29524Y-54251D01*
X-29700Y-54216D01*
X-29767Y-54230D01*
X-29982Y-54014D01*
Y-53502D01*
X-29832Y-53415D01*
X-29750Y-53431D01*
X-29623Y-53406D01*
X-29619Y-53403D01*
X-29500Y-53342D01*
X-29381Y-53403D01*
X-29377Y-53406D01*
X-29250Y-53431D01*
X-29123Y-53406D01*
X-29002Y-53352D01*
X-28887Y-53430D01*
X-28850Y-53437D01*
Y-52425D01*
X-28650D01*
Y-53437D01*
D02*
G37*
G36*
X-29476Y-58053D02*
X-29549Y-58191D01*
X-29675Y-58166D01*
X-29851Y-58201D01*
X-29999Y-58301D01*
X-30037Y-58357D01*
X-31350D01*
X-31452Y-58378D01*
X-31539Y-58436D01*
X-31683Y-58580D01*
X-31750Y-58566D01*
X-31926Y-58601D01*
X-32074Y-58701D01*
X-32174Y-58849D01*
X-32188Y-58921D01*
X-32229Y-58942D01*
X-32347Y-58953D01*
X-32360Y-58935D01*
X-33225Y-58070D01*
X-33307Y-58015D01*
X-33405Y-57995D01*
X-34492D01*
X-34530Y-57951D01*
X-34588Y-57845D01*
X-34569Y-57750D01*
X-34594Y-57623D01*
X-34648Y-57502D01*
X-34570Y-57387D01*
X-34563Y-57350D01*
X-35575D01*
Y-57150D01*
X-34549D01*
X-34468Y-57018D01*
X-30511D01*
X-29476Y-58053D01*
D02*
G37*
G36*
X-28000Y-59528D02*
Y-60559D01*
X-27980Y-60662D01*
X-27922Y-60749D01*
X-26244Y-62426D01*
X-26245Y-62437D01*
X-26303Y-62579D01*
X-26377Y-62594D01*
X-26381Y-62597D01*
X-26500Y-62658D01*
X-26619Y-62597D01*
X-26623Y-62594D01*
X-26750Y-62569D01*
X-26877Y-62594D01*
X-26881Y-62597D01*
X-27000Y-62658D01*
X-27119Y-62597D01*
X-27123Y-62594D01*
X-27250Y-62569D01*
X-27377Y-62594D01*
X-27381Y-62597D01*
X-27500Y-62658D01*
X-27619Y-62597D01*
X-27623Y-62594D01*
X-27750Y-62569D01*
X-27818Y-62582D01*
X-27943Y-62492D01*
X-27946Y-62363D01*
X-27926Y-62349D01*
X-27826Y-62201D01*
X-27791Y-62025D01*
X-27826Y-61849D01*
X-27926Y-61701D01*
X-28074Y-61601D01*
X-28211Y-61574D01*
X-28270Y-61523D01*
X-28316Y-61426D01*
X-28291Y-61300D01*
X-28326Y-61124D01*
X-28426Y-60976D01*
X-28574Y-60876D01*
X-28750Y-60841D01*
X-28926Y-60876D01*
X-29074Y-60976D01*
X-29174Y-61124D01*
X-29197Y-61239D01*
X-29353Y-61258D01*
X-29426Y-61151D01*
X-29574Y-61051D01*
X-29750Y-61016D01*
X-29926Y-61051D01*
X-30074Y-61151D01*
X-30174Y-61299D01*
X-30209Y-61475D01*
X-30174Y-61651D01*
X-30152Y-61683D01*
X-30243Y-61818D01*
X-30250Y-61816D01*
X-30426Y-61851D01*
X-30512Y-61909D01*
X-30561Y-61836D01*
X-30607Y-61789D01*
Y-61562D01*
X-30551Y-61524D01*
X-30451Y-61376D01*
X-30416Y-61200D01*
X-30451Y-61024D01*
X-30551Y-60876D01*
X-30699Y-60776D01*
X-30875Y-60741D01*
X-31051Y-60776D01*
X-31199Y-60876D01*
X-31299Y-61024D01*
X-31334Y-61200D01*
X-31299Y-61376D01*
X-31199Y-61524D01*
X-31143Y-61562D01*
Y-61900D01*
X-31122Y-62002D01*
X-31064Y-62089D01*
X-31018Y-62136D01*
Y-62468D01*
X-31150Y-62549D01*
Y-63575D01*
Y-64587D01*
X-31113Y-64580D01*
X-30998Y-64502D01*
X-30877Y-64556D01*
X-30750Y-64581D01*
X-30623Y-64556D01*
X-30516Y-64484D01*
X-30484D01*
X-30377Y-64556D01*
X-30250Y-64581D01*
X-30123Y-64556D01*
X-30119Y-64553D01*
X-30000Y-64492D01*
X-29881Y-64553D01*
X-29877Y-64556D01*
X-29750Y-64581D01*
X-29623Y-64556D01*
X-29619Y-64553D01*
X-29500Y-64492D01*
X-29381Y-64553D01*
X-29377Y-64556D01*
X-29250Y-64581D01*
X-29123Y-64556D01*
X-29119Y-64553D01*
X-29000Y-64492D01*
X-28881Y-64553D01*
X-28877Y-64556D01*
X-28750Y-64581D01*
X-28623Y-64556D01*
X-28619Y-64553D01*
X-28500Y-64492D01*
X-28381Y-64553D01*
X-28377Y-64556D01*
X-28250Y-64581D01*
X-28213Y-64574D01*
X-28076Y-64670D01*
X-28064Y-64786D01*
X-29364Y-66086D01*
X-29422Y-66173D01*
X-29443Y-66275D01*
Y-69475D01*
X-29480Y-69489D01*
X-29593Y-69500D01*
X-29676Y-69376D01*
X-29824Y-69276D01*
X-30000Y-69241D01*
X-30176Y-69276D01*
X-30324Y-69376D01*
X-30362Y-69432D01*
X-30750D01*
Y-69225D01*
X-31825D01*
Y-69200D01*
X-32375D01*
Y-69700D01*
Y-70200D01*
X-31825D01*
Y-70175D01*
X-30750D01*
Y-69968D01*
X-30362D01*
X-30324Y-70024D01*
X-30268Y-70062D01*
Y-70795D01*
X-31975D01*
Y-71745D01*
X-29549D01*
X-29457Y-71837D01*
X-29467Y-71991D01*
X-29578Y-72065D01*
X-31975D01*
Y-73015D01*
X-29425D01*
Y-72316D01*
X-29275Y-72254D01*
X-29145Y-72383D01*
X-29159Y-72450D01*
X-29124Y-72626D01*
X-29024Y-72774D01*
X-28876Y-72874D01*
X-28700Y-72909D01*
X-28524Y-72874D01*
X-28376Y-72774D01*
X-28276Y-72626D01*
X-28241Y-72450D01*
X-28276Y-72274D01*
X-28376Y-72126D01*
X-28524Y-72026D01*
X-28700Y-71991D01*
X-28767Y-72005D01*
X-28907Y-71864D01*
Y-70571D01*
X-28769Y-70513D01*
X-27843Y-71439D01*
Y-73275D01*
X-28150D01*
Y-73542D01*
X-28498D01*
X-28526Y-73501D01*
X-28674Y-73401D01*
X-28850Y-73366D01*
X-29026Y-73401D01*
X-29174Y-73501D01*
X-29202Y-73542D01*
X-29425D01*
Y-73335D01*
X-31975D01*
Y-73542D01*
X-32679D01*
X-33236Y-72986D01*
X-33323Y-72928D01*
X-33425Y-72907D01*
X-34225D01*
Y-72065D01*
X-36775D01*
Y-72907D01*
X-37200D01*
Y-71850D01*
X-37407D01*
Y-71487D01*
X-37351Y-71449D01*
X-37251Y-71301D01*
X-37216Y-71125D01*
X-37251Y-70949D01*
X-37351Y-70801D01*
X-37499Y-70701D01*
X-37675Y-70666D01*
X-37800Y-70691D01*
X-37950Y-70650D01*
Y-70650D01*
X-37950Y-70650D01*
X-39025D01*
Y-70625D01*
X-39575D01*
Y-71125D01*
Y-71625D01*
X-39025D01*
Y-71625D01*
X-39000Y-71600D01*
X-38045D01*
X-37979Y-71750D01*
X-38047Y-71850D01*
X-38250Y-71850D01*
X-38369Y-71925D01*
X-38400D01*
X-39075D01*
Y-72925D01*
Y-73925D01*
X-38369D01*
X-38250Y-74000D01*
X-38099Y-74000D01*
X-37993Y-74106D01*
Y-74225D01*
X-37972Y-74327D01*
X-37914Y-74414D01*
X-37714Y-74614D01*
X-37627Y-74672D01*
X-37525Y-74693D01*
X-36800D01*
Y-74980D01*
X-34200D01*
Y-74693D01*
X-33686D01*
X-33109Y-75269D01*
X-33022Y-75327D01*
X-32920Y-75348D01*
X-31975D01*
Y-75555D01*
X-29425D01*
Y-75348D01*
X-29259D01*
X-29224Y-75399D01*
X-29076Y-75499D01*
X-28900Y-75534D01*
X-28724Y-75499D01*
X-28576Y-75399D01*
X-28541Y-75348D01*
X-28150D01*
Y-75575D01*
X-27000D01*
Y-75575D01*
X-26950D01*
Y-75575D01*
X-26099D01*
X-26042Y-75714D01*
X-26361Y-76032D01*
X-40489D01*
X-41132Y-75389D01*
Y-74131D01*
X-41026Y-74025D01*
X-40725D01*
Y-73675D01*
X-40525D01*
Y-74025D01*
X-40075D01*
X-39966Y-73925D01*
X-39925D01*
X-39275D01*
Y-72925D01*
Y-71925D01*
X-39981D01*
X-40100Y-71850D01*
X-40194Y-71850D01*
X-41132D01*
Y-71189D01*
X-38886Y-68943D01*
X-37175D01*
X-37073Y-68922D01*
X-36986Y-68864D01*
X-33061Y-64939D01*
X-33003Y-64852D01*
X-32982Y-64750D01*
Y-64652D01*
X-32832Y-64565D01*
X-32750Y-64581D01*
X-32623Y-64556D01*
X-32619Y-64553D01*
X-32500Y-64492D01*
X-32381Y-64553D01*
X-32377Y-64556D01*
X-32250Y-64581D01*
X-32139Y-64706D01*
X-32130Y-64758D01*
X-32298Y-64927D01*
X-32359Y-65018D01*
X-32380Y-65125D01*
X-32725D01*
Y-66075D01*
X-32524D01*
X-32523Y-66076D01*
X-32457Y-66225D01*
X-32524Y-66324D01*
X-32559Y-66500D01*
X-32524Y-66676D01*
X-32424Y-66824D01*
X-32276Y-66924D01*
X-32100Y-66959D01*
X-31924Y-66924D01*
X-31776Y-66824D01*
X-31676Y-66676D01*
X-31641Y-66500D01*
X-31676Y-66324D01*
X-31743Y-66225D01*
X-31719Y-66172D01*
X-31646Y-66100D01*
X-31100D01*
Y-65600D01*
Y-65100D01*
X-31466D01*
X-31512Y-65032D01*
X-31536Y-64950D01*
X-31491Y-64882D01*
X-31470Y-64775D01*
Y-64691D01*
X-31350Y-64613D01*
Y-63575D01*
Y-62563D01*
X-31387Y-62570D01*
X-31502Y-62648D01*
X-31623Y-62594D01*
X-31750Y-62569D01*
X-31832Y-62585D01*
X-31982Y-62498D01*
Y-62230D01*
X-31824Y-62199D01*
X-31676Y-62099D01*
X-31576Y-61951D01*
X-31541Y-61775D01*
X-31576Y-61599D01*
X-31676Y-61451D01*
X-31824Y-61351D01*
X-32000Y-61316D01*
X-32176Y-61351D01*
X-32178Y-61353D01*
X-32241Y-61316D01*
X-32300Y-61254D01*
X-32285Y-61181D01*
Y-60104D01*
X-32135Y-60059D01*
X-32074Y-60149D01*
X-31926Y-60249D01*
X-31750Y-60284D01*
X-31574Y-60249D01*
X-31426Y-60149D01*
X-31326Y-60001D01*
X-31291Y-59825D01*
X-31292Y-59821D01*
X-31182Y-59693D01*
X-30037D01*
X-29999Y-59749D01*
X-29851Y-59849D01*
X-29675Y-59884D01*
X-29499Y-59849D01*
X-29351Y-59749D01*
X-29251Y-59601D01*
X-29216Y-59425D01*
X-29251Y-59249D01*
X-29337Y-59121D01*
X-29351Y-59055D01*
Y-58995D01*
X-29337Y-58929D01*
X-29251Y-58801D01*
X-29216Y-58625D01*
X-29241Y-58499D01*
X-29103Y-58426D01*
X-28000Y-59528D01*
D02*
G37*
G36*
X-36268Y-31836D02*
Y-33314D01*
X-36764Y-33811D01*
X-36822Y-33898D01*
X-36843Y-34000D01*
Y-37100D01*
X-36822Y-37202D01*
X-36764Y-37289D01*
X-36268Y-37786D01*
Y-40183D01*
X-36350Y-40316D01*
X-36526Y-40351D01*
X-36674Y-40451D01*
X-36774Y-40599D01*
X-36809Y-40775D01*
X-36774Y-40951D01*
X-36674Y-41099D01*
X-36526Y-41199D01*
X-36350Y-41234D01*
X-36174Y-41199D01*
X-36026Y-41099D01*
X-35926Y-40951D01*
X-35891Y-40775D01*
X-35909Y-40687D01*
X-35811Y-40589D01*
X-35753Y-40502D01*
X-35732Y-40400D01*
Y-39592D01*
X-35594Y-39535D01*
X-31910Y-43219D01*
X-31967Y-43357D01*
X-35064D01*
X-35467Y-42954D01*
X-35454Y-42888D01*
X-35489Y-42712D01*
X-35588Y-42563D01*
X-35737Y-42464D01*
X-35912Y-42429D01*
X-35979Y-42442D01*
X-37232Y-41189D01*
Y-33100D01*
X-37253Y-32998D01*
X-37311Y-32911D01*
X-37601Y-32620D01*
X-37505Y-32504D01*
X-37476Y-32524D01*
X-37300Y-32559D01*
X-37124Y-32524D01*
X-36976Y-32424D01*
X-36876Y-32276D01*
X-36841Y-32100D01*
X-36876Y-31924D01*
X-36976Y-31776D01*
X-37124Y-31676D01*
X-37300Y-31641D01*
X-37476Y-31676D01*
X-37624Y-31776D01*
X-37724Y-31924D01*
X-37759Y-32100D01*
X-37724Y-32276D01*
X-37704Y-32305D01*
X-37820Y-32401D01*
X-38441Y-31781D01*
X-38528Y-31723D01*
X-38630Y-31702D01*
X-38867D01*
X-38975Y-31600D01*
Y-30693D01*
X-37411D01*
X-36268Y-31836D01*
D02*
G37*
G36*
X-25843Y-30142D02*
Y-30175D01*
X-25822Y-30277D01*
X-25764Y-30364D01*
X-24643Y-31486D01*
Y-33388D01*
X-24699Y-33426D01*
X-24799Y-33574D01*
X-24834Y-33750D01*
X-24808Y-33882D01*
X-24924Y-33979D01*
X-24929Y-33981D01*
X-24974Y-33951D01*
X-25150Y-33916D01*
X-25326Y-33951D01*
X-25474Y-34051D01*
X-25574Y-34199D01*
X-25609Y-34375D01*
X-25574Y-34551D01*
X-25474Y-34699D01*
X-25418Y-34737D01*
Y-36639D01*
X-25865Y-37087D01*
X-26004Y-37013D01*
X-25991Y-36950D01*
X-26026Y-36774D01*
X-26126Y-36626D01*
X-26182Y-36588D01*
Y-31671D01*
X-26032Y-31625D01*
X-25999Y-31674D01*
X-25851Y-31774D01*
X-25675Y-31809D01*
X-25499Y-31774D01*
X-25351Y-31674D01*
X-25251Y-31526D01*
X-25216Y-31350D01*
X-25251Y-31174D01*
X-25351Y-31026D01*
X-25499Y-30926D01*
X-25675Y-30891D01*
X-25851Y-30926D01*
X-25999Y-31026D01*
X-26032Y-31075D01*
X-26182Y-31029D01*
Y-30286D01*
X-25981Y-30085D01*
X-25843Y-30142D01*
D02*
G37*
G36*
X-18468Y-34074D02*
Y-36429D01*
X-18499Y-36451D01*
X-18599Y-36599D01*
X-18634Y-36775D01*
X-18606Y-36915D01*
X-18644Y-37015D01*
X-18691Y-37082D01*
X-18721Y-37088D01*
X-19057Y-36752D01*
Y-36300D01*
X-19078Y-36198D01*
X-19136Y-36111D01*
X-19155Y-36092D01*
X-19141Y-36025D01*
X-19176Y-35849D01*
X-19276Y-35701D01*
X-19424Y-35601D01*
X-19600Y-35566D01*
X-19776Y-35601D01*
X-19924Y-35701D01*
X-20024Y-35849D01*
X-20059Y-36025D01*
X-20024Y-36201D01*
X-19924Y-36349D01*
X-19776Y-36449D01*
X-19600Y-36484D01*
X-19593Y-36490D01*
Y-36862D01*
X-19572Y-36965D01*
X-19514Y-37052D01*
X-18959Y-37607D01*
X-19021Y-37757D01*
X-20314D01*
X-20430Y-37642D01*
X-20416Y-37575D01*
X-20451Y-37399D01*
X-20551Y-37251D01*
X-20699Y-37151D01*
X-20875Y-37116D01*
X-21051Y-37151D01*
X-21199Y-37251D01*
X-21299Y-37399D01*
X-21334Y-37575D01*
X-21299Y-37751D01*
X-21199Y-37899D01*
X-21051Y-37999D01*
X-20889Y-38031D01*
X-20843Y-38115D01*
X-20832Y-38178D01*
X-21033Y-38380D01*
X-21100Y-38366D01*
X-21276Y-38401D01*
X-21424Y-38501D01*
X-21524Y-38649D01*
X-21559Y-38825D01*
X-21524Y-39001D01*
X-21424Y-39149D01*
X-21276Y-39249D01*
X-21100Y-39284D01*
X-20924Y-39249D01*
X-20776Y-39149D01*
X-20676Y-39001D01*
X-20641Y-38825D01*
X-20655Y-38758D01*
X-20517Y-38620D01*
X-19535D01*
X-19521Y-38770D01*
X-19551Y-38776D01*
X-19699Y-38876D01*
X-19799Y-39024D01*
X-19834Y-39200D01*
X-19799Y-39376D01*
X-19699Y-39524D01*
X-19551Y-39624D01*
X-19375Y-39659D01*
X-19199Y-39624D01*
X-19051Y-39524D01*
X-18951Y-39376D01*
X-18916Y-39200D01*
X-18951Y-39024D01*
X-19051Y-38876D01*
X-19199Y-38776D01*
X-19229Y-38770D01*
X-19215Y-38620D01*
X-18513D01*
X-18413Y-38770D01*
X-18434Y-38875D01*
X-18399Y-39051D01*
X-18299Y-39199D01*
X-18151Y-39299D01*
X-17975Y-39334D01*
X-17908Y-39320D01*
X-13323Y-43905D01*
X-13236Y-43963D01*
X-13134Y-43984D01*
X-10543D01*
Y-44741D01*
X-8493D01*
Y-43984D01*
X-8466D01*
X-8364Y-43963D01*
X-8277Y-43905D01*
X-8127Y-43755D01*
X-7985Y-43825D01*
X-8004Y-43970D01*
X-7969Y-44238D01*
X-7865Y-44487D01*
X-7701Y-44701D01*
X-7487Y-44865D01*
X-7238Y-44969D01*
X-6970Y-45004D01*
X-6702Y-44969D01*
X-6453Y-44865D01*
X-5879Y-45439D01*
X-5792Y-45497D01*
X-5690Y-45518D01*
X-5067D01*
X-5016Y-45668D01*
X-5161Y-45779D01*
X-5325Y-45993D01*
X-5429Y-46242D01*
X-5464Y-46510D01*
X-5429Y-46778D01*
X-5325Y-47027D01*
X-5161Y-47241D01*
X-4947Y-47405D01*
X-4698Y-47509D01*
X-4430Y-47544D01*
X-4162Y-47509D01*
X-3913Y-47405D01*
X-3699Y-47241D01*
X-3535Y-47027D01*
X-3431Y-46778D01*
X-3396Y-46510D01*
X-3429Y-46262D01*
X-3390Y-46226D01*
X-3293Y-46186D01*
X-2918Y-46561D01*
Y-63083D01*
X-3056Y-63140D01*
X-4890Y-61307D01*
X-4977Y-61249D01*
X-5079Y-61228D01*
X-8493D01*
Y-60849D01*
X-6711Y-59067D01*
X-6653Y-58980D01*
X-6632Y-58878D01*
Y-54075D01*
X-6653Y-53973D01*
X-6711Y-53886D01*
X-8236Y-52361D01*
X-8323Y-52303D01*
X-8425Y-52282D01*
X-8493D01*
Y-50311D01*
X-10543D01*
Y-52282D01*
X-13814D01*
X-21730Y-44367D01*
X-21716Y-44300D01*
X-21751Y-44124D01*
X-21851Y-43976D01*
X-21999Y-43876D01*
X-22175Y-43841D01*
X-22351Y-43876D01*
X-22499Y-43976D01*
X-22599Y-44124D01*
X-22613Y-44196D01*
X-22776Y-44246D01*
X-23132Y-43889D01*
Y-43562D01*
X-23076Y-43524D01*
X-22976Y-43376D01*
X-22941Y-43200D01*
X-22976Y-43024D01*
X-23076Y-42876D01*
X-23224Y-42776D01*
X-23400Y-42741D01*
X-23576Y-42776D01*
X-23724Y-42876D01*
X-23824Y-43024D01*
X-23859Y-43200D01*
X-23824Y-43376D01*
X-23724Y-43524D01*
X-23668Y-43562D01*
Y-44000D01*
X-23647Y-44102D01*
X-23589Y-44189D01*
X-23454Y-44324D01*
X-23504Y-44487D01*
X-23576Y-44501D01*
X-23724Y-44601D01*
X-23824Y-44749D01*
X-23859Y-44925D01*
X-23824Y-45101D01*
X-23724Y-45249D01*
X-23576Y-45349D01*
X-23508Y-45362D01*
X-23480Y-45404D01*
X-23451Y-45551D01*
X-23599Y-45651D01*
X-23699Y-45799D01*
X-23734Y-45975D01*
X-23699Y-46151D01*
X-23599Y-46299D01*
X-23543Y-46337D01*
Y-46500D01*
X-23522Y-46602D01*
X-23464Y-46689D01*
X-11008Y-59145D01*
X-10921Y-59203D01*
X-10819Y-59224D01*
X-10543D01*
Y-59981D01*
X-8594D01*
X-8532Y-60131D01*
X-8872Y-60471D01*
X-10543D01*
Y-62521D01*
X-8493D01*
Y-61764D01*
X-5190D01*
X-3303Y-63651D01*
Y-63876D01*
X-3453Y-63906D01*
X-3513Y-63760D01*
X-3681Y-63541D01*
X-3900Y-63373D01*
X-4156Y-63267D01*
X-4330Y-63244D01*
Y-64290D01*
Y-65336D01*
X-4156Y-65313D01*
X-3900Y-65207D01*
X-3681Y-65039D01*
X-3513Y-64820D01*
X-3453Y-64674D01*
X-3303Y-64704D01*
Y-66481D01*
X-3453Y-66511D01*
X-3535Y-66313D01*
X-3699Y-66099D01*
X-3913Y-65935D01*
X-4162Y-65831D01*
X-4430Y-65796D01*
X-4698Y-65831D01*
X-4947Y-65935D01*
X-5496Y-65386D01*
X-5583Y-65328D01*
X-5685Y-65307D01*
X-5945D01*
Y-63265D01*
X-7995D01*
Y-65307D01*
X-16550D01*
X-16652Y-65328D01*
X-16739Y-65386D01*
X-21361Y-70007D01*
X-23100D01*
X-23202Y-70028D01*
X-23289Y-70086D01*
X-25803Y-72600D01*
X-25843Y-72606D01*
X-25977Y-72585D01*
X-26051Y-72476D01*
X-26199Y-72376D01*
X-26375Y-72341D01*
X-26551Y-72376D01*
X-26699Y-72476D01*
X-26799Y-72624D01*
X-26834Y-72800D01*
X-26799Y-72976D01*
X-26699Y-73124D01*
X-26699Y-73125D01*
X-26744Y-73275D01*
X-26950D01*
Y-73275D01*
X-27000D01*
Y-73275D01*
X-27307D01*
Y-71329D01*
X-27328Y-71226D01*
X-27386Y-71139D01*
X-27946Y-70579D01*
X-27918Y-70395D01*
X-27851Y-70349D01*
X-27751Y-70201D01*
X-27716Y-70025D01*
X-27751Y-69849D01*
X-27851Y-69701D01*
X-27907Y-69663D01*
Y-69081D01*
X-27801Y-68975D01*
X-27625D01*
X-27600Y-68975D01*
X-27475Y-69035D01*
Y-69300D01*
X-26800D01*
Y-68500D01*
X-27450D01*
X-27475Y-68500D01*
X-27600Y-68439D01*
Y-67825D01*
X-27600D01*
Y-67775D01*
X-27600D01*
Y-67480D01*
X-27450D01*
Y-68075D01*
X-26015D01*
X-25875Y-68100D01*
X-25810Y-68100D01*
X-25200D01*
Y-67200D01*
X-25100D01*
Y-67100D01*
X-24325D01*
Y-66350D01*
X-24325Y-66300D01*
X-24216Y-66200D01*
X-24200D01*
Y-65800D01*
X-24750D01*
X-24750Y-66154D01*
X-24850Y-66221D01*
X-24950Y-66154D01*
Y-65800D01*
X-25600D01*
Y-65700D01*
X-25700D01*
Y-65200D01*
X-26250D01*
Y-65225D01*
X-26470D01*
Y-64661D01*
X-26320Y-64568D01*
X-26250Y-64581D01*
X-26123Y-64556D01*
X-26016Y-64484D01*
X-25944Y-64377D01*
X-25919Y-64250D01*
Y-63855D01*
X-25241D01*
X-24035Y-65061D01*
X-24093Y-65200D01*
X-24750D01*
Y-65600D01*
X-24100D01*
Y-65700D01*
X-24000D01*
Y-66200D01*
X-23450D01*
Y-66175D01*
X-23280D01*
Y-66525D01*
X-24150D01*
Y-67875D01*
X-23828D01*
Y-68225D01*
X-24150D01*
Y-68620D01*
X-24350D01*
Y-68525D01*
X-25785D01*
X-25925Y-68500D01*
X-25990Y-68500D01*
X-26600D01*
Y-69400D01*
Y-70300D01*
X-25990D01*
X-25925Y-70300D01*
X-25785Y-70275D01*
X-24350D01*
Y-69180D01*
X-24150D01*
Y-69575D01*
X-22850D01*
Y-68225D01*
X-23172D01*
Y-67875D01*
X-22850D01*
Y-67480D01*
X-22500D01*
Y-67675D01*
X-22500D01*
Y-67725D01*
X-22500D01*
Y-68875D01*
X-21500D01*
Y-68593D01*
X-20912D01*
X-20874Y-68649D01*
X-20726Y-68749D01*
X-20550Y-68784D01*
X-20374Y-68749D01*
X-20226Y-68649D01*
X-20126Y-68501D01*
X-20091Y-68325D01*
X-20105Y-68258D01*
X-18636Y-66789D01*
X-18578Y-66702D01*
X-18557Y-66600D01*
Y-51925D01*
X-18578Y-51823D01*
X-18636Y-51736D01*
X-24057Y-46314D01*
Y-42111D01*
X-23892Y-41945D01*
X-23825Y-41959D01*
X-23649Y-41924D01*
X-23501Y-41824D01*
X-23401Y-41676D01*
X-23366Y-41500D01*
X-23401Y-41324D01*
X-23501Y-41176D01*
X-23649Y-41076D01*
X-23825Y-41041D01*
X-24001Y-41076D01*
X-24149Y-41176D01*
X-24249Y-41324D01*
X-24284Y-41500D01*
X-24270Y-41567D01*
X-24382Y-41679D01*
X-24532Y-41617D01*
Y-39936D01*
X-19211Y-34614D01*
X-19153Y-34527D01*
X-19132Y-34425D01*
Y-34161D01*
X-18982Y-34062D01*
X-18875Y-34084D01*
X-18699Y-34049D01*
X-18618Y-33994D01*
X-18468Y-34074D01*
D02*
G37*
G36*
X-19093Y-57892D02*
Y-66489D01*
X-20483Y-67880D01*
X-20550Y-67866D01*
X-20726Y-67901D01*
X-20874Y-68001D01*
X-20912Y-68057D01*
X-21500D01*
Y-67725D01*
X-21500D01*
Y-67675D01*
X-21500D01*
Y-66525D01*
X-22500D01*
Y-66886D01*
X-22650Y-66904D01*
X-22670Y-66883D01*
X-22733Y-66770D01*
X-22720Y-66700D01*
Y-66175D01*
X-22375D01*
Y-65225D01*
X-23078D01*
X-23772Y-64531D01*
X-23715Y-64393D01*
X-22536D01*
X-22395Y-64533D01*
X-22409Y-64600D01*
X-22374Y-64776D01*
X-22274Y-64924D01*
X-22126Y-65024D01*
X-21950Y-65059D01*
X-21774Y-65024D01*
X-21626Y-64924D01*
X-21526Y-64776D01*
X-21491Y-64600D01*
X-21526Y-64424D01*
X-21626Y-64276D01*
X-21774Y-64176D01*
X-21817Y-64168D01*
X-21802Y-64018D01*
X-21262D01*
X-21224Y-64074D01*
X-21076Y-64174D01*
X-20900Y-64209D01*
X-20724Y-64174D01*
X-20576Y-64074D01*
X-20476Y-63926D01*
X-20441Y-63750D01*
X-20476Y-63574D01*
X-20576Y-63426D01*
X-20724Y-63326D01*
X-20900Y-63291D01*
X-21076Y-63326D01*
X-21224Y-63426D01*
X-21262Y-63482D01*
X-22047D01*
X-22150Y-63375D01*
Y-62825D01*
X-22650D01*
Y-62625D01*
X-22150D01*
Y-62425D01*
X-22000Y-62345D01*
X-21918Y-62400D01*
X-21742Y-62435D01*
X-21567Y-62400D01*
X-21418Y-62300D01*
X-21319Y-62152D01*
X-21284Y-61976D01*
X-21319Y-61800D01*
X-21418Y-61652D01*
X-21567Y-61552D01*
X-21742Y-61517D01*
X-21918Y-61552D01*
X-22025Y-61624D01*
X-22161Y-61570D01*
X-22175Y-61557D01*
Y-61174D01*
X-22174Y-61173D01*
X-22025Y-61107D01*
X-21926Y-61174D01*
X-21750Y-61209D01*
X-21574Y-61174D01*
X-21426Y-61074D01*
X-21326Y-60926D01*
X-21291Y-60750D01*
X-21326Y-60574D01*
X-21426Y-60426D01*
X-21574Y-60326D01*
X-21750Y-60291D01*
X-21926Y-60326D01*
X-22074Y-60426D01*
X-22112Y-60482D01*
X-23348D01*
X-23435Y-60332D01*
X-23419Y-60250D01*
X-23435Y-60168D01*
X-23348Y-60018D01*
X-22737D01*
X-22699Y-60074D01*
X-22551Y-60174D01*
X-22375Y-60209D01*
X-22199Y-60174D01*
X-22051Y-60074D01*
X-21951Y-59926D01*
X-21916Y-59750D01*
X-21933Y-59668D01*
X-21822Y-59518D01*
X-20412D01*
X-20374Y-59574D01*
X-20226Y-59674D01*
X-20050Y-59709D01*
X-19874Y-59674D01*
X-19726Y-59574D01*
X-19626Y-59426D01*
X-19591Y-59250D01*
X-19626Y-59074D01*
X-19726Y-58926D01*
X-19874Y-58826D01*
X-19988Y-58804D01*
X-20045Y-58649D01*
X-19231Y-57835D01*
X-19093Y-57892D01*
D02*
G37*
G36*
X-42625Y-34795D02*
X-42125D01*
Y-34460D01*
X-41975Y-34445D01*
X-41974Y-34451D01*
X-41874Y-34599D01*
X-41818Y-34637D01*
Y-35739D01*
X-43036Y-36957D01*
X-43619D01*
X-43649Y-36807D01*
X-43516Y-36753D01*
X-43347Y-36623D01*
X-43217Y-36453D01*
X-43136Y-36256D01*
X-43108Y-36045D01*
X-43136Y-35834D01*
X-43217Y-35637D01*
X-43347Y-35467D01*
X-43516Y-35337D01*
X-43545Y-35242D01*
X-43501Y-35176D01*
X-43466Y-35000D01*
X-43482Y-34920D01*
X-43381Y-34785D01*
X-43325Y-34795D01*
X-43210Y-34795D01*
X-42825D01*
Y-34270D01*
X-42625D01*
Y-34795D01*
D02*
G37*
G36*
X-26718Y-31883D02*
Y-36588D01*
X-26774Y-36626D01*
X-26874Y-36774D01*
X-26909Y-36950D01*
X-26882Y-37082D01*
X-26969Y-37232D01*
X-28163D01*
X-28201Y-37176D01*
X-28349Y-37076D01*
X-28525Y-37041D01*
X-28701Y-37076D01*
X-28795Y-37139D01*
X-28817Y-37124D01*
X-28826Y-36949D01*
X-28726Y-36801D01*
X-28691Y-36625D01*
X-28726Y-36449D01*
X-28826Y-36301D01*
X-28974Y-36201D01*
X-29150Y-36166D01*
X-29217Y-36180D01*
X-29530Y-35867D01*
Y-34429D01*
X-29380Y-34318D01*
X-29300Y-34334D01*
X-29124Y-34299D01*
X-28976Y-34199D01*
X-28876Y-34051D01*
X-28841Y-33875D01*
X-28855Y-33808D01*
X-26868Y-31821D01*
X-26718Y-31883D01*
D02*
G37*
G36*
X-47815Y-668D02*
X-59321Y-12174D01*
X-59471Y-12112D01*
Y-529D01*
X-47872D01*
X-47815Y-668D01*
D02*
G37*
G36*
X-11352Y-729D02*
X-11299Y-736D01*
X-11246Y-751D01*
X-11203Y-767D01*
X-11161Y-787D01*
X-11117Y-815D01*
X-11079Y-844D01*
X-11040Y-878D01*
X-11011Y-914D01*
X-10983Y-951D01*
X-10959Y-992D01*
X-10939Y-1034D01*
X-10923Y-1076D01*
X-10911Y-1127D01*
X-10904Y-1172D01*
X-10900Y-1225D01*
Y-2125D01*
X-10904Y-2180D01*
X-10912Y-2225D01*
X-10924Y-2275D01*
X-10940Y-2315D01*
X-10953Y-2348D01*
X-10978Y-2391D01*
X-11004Y-2428D01*
X-11035Y-2466D01*
X-11080Y-2507D01*
X-11120Y-2537D01*
X-11166Y-2566D01*
X-11219Y-2590D01*
X-11306Y-2616D01*
X-11400Y-2625D01*
X-13000D01*
Y-725D01*
X-11400D01*
X-11352Y-729D01*
D02*
G37*
G36*
X-529Y-99471D02*
X-43589D01*
X-43600Y-99325D01*
X-43600Y-99321D01*
Y-87325D01*
X-55484D01*
X-55546Y-87175D01*
X-54659Y-86287D01*
X-40707D01*
X-40611Y-86437D01*
X-40634Y-86550D01*
X-40599Y-86726D01*
X-40499Y-86874D01*
X-40443Y-86912D01*
Y-92346D01*
X-40593Y-92396D01*
X-40681Y-92281D01*
X-40900Y-92113D01*
X-41156Y-92007D01*
X-41330Y-91984D01*
Y-93030D01*
Y-94076D01*
X-41156Y-94053D01*
X-40900Y-93947D01*
X-40681Y-93779D01*
X-40593Y-93664D01*
X-40443Y-93714D01*
Y-94927D01*
X-40593Y-94978D01*
X-40699Y-94839D01*
X-40913Y-94675D01*
X-41162Y-94571D01*
X-41430Y-94536D01*
X-41698Y-94571D01*
X-41947Y-94675D01*
X-42161Y-94839D01*
X-42325Y-95053D01*
X-42429Y-95302D01*
X-42464Y-95570D01*
X-42429Y-95838D01*
X-42325Y-96087D01*
X-42161Y-96301D01*
X-41947Y-96465D01*
X-41698Y-96569D01*
X-41430Y-96604D01*
X-41162Y-96569D01*
X-40913Y-96465D01*
X-40699Y-96301D01*
X-40593Y-96162D01*
X-40443Y-96213D01*
Y-96400D01*
X-40422Y-96502D01*
X-40364Y-96589D01*
X-38964Y-97989D01*
X-38877Y-98047D01*
X-38775Y-98068D01*
X-23340D01*
X-23238Y-98047D01*
X-23151Y-97989D01*
X-21627Y-96465D01*
X-21378Y-96569D01*
X-21110Y-96604D01*
X-20842Y-96569D01*
X-20593Y-96465D01*
X-20379Y-96301D01*
X-20215Y-96087D01*
X-20111Y-95838D01*
X-20076Y-95570D01*
X-20111Y-95302D01*
X-20215Y-95053D01*
X-20379Y-94839D01*
X-20593Y-94675D01*
X-20842Y-94571D01*
X-21110Y-94536D01*
X-21378Y-94571D01*
X-21627Y-94675D01*
X-21841Y-94839D01*
X-22005Y-95053D01*
X-22032Y-95118D01*
X-22182Y-95088D01*
Y-94481D01*
X-21627Y-93925D01*
X-21378Y-94029D01*
X-21110Y-94064D01*
X-20842Y-94029D01*
X-20593Y-93925D01*
X-20379Y-93761D01*
X-20215Y-93547D01*
X-20111Y-93298D01*
X-20076Y-93030D01*
X-20111Y-92762D01*
X-20215Y-92513D01*
X-20379Y-92299D01*
X-20593Y-92135D01*
X-20842Y-92031D01*
X-21110Y-91996D01*
X-21378Y-92031D01*
X-21627Y-92135D01*
X-21841Y-92299D01*
X-22005Y-92513D01*
X-22109Y-92762D01*
X-22144Y-93030D01*
X-22109Y-93298D01*
X-22005Y-93547D01*
X-22639Y-94181D01*
X-22697Y-94268D01*
X-22718Y-94370D01*
Y-94855D01*
X-22868Y-94906D01*
X-22919Y-94839D01*
X-23133Y-94675D01*
X-23382Y-94571D01*
X-23650Y-94536D01*
X-23918Y-94571D01*
X-24167Y-94675D01*
X-24381Y-94839D01*
X-24545Y-95053D01*
X-24649Y-95302D01*
X-24684Y-95570D01*
X-24649Y-95838D01*
X-24545Y-96087D01*
X-24381Y-96301D01*
X-24167Y-96465D01*
X-23918Y-96569D01*
X-23667Y-96602D01*
X-23604Y-96698D01*
X-23586Y-96733D01*
X-23736Y-96882D01*
X-36364D01*
X-36513Y-96734D01*
X-36443Y-96592D01*
X-36350Y-96604D01*
X-36082Y-96569D01*
X-35833Y-96465D01*
X-35619Y-96301D01*
X-35455Y-96087D01*
X-35351Y-95838D01*
X-35316Y-95570D01*
X-35351Y-95302D01*
X-35455Y-95053D01*
X-35619Y-94839D01*
X-35833Y-94675D01*
X-36082Y-94571D01*
X-36350Y-94536D01*
X-36618Y-94571D01*
X-36867Y-94675D01*
X-37081Y-94839D01*
X-37232Y-95036D01*
X-37291Y-95033D01*
X-37382Y-94994D01*
Y-93606D01*
X-37291Y-93567D01*
X-37232Y-93564D01*
X-37081Y-93761D01*
X-36867Y-93925D01*
X-36618Y-94029D01*
X-36350Y-94064D01*
X-36082Y-94029D01*
X-35833Y-93925D01*
X-35619Y-93761D01*
X-35455Y-93547D01*
X-35351Y-93298D01*
X-35316Y-93030D01*
X-35351Y-92762D01*
X-35455Y-92513D01*
X-33511Y-90569D01*
X-33453Y-90482D01*
X-33432Y-90380D01*
Y-89182D01*
X-33282Y-89131D01*
X-33160Y-89291D01*
X-32946Y-89455D01*
X-32696Y-89558D01*
X-32429Y-89594D01*
X-32161Y-89558D01*
X-31912Y-89455D01*
X-31698Y-89291D01*
X-31533Y-89077D01*
X-31430Y-88827D01*
X-31395Y-88560D01*
X-31430Y-88292D01*
X-31533Y-88043D01*
X-31698Y-87829D01*
X-31912Y-87664D01*
X-32161Y-87561D01*
X-32429Y-87526D01*
X-32696Y-87561D01*
X-32946Y-87664D01*
X-33160Y-87829D01*
X-33282Y-87988D01*
X-33432Y-87937D01*
Y-86642D01*
X-33282Y-86591D01*
X-33160Y-86751D01*
X-32946Y-86915D01*
X-32696Y-87018D01*
X-32429Y-87054D01*
X-32161Y-87018D01*
X-31912Y-86915D01*
X-31288Y-87539D01*
X-31201Y-87597D01*
X-31098Y-87618D01*
X-30591D01*
X-30540Y-87768D01*
X-30620Y-87829D01*
X-30784Y-88043D01*
X-30887Y-88292D01*
X-30923Y-88560D01*
X-30887Y-88827D01*
X-30784Y-89077D01*
X-30620Y-89291D01*
X-30406Y-89455D01*
X-30156Y-89558D01*
X-29889Y-89594D01*
X-29621Y-89558D01*
X-29372Y-89455D01*
X-29158Y-89291D01*
X-28993Y-89077D01*
X-28890Y-88827D01*
X-28855Y-88560D01*
X-28890Y-88292D01*
X-28993Y-88043D01*
X-29158Y-87829D01*
X-29237Y-87768D01*
X-29186Y-87618D01*
X-14936D01*
X-14570Y-87983D01*
X-14584Y-88050D01*
X-14549Y-88226D01*
X-14449Y-88374D01*
X-14301Y-88474D01*
X-14125Y-88509D01*
X-13949Y-88474D01*
X-13801Y-88374D01*
X-13701Y-88226D01*
X-13666Y-88050D01*
X-13701Y-87874D01*
X-13801Y-87726D01*
X-13949Y-87626D01*
X-14125Y-87591D01*
X-14192Y-87605D01*
X-14636Y-87161D01*
X-14723Y-87103D01*
X-14825Y-87082D01*
X-28729D01*
X-28864Y-87045D01*
X-28864Y-86932D01*
Y-84995D01*
X-30914D01*
Y-86944D01*
X-31064Y-87006D01*
X-31533Y-86537D01*
X-31430Y-86287D01*
X-31395Y-86020D01*
X-31430Y-85752D01*
X-31533Y-85503D01*
X-31698Y-85289D01*
X-31912Y-85124D01*
X-32161Y-85021D01*
X-32429Y-84986D01*
X-32696Y-85021D01*
X-32946Y-85124D01*
X-33160Y-85289D01*
X-33300Y-85471D01*
X-33401Y-85472D01*
X-33416Y-85470D01*
X-33466Y-85453D01*
X-33511Y-85386D01*
X-34211Y-84686D01*
X-34298Y-84628D01*
X-34400Y-84607D01*
X-42092D01*
X-42137Y-84457D01*
X-42051Y-84399D01*
X-41951Y-84251D01*
X-41916Y-84075D01*
X-41951Y-83899D01*
X-42051Y-83751D01*
X-42199Y-83651D01*
X-42375Y-83616D01*
X-42551Y-83651D01*
X-42663Y-83726D01*
X-42771Y-83618D01*
X-42726Y-83551D01*
X-42691Y-83375D01*
X-42726Y-83199D01*
X-42826Y-83051D01*
X-42974Y-82951D01*
X-43150Y-82916D01*
X-43326Y-82951D01*
X-43474Y-83051D01*
X-43504Y-83095D01*
X-53504D01*
X-53551Y-83026D01*
X-53699Y-82926D01*
X-53710Y-82924D01*
X-53760Y-82761D01*
X-51779Y-80780D01*
X-51737Y-80786D01*
X-51626Y-80839D01*
X-51599Y-80976D01*
X-51499Y-81124D01*
X-51351Y-81224D01*
X-51175Y-81259D01*
X-50999Y-81224D01*
X-50851Y-81124D01*
X-50796Y-81043D01*
X-45075D01*
X-44973Y-81022D01*
X-44886Y-80964D01*
X-41201Y-77279D01*
X-41038Y-77329D01*
X-41024Y-77401D01*
X-40924Y-77549D01*
X-40776Y-77649D01*
X-40600Y-77684D01*
X-40424Y-77649D01*
X-40276Y-77549D01*
X-40238Y-77493D01*
X-26275D01*
X-26173Y-77472D01*
X-26086Y-77414D01*
X-24936Y-76264D01*
X-24878Y-76177D01*
X-24857Y-76075D01*
Y-73086D01*
X-24086Y-72315D01*
X-23929Y-72369D01*
X-23924Y-72412D01*
X-23999Y-72524D01*
X-24034Y-72700D01*
X-23999Y-72876D01*
X-23899Y-73024D01*
X-23751Y-73124D01*
X-23575Y-73159D01*
X-23399Y-73124D01*
X-23251Y-73024D01*
X-23151Y-72876D01*
X-23116Y-72700D01*
X-23151Y-72524D01*
X-23251Y-72376D01*
X-23200Y-72229D01*
X-22892Y-71921D01*
X-22736Y-71976D01*
X-22714Y-72086D01*
X-22614Y-72234D01*
X-22486Y-72320D01*
X-22484Y-72325D01*
X-22494Y-72415D01*
X-22513Y-72469D01*
X-22676Y-72501D01*
X-22824Y-72601D01*
X-22924Y-72749D01*
X-22959Y-72925D01*
X-22924Y-73101D01*
X-22824Y-73249D01*
X-22676Y-73349D01*
X-22500Y-73384D01*
X-22324Y-73349D01*
X-22176Y-73249D01*
X-22076Y-73101D01*
X-22041Y-72925D01*
X-22055Y-72858D01*
X-21839Y-72643D01*
X-21350D01*
X-21336Y-72680D01*
X-21325Y-72793D01*
X-21449Y-72876D01*
X-21549Y-73024D01*
X-21584Y-73200D01*
X-21549Y-73376D01*
X-21449Y-73524D01*
X-21301Y-73624D01*
X-21125Y-73659D01*
X-20949Y-73624D01*
X-20801Y-73524D01*
X-20749Y-73448D01*
X-10543D01*
Y-74182D01*
X-19538D01*
X-19576Y-74126D01*
X-19724Y-74026D01*
X-19900Y-73991D01*
X-20076Y-74026D01*
X-20224Y-74126D01*
X-20324Y-74274D01*
X-20359Y-74450D01*
X-20324Y-74626D01*
X-20224Y-74774D01*
X-20076Y-74874D01*
X-19900Y-74909D01*
X-19724Y-74874D01*
X-19576Y-74774D01*
X-19538Y-74718D01*
X-10543D01*
Y-75452D01*
X-12095D01*
X-12120Y-75457D01*
X-19579D01*
X-19601Y-75426D01*
X-19749Y-75326D01*
X-19925Y-75291D01*
X-20101Y-75326D01*
X-20249Y-75426D01*
X-20349Y-75574D01*
X-20384Y-75750D01*
X-20349Y-75926D01*
X-20249Y-76074D01*
X-20101Y-76174D01*
X-19925Y-76209D01*
X-19749Y-76174D01*
X-19601Y-76074D01*
X-19546Y-75993D01*
X-12100D01*
X-12075Y-75988D01*
X-10543D01*
Y-76745D01*
X-8620D01*
Y-77235D01*
X-10543D01*
Y-77992D01*
X-21481D01*
X-21526Y-77926D01*
X-21674Y-77826D01*
X-21850Y-77791D01*
X-22026Y-77826D01*
X-22174Y-77926D01*
X-22274Y-78074D01*
X-22309Y-78250D01*
X-22274Y-78426D01*
X-22174Y-78574D01*
X-22026Y-78674D01*
X-21850Y-78709D01*
X-21674Y-78674D01*
X-21526Y-78574D01*
X-21494Y-78528D01*
X-10543D01*
Y-79285D01*
X-8493D01*
Y-78581D01*
X-8354Y-78524D01*
X-7865Y-79013D01*
X-7969Y-79262D01*
X-8004Y-79530D01*
X-7969Y-79798D01*
X-7865Y-80047D01*
X-7701Y-80261D01*
X-7487Y-80425D01*
X-7238Y-80529D01*
X-6970Y-80564D01*
X-6702Y-80529D01*
X-6453Y-80425D01*
X-6143Y-80736D01*
Y-81229D01*
X-6293Y-81298D01*
X-6453Y-81175D01*
X-6702Y-81071D01*
X-6970Y-81036D01*
X-7238Y-81071D01*
X-7487Y-81175D01*
X-7701Y-81339D01*
X-7865Y-81553D01*
X-7969Y-81802D01*
X-8493D01*
Y-79775D01*
X-10543D01*
Y-81802D01*
X-30394D01*
X-32930Y-79267D01*
X-32916Y-79200D01*
X-32951Y-79024D01*
X-33051Y-78876D01*
X-33199Y-78776D01*
X-33375Y-78741D01*
X-33551Y-78776D01*
X-33699Y-78876D01*
X-33799Y-79024D01*
X-33834Y-79200D01*
X-33799Y-79376D01*
X-33699Y-79524D01*
X-33551Y-79624D01*
X-33375Y-79659D01*
X-33308Y-79645D01*
X-30694Y-82259D01*
X-30607Y-82317D01*
X-30505Y-82338D01*
X-10543D01*
Y-84365D01*
X-8493D01*
Y-82338D01*
X-7969D01*
X-7865Y-82587D01*
X-7701Y-82801D01*
X-7487Y-82965D01*
X-7238Y-83069D01*
X-6970Y-83104D01*
X-6702Y-83069D01*
X-6453Y-82965D01*
X-6293Y-82842D01*
X-6143Y-82911D01*
Y-83769D01*
X-6293Y-83838D01*
X-6453Y-83715D01*
X-6702Y-83611D01*
X-6970Y-83576D01*
X-7238Y-83611D01*
X-7487Y-83715D01*
X-7701Y-83879D01*
X-7865Y-84093D01*
X-7969Y-84342D01*
X-8004Y-84610D01*
X-7969Y-84878D01*
X-7865Y-85127D01*
X-7701Y-85341D01*
X-7543Y-85462D01*
X-7594Y-85612D01*
X-8493D01*
Y-84855D01*
X-10543D01*
Y-86905D01*
X-8493D01*
Y-86148D01*
X-7635D01*
X-7584Y-86298D01*
X-7719Y-86401D01*
X-7887Y-86620D01*
X-7993Y-86876D01*
X-8016Y-87050D01*
X-6970D01*
Y-87150D01*
X-6870D01*
Y-88196D01*
X-6696Y-88173D01*
X-6440Y-88067D01*
X-6401Y-88037D01*
X-6239Y-88101D01*
X-6230Y-88152D01*
X-7836Y-89757D01*
X-30805D01*
X-30907Y-89778D01*
X-30994Y-89836D01*
X-33293Y-92135D01*
X-33542Y-92031D01*
X-33810Y-91996D01*
X-34078Y-92031D01*
X-34327Y-92135D01*
X-34541Y-92299D01*
X-34705Y-92513D01*
X-34809Y-92762D01*
X-34844Y-93030D01*
X-34809Y-93298D01*
X-34705Y-93547D01*
X-34541Y-93761D01*
X-34327Y-93925D01*
X-34078Y-94029D01*
X-33810Y-94064D01*
X-33542Y-94029D01*
X-33293Y-93925D01*
X-33079Y-93761D01*
X-32933Y-93570D01*
X-32842Y-93582D01*
X-32783Y-93611D01*
Y-94164D01*
X-33293Y-94675D01*
X-33542Y-94571D01*
X-33810Y-94536D01*
X-34078Y-94571D01*
X-34327Y-94675D01*
X-34541Y-94839D01*
X-34705Y-95053D01*
X-34809Y-95302D01*
X-34844Y-95570D01*
X-34809Y-95838D01*
X-34705Y-96087D01*
X-34541Y-96301D01*
X-34327Y-96465D01*
X-34078Y-96569D01*
X-33810Y-96604D01*
X-33542Y-96569D01*
X-33293Y-96465D01*
X-33079Y-96301D01*
X-32915Y-96087D01*
X-32811Y-95838D01*
X-32776Y-95570D01*
X-32811Y-95302D01*
X-32915Y-95053D01*
X-32326Y-94464D01*
X-32268Y-94377D01*
X-32247Y-94275D01*
Y-93686D01*
X-32097Y-93636D01*
X-32001Y-93761D01*
X-31787Y-93925D01*
X-31538Y-94029D01*
X-31270Y-94064D01*
X-31002Y-94029D01*
X-30753Y-93925D01*
X-30539Y-93761D01*
X-30375Y-93547D01*
X-30343Y-93470D01*
X-30193Y-93499D01*
Y-94114D01*
X-30753Y-94675D01*
X-31002Y-94571D01*
X-31270Y-94536D01*
X-31538Y-94571D01*
X-31787Y-94675D01*
X-32001Y-94839D01*
X-32165Y-95053D01*
X-32269Y-95302D01*
X-32304Y-95570D01*
X-32269Y-95838D01*
X-32165Y-96087D01*
X-32001Y-96301D01*
X-31787Y-96465D01*
X-31538Y-96569D01*
X-31270Y-96604D01*
X-31002Y-96569D01*
X-30753Y-96465D01*
X-30539Y-96301D01*
X-30375Y-96087D01*
X-30271Y-95838D01*
X-30236Y-95570D01*
X-30271Y-95302D01*
X-30375Y-95053D01*
X-29736Y-94414D01*
X-29678Y-94327D01*
X-29657Y-94225D01*
Y-93752D01*
X-29507Y-93701D01*
X-29461Y-93761D01*
X-29247Y-93925D01*
X-28998Y-94029D01*
X-28730Y-94064D01*
X-28462Y-94029D01*
X-28213Y-93925D01*
X-27999Y-93761D01*
X-27835Y-93547D01*
X-27731Y-93298D01*
X-27696Y-93030D01*
X-27731Y-92762D01*
X-27835Y-92513D01*
X-27999Y-92299D01*
X-28213Y-92135D01*
X-28462Y-92031D01*
X-28730Y-91996D01*
X-28903Y-92019D01*
X-28973Y-91877D01*
X-28827Y-91730D01*
X-5887D01*
X-5785Y-91710D01*
X-5698Y-91652D01*
X-2511Y-88464D01*
X-2453Y-88377D01*
X-2432Y-88275D01*
Y-78720D01*
X-2453Y-78618D01*
X-2511Y-78531D01*
X-3535Y-77507D01*
X-3431Y-77258D01*
X-3396Y-76990D01*
X-3431Y-76722D01*
X-3535Y-76473D01*
X-1111Y-74049D01*
X-1053Y-73962D01*
X-1032Y-73860D01*
Y-43175D01*
X-1053Y-43073D01*
X-1111Y-42986D01*
X-2856Y-41241D01*
X-2943Y-41183D01*
X-3045Y-41162D01*
X-3431D01*
X-3535Y-40913D01*
X-3699Y-40699D01*
X-3913Y-40535D01*
X-4162Y-40431D01*
X-4430Y-40396D01*
X-4698Y-40431D01*
X-4947Y-40535D01*
X-5471Y-40011D01*
X-5558Y-39953D01*
X-5660Y-39932D01*
X-6416D01*
X-6451Y-39795D01*
X-6449Y-39782D01*
X-6239Y-39621D01*
X-6075Y-39407D01*
X-5971Y-39158D01*
X-5936Y-38890D01*
X-5971Y-38622D01*
X-6075Y-38373D01*
X-6239Y-38159D01*
X-6453Y-37995D01*
X-6702Y-37891D01*
X-6970Y-37856D01*
X-7238Y-37891D01*
X-7487Y-37995D01*
X-7701Y-38159D01*
X-7865Y-38373D01*
X-7969Y-38622D01*
X-8004Y-38890D01*
X-7969Y-39158D01*
X-7865Y-39407D01*
X-7701Y-39621D01*
X-7487Y-39785D01*
X-7485Y-39786D01*
X-7500Y-39942D01*
X-7552Y-39953D01*
X-7639Y-40011D01*
X-8354Y-40726D01*
X-8493Y-40669D01*
Y-40151D01*
X-10543D01*
Y-40656D01*
X-14915D01*
X-16531Y-39041D01*
X-16457Y-38902D01*
X-16425Y-38909D01*
X-16249Y-38874D01*
X-16101Y-38774D01*
X-16063Y-38718D01*
X-15911D01*
X-15539Y-39089D01*
X-15452Y-39147D01*
X-15350Y-39168D01*
X-13400D01*
X-13298Y-39147D01*
X-13211Y-39089D01*
X-10739Y-36618D01*
X-7969D01*
X-7865Y-36867D01*
X-7701Y-37081D01*
X-7487Y-37245D01*
X-7238Y-37349D01*
X-6970Y-37384D01*
X-6702Y-37349D01*
X-6453Y-37245D01*
X-6239Y-37081D01*
X-6075Y-36867D01*
X-5971Y-36618D01*
X-5936Y-36350D01*
X-5971Y-36082D01*
X-6075Y-35833D01*
X-6239Y-35619D01*
X-6453Y-35455D01*
X-6702Y-35351D01*
X-6970Y-35316D01*
X-7238Y-35351D01*
X-7487Y-35455D01*
X-7701Y-35619D01*
X-7865Y-35833D01*
X-7969Y-36082D01*
X-10850D01*
X-10952Y-36103D01*
X-11039Y-36161D01*
X-13511Y-38632D01*
X-15239D01*
X-15611Y-38261D01*
X-15698Y-38203D01*
X-15748Y-38193D01*
X-15733Y-38043D01*
X-13725D01*
X-13623Y-38022D01*
X-13536Y-37964D01*
X-12936Y-37364D01*
X-12878Y-37277D01*
X-12857Y-37175D01*
Y-34786D01*
X-12161Y-34089D01*
X-12103Y-34002D01*
X-12082Y-33900D01*
Y-29854D01*
X-12103Y-29751D01*
X-12161Y-29664D01*
X-13846Y-27979D01*
X-13818Y-27795D01*
X-13751Y-27749D01*
X-13651Y-27601D01*
X-13616Y-27425D01*
X-13651Y-27249D01*
X-13751Y-27101D01*
X-13899Y-27001D01*
X-14075Y-26966D01*
X-14251Y-27001D01*
X-14399Y-27101D01*
X-14445Y-27168D01*
X-14629Y-27196D01*
X-19072Y-22753D01*
Y-22127D01*
X-18934Y-22070D01*
X-18795Y-22208D01*
X-18809Y-22275D01*
X-18774Y-22451D01*
X-18674Y-22599D01*
X-18526Y-22699D01*
X-18350Y-22734D01*
X-18174Y-22699D01*
X-18026Y-22599D01*
X-17993Y-22550D01*
X-17843Y-22596D01*
Y-22675D01*
X-17822Y-22777D01*
X-17764Y-22864D01*
X-14739Y-25889D01*
X-14652Y-25947D01*
X-14550Y-25968D01*
X-11675D01*
X-11573Y-25947D01*
X-11486Y-25889D01*
X-8439Y-22843D01*
X-8177D01*
X-8141Y-22928D01*
X-8029Y-23074D01*
X-7883Y-23186D01*
X-7713Y-23257D01*
X-7530Y-23281D01*
X-7347Y-23257D01*
X-7177Y-23186D01*
X-7031Y-23074D01*
X-6990Y-23021D01*
X-6800D01*
X-6759Y-23074D01*
X-6613Y-23186D01*
X-6443Y-23257D01*
X-6260Y-23281D01*
X-6077Y-23257D01*
X-5907Y-23186D01*
X-5761Y-23074D01*
X-5720Y-23021D01*
X-5530D01*
X-5489Y-23074D01*
X-5343Y-23186D01*
X-5173Y-23257D01*
X-4990Y-23281D01*
X-4807Y-23257D01*
X-4637Y-23186D01*
X-4491Y-23074D01*
X-4450Y-23021D01*
X-4260D01*
X-4219Y-23074D01*
X-4073Y-23186D01*
X-3988Y-23222D01*
Y-23834D01*
X-4304Y-24151D01*
X-4348Y-24144D01*
X-4357Y-24140D01*
X-4456Y-23976D01*
X-4441Y-23900D01*
X-4476Y-23724D01*
X-4576Y-23576D01*
X-4724Y-23476D01*
X-4900Y-23441D01*
X-5076Y-23476D01*
X-5224Y-23576D01*
X-5324Y-23724D01*
X-5359Y-23900D01*
X-5324Y-24076D01*
X-5303Y-24107D01*
X-5383Y-24257D01*
X-5825D01*
X-5927Y-24278D01*
X-6014Y-24336D01*
X-10589Y-28911D01*
X-10647Y-28998D01*
X-10668Y-29100D01*
Y-29763D01*
X-10724Y-29801D01*
X-10824Y-29949D01*
X-10859Y-30125D01*
X-10824Y-30301D01*
X-10724Y-30449D01*
X-10576Y-30549D01*
X-10400Y-30584D01*
X-10224Y-30549D01*
X-10076Y-30449D01*
X-9976Y-30301D01*
X-9941Y-30125D01*
X-9976Y-29949D01*
X-10076Y-29801D01*
X-10132Y-29763D01*
Y-29211D01*
X-9855Y-28934D01*
X-9705Y-28996D01*
Y-31684D01*
X-11423Y-33402D01*
X-11484Y-33493D01*
X-11505Y-33600D01*
Y-34446D01*
X-11549Y-34476D01*
X-11649Y-34624D01*
X-11684Y-34800D01*
X-11649Y-34976D01*
X-11549Y-35124D01*
X-11401Y-35224D01*
X-11225Y-35259D01*
X-11049Y-35224D01*
X-10901Y-35124D01*
X-10801Y-34976D01*
X-10766Y-34800D01*
X-10801Y-34624D01*
X-10901Y-34476D01*
X-10945Y-34446D01*
Y-33716D01*
X-9227Y-31998D01*
X-9166Y-31907D01*
X-9145Y-31800D01*
Y-28916D01*
X-8134Y-27905D01*
X-7995Y-27963D01*
Y-29755D01*
X-5945D01*
Y-27705D01*
X-7737D01*
X-7795Y-27566D01*
X-6259Y-26030D01*
X-5277D01*
X-5233Y-26151D01*
X-5228Y-26180D01*
X-5324Y-26324D01*
X-5359Y-26500D01*
X-5324Y-26676D01*
X-5224Y-26824D01*
X-5076Y-26924D01*
X-4900Y-26959D01*
X-4724Y-26924D01*
X-4576Y-26824D01*
X-4476Y-26676D01*
X-4441Y-26500D01*
X-4476Y-26324D01*
X-4572Y-26180D01*
X-4567Y-26151D01*
X-4523Y-26030D01*
X-4000D01*
X-3893Y-26009D01*
X-3802Y-25948D01*
X-2252Y-24398D01*
X-2191Y-24307D01*
X-2170Y-24200D01*
X-2170Y-24200D01*
Y-23217D01*
X-2097Y-23186D01*
X-1951Y-23074D01*
X-1839Y-22928D01*
X-1768Y-22758D01*
X-1744Y-22575D01*
X-1768Y-22392D01*
X-1839Y-22222D01*
X-1951Y-22076D01*
X-2004Y-22035D01*
Y-21845D01*
X-1951Y-21804D01*
X-1839Y-21658D01*
X-1768Y-21488D01*
X-1744Y-21305D01*
X-1768Y-21122D01*
X-1839Y-20952D01*
X-1951Y-20806D01*
X-2097Y-20694D01*
X-2267Y-20623D01*
X-2450Y-20599D01*
X-2633Y-20623D01*
X-2803Y-20694D01*
X-2949Y-20806D01*
X-2975Y-20839D01*
X-3164Y-20839D01*
X-3203Y-20788D01*
X-3354Y-20672D01*
X-3531Y-20599D01*
X-3620Y-20587D01*
Y-21305D01*
X-3820D01*
Y-20587D01*
X-3909Y-20599D01*
X-4086Y-20672D01*
X-4237Y-20788D01*
X-4260Y-20818D01*
X-4450D01*
X-4473Y-20788D01*
X-4624Y-20672D01*
X-4801Y-20599D01*
X-4890Y-20587D01*
Y-21305D01*
X-5090D01*
Y-20587D01*
X-5179Y-20599D01*
X-5356Y-20672D01*
X-5507Y-20788D01*
X-5546Y-20839D01*
X-5735Y-20839D01*
X-5761Y-20806D01*
X-5907Y-20694D01*
X-6077Y-20623D01*
X-6260Y-20599D01*
X-6443Y-20623D01*
X-6613Y-20694D01*
X-6759Y-20806D01*
X-6785Y-20839D01*
X-6974Y-20839D01*
X-7013Y-20788D01*
X-7164Y-20672D01*
X-7341Y-20599D01*
X-7430Y-20587D01*
Y-21305D01*
X-7530D01*
Y-21405D01*
X-8248D01*
X-8236Y-21494D01*
X-8163Y-21671D01*
X-8047Y-21822D01*
X-7996Y-21861D01*
Y-22050D01*
X-8029Y-22076D01*
X-8141Y-22222D01*
X-8177Y-22307D01*
X-8550D01*
X-8652Y-22328D01*
X-8739Y-22386D01*
X-11786Y-25432D01*
X-13625D01*
X-13706Y-25282D01*
X-13701Y-25276D01*
X-13666Y-25100D01*
X-13680Y-25033D01*
X-5536Y-16889D01*
X-5478Y-16802D01*
X-5457Y-16700D01*
Y-16611D01*
X-5398Y-16582D01*
X-5307Y-16570D01*
X-5161Y-16761D01*
X-4947Y-16925D01*
X-4698Y-17029D01*
X-4430Y-17064D01*
X-4162Y-17029D01*
X-3913Y-16925D01*
X-3699Y-16761D01*
X-3535Y-16547D01*
X-3431Y-16298D01*
X-3396Y-16030D01*
X-3431Y-15762D01*
X-3535Y-15513D01*
X-3699Y-15299D01*
X-3870Y-15168D01*
X-3819Y-15018D01*
X-3725D01*
X-3623Y-14997D01*
X-3536Y-14939D01*
X-2611Y-14014D01*
X-2553Y-13927D01*
X-2532Y-13825D01*
Y-12612D01*
X-2476Y-12574D01*
X-2376Y-12426D01*
X-2341Y-12250D01*
X-2376Y-12074D01*
X-2476Y-11926D01*
X-2624Y-11826D01*
X-2800Y-11791D01*
X-2976Y-11826D01*
X-3124Y-11926D01*
X-3224Y-12074D01*
X-3259Y-12250D01*
X-3224Y-12426D01*
X-3124Y-12574D01*
X-3068Y-12612D01*
Y-13714D01*
X-3335Y-13981D01*
X-3462Y-13896D01*
X-3407Y-13764D01*
X-3384Y-13590D01*
X-5476D01*
X-5453Y-13764D01*
X-5347Y-14020D01*
X-5179Y-14239D01*
X-5000Y-14376D01*
X-4990Y-14513D01*
X-5001Y-14552D01*
X-5014Y-14561D01*
X-5914Y-15461D01*
X-5926Y-15479D01*
X-5976Y-15490D01*
X-6100Y-15480D01*
X-6239Y-15299D01*
X-6453Y-15135D01*
X-6702Y-15031D01*
X-6970Y-14996D01*
X-7238Y-15031D01*
X-7474Y-15129D01*
X-7938Y-14665D01*
X-7876Y-14515D01*
X-5945D01*
Y-12465D01*
X-7855D01*
X-7979Y-12465D01*
X-7991Y-12450D01*
X-8026Y-12274D01*
X-8126Y-12126D01*
X-8274Y-12026D01*
X-8450Y-11991D01*
X-8626Y-12026D01*
X-8774Y-12126D01*
X-8874Y-12274D01*
X-8909Y-12450D01*
X-8874Y-12626D01*
X-8774Y-12774D01*
X-8730Y-12804D01*
Y-14550D01*
X-8709Y-14657D01*
X-8648Y-14748D01*
X-7871Y-15526D01*
X-7969Y-15762D01*
X-8004Y-16030D01*
X-7969Y-16298D01*
X-7865Y-16547D01*
X-7701Y-16761D01*
X-7487Y-16925D01*
X-7238Y-17029D01*
X-6970Y-17064D01*
X-6702Y-17029D01*
X-6603Y-16987D01*
X-6518Y-17115D01*
X-14058Y-24655D01*
X-14125Y-24641D01*
X-14301Y-24676D01*
X-14449Y-24776D01*
X-14549Y-24924D01*
X-14580Y-25080D01*
X-14647Y-25119D01*
X-14728Y-25143D01*
X-17307Y-22564D01*
Y-21100D01*
X-17328Y-20998D01*
X-17386Y-20911D01*
X-19188Y-19109D01*
X-19182Y-19080D01*
X-19137Y-18948D01*
X-18976Y-18824D01*
X-18836Y-18641D01*
X-18748Y-18428D01*
X-18717Y-18200D01*
X-18721Y-18170D01*
X-18709Y-18164D01*
X-18526Y-18024D01*
X-18386Y-17841D01*
X-18298Y-17628D01*
X-18267Y-17400D01*
X-18298Y-17172D01*
X-18309Y-17143D01*
X-16456Y-15290D01*
X-16339Y-15386D01*
X-16347Y-15398D01*
X-16368Y-15500D01*
Y-16063D01*
X-16424Y-16101D01*
X-16524Y-16249D01*
X-16559Y-16425D01*
X-16524Y-16601D01*
X-16424Y-16749D01*
X-16276Y-16849D01*
X-16100Y-16884D01*
X-15924Y-16849D01*
X-15776Y-16749D01*
X-15676Y-16601D01*
X-15641Y-16425D01*
X-15676Y-16249D01*
X-15776Y-16101D01*
X-15832Y-16063D01*
Y-15611D01*
X-12242Y-12020D01*
X-12175Y-12034D01*
X-11999Y-11999D01*
X-11851Y-11899D01*
X-11751Y-11751D01*
X-11716Y-11575D01*
X-11730Y-11508D01*
X-10236Y-10014D01*
X-10178Y-9927D01*
X-10157Y-9825D01*
Y-8925D01*
X-10178Y-8823D01*
X-10236Y-8736D01*
X-10536Y-8436D01*
X-10623Y-8378D01*
X-10725Y-8357D01*
X-10869D01*
Y-8025D01*
X-10675D01*
Y-6975D01*
X-11725D01*
Y-8025D01*
X-11725D01*
X-11725Y-8125D01*
X-11725D01*
Y-9050D01*
X-11750D01*
Y-9475D01*
X-11300D01*
Y-9675D01*
X-11750D01*
Y-10100D01*
X-11274D01*
X-11217Y-10239D01*
X-12108Y-11130D01*
X-12175Y-11116D01*
X-12351Y-11151D01*
X-12499Y-11251D01*
X-12599Y-11399D01*
X-12634Y-11575D01*
X-12620Y-11642D01*
X-14463Y-13484D01*
X-14576Y-13385D01*
X-14547Y-13348D01*
X-14478Y-13180D01*
X-14454Y-13000D01*
Y-10200D01*
X-13150D01*
X-13150Y-10200D01*
X-13150Y-10200D01*
X-13041Y-10100D01*
X-12700D01*
Y-9575D01*
X-12600D01*
Y-9475D01*
X-12150D01*
Y-9050D01*
X-12150D01*
X-12175Y-9025D01*
Y-8125D01*
X-12075Y-8025D01*
X-12075D01*
Y-6975D01*
X-13125D01*
X-13125Y-6975D01*
X-13268Y-6958D01*
X-13350Y-6941D01*
X-13425Y-6956D01*
X-13575Y-6925D01*
Y-6925D01*
X-13575Y-6925D01*
X-13969D01*
Y-5513D01*
X-13819Y-5442D01*
X-13728Y-5511D01*
X-13558Y-5582D01*
X-13375Y-5606D01*
X-13192Y-5582D01*
X-13022Y-5511D01*
X-12876Y-5399D01*
X-12764Y-5253D01*
X-12693Y-5083D01*
X-12669Y-4900D01*
Y-4700D01*
X-12685Y-4579D01*
X-11791Y-3684D01*
X-11719Y-3577D01*
X-11694Y-3450D01*
Y-2806D01*
X-11394D01*
X-11335Y-2798D01*
X-11289Y-2794D01*
X-11279Y-2791D01*
X-11219Y-2783D01*
X-11148Y-2753D01*
X-11145Y-2753D01*
X-11135Y-2748D01*
X-11057Y-2715D01*
X-10917Y-2608D01*
X-10810Y-2468D01*
X-10742Y-2306D01*
X-10734Y-2243D01*
X-10728Y-2211D01*
X-10729Y-2202D01*
X-10726Y-2193D01*
X-10724Y-2170D01*
X-10719Y-2131D01*
Y-1219D01*
X-10725Y-1178D01*
X-10726Y-1159D01*
X-10728Y-1152D01*
X-10728Y-1145D01*
X-10735Y-1100D01*
X-10735Y-1098D01*
X-10742Y-1044D01*
X-10766Y-987D01*
X-10772Y-970D01*
X-10774Y-968D01*
X-10777Y-960D01*
X-10778Y-957D01*
X-10781Y-951D01*
X-10810Y-882D01*
X-10863Y-811D01*
X-10790Y-661D01*
X-10670D01*
X-10482Y-739D01*
X-10278Y-766D01*
X-10075Y-739D01*
X-9885Y-661D01*
X-9722Y-535D01*
X-9717Y-529D01*
X-9536D01*
X-9525Y-675D01*
X-9525Y-679D01*
Y-2225D01*
X-7975D01*
Y-2029D01*
X-7826Y-1949D01*
X-7650Y-1984D01*
X-7474Y-1949D01*
X-7425Y-1916D01*
X-7275Y-1996D01*
Y-2225D01*
X-5725D01*
Y-679D01*
X-5725Y-675D01*
X-5714Y-529D01*
X-529D01*
Y-99471D01*
D02*
G37*
G36*
X-31675Y-3450D02*
X-31280D01*
Y-6350D01*
X-31675D01*
Y-8950D01*
X-31280D01*
Y-9400D01*
X-31575D01*
Y-9400D01*
X-31625D01*
Y-9400D01*
X-32775D01*
Y-9632D01*
X-33575D01*
X-33677Y-9653D01*
X-33764Y-9711D01*
X-34408Y-10355D01*
X-34475Y-10341D01*
X-34651Y-10376D01*
X-34799Y-10476D01*
X-34899Y-10624D01*
X-34934Y-10800D01*
X-34899Y-10976D01*
X-34925Y-11125D01*
X-34925D01*
X-34925Y-11125D01*
Y-12070D01*
X-35089D01*
X-35200Y-11975D01*
X-35200Y-11875D01*
Y-10825D01*
X-35821D01*
X-35886Y-10761D01*
X-35973Y-10703D01*
X-36075Y-10682D01*
X-36350D01*
Y-10425D01*
X-37250D01*
Y-10682D01*
X-37705D01*
Y-9925D01*
X-39755D01*
Y-11975D01*
X-37705D01*
Y-11218D01*
X-37356D01*
X-37250Y-11324D01*
Y-11375D01*
X-37250Y-11525D01*
Y-12375D01*
X-37218D01*
Y-13000D01*
X-37197Y-13102D01*
X-37139Y-13189D01*
X-36673Y-13656D01*
X-36686Y-13722D01*
X-36651Y-13898D01*
X-36628Y-13932D01*
X-36709Y-14082D01*
X-37513D01*
X-37551Y-14026D01*
X-37699Y-13926D01*
X-37875Y-13891D01*
X-38051Y-13926D01*
X-38199Y-14026D01*
X-38237Y-14082D01*
X-41013D01*
X-41051Y-14026D01*
X-41199Y-13926D01*
X-41375Y-13891D01*
X-41551Y-13926D01*
X-41699Y-14026D01*
X-41799Y-14174D01*
X-41834Y-14350D01*
X-41799Y-14526D01*
X-41699Y-14674D01*
X-41551Y-14774D01*
X-41375Y-14809D01*
X-41199Y-14774D01*
X-41051Y-14674D01*
X-41013Y-14618D01*
X-40589D01*
X-40527Y-14768D01*
X-43056Y-17297D01*
X-43195Y-17240D01*
Y-15675D01*
X-43216Y-15568D01*
X-43277Y-15477D01*
X-46107Y-12647D01*
X-46198Y-12586D01*
X-46305Y-12565D01*
X-57200D01*
X-57307Y-12586D01*
X-57398Y-12647D01*
X-58769Y-14017D01*
X-58885Y-13922D01*
X-58801Y-13796D01*
X-58766Y-13620D01*
X-58801Y-13444D01*
X-58901Y-13296D01*
X-58945Y-13266D01*
Y-12591D01*
X-47219Y-865D01*
X-35700D01*
Y-2050D01*
X-34300D01*
Y-865D01*
X-31675D01*
Y-3450D01*
D02*
G37*
G36*
X-18200Y-2625D02*
X-19800D01*
X-19848Y-2621D01*
X-19901Y-2614D01*
X-19954Y-2599D01*
X-19997Y-2583D01*
X-20039Y-2563D01*
X-20083Y-2535D01*
X-20121Y-2506D01*
X-20160Y-2472D01*
X-20189Y-2436D01*
X-20217Y-2399D01*
X-20241Y-2358D01*
X-20261Y-2316D01*
X-20277Y-2274D01*
X-20289Y-2223D01*
X-20296Y-2178D01*
X-20300Y-2125D01*
Y-1225D01*
X-20296Y-1170D01*
X-20288Y-1125D01*
X-20276Y-1075D01*
X-20260Y-1035D01*
X-20247Y-1002D01*
X-20222Y-959D01*
X-20196Y-922D01*
X-20165Y-884D01*
X-20120Y-843D01*
X-20080Y-813D01*
X-20034Y-784D01*
X-19981Y-760D01*
X-19894Y-734D01*
X-19800Y-725D01*
X-18200D01*
Y-2625D01*
D02*
G37*
G36*
X-21478Y-535D02*
X-21315Y-661D01*
X-21125Y-739D01*
X-20921Y-766D01*
X-20717Y-739D01*
X-20529Y-661D01*
X-20410D01*
X-20337Y-811D01*
X-20390Y-882D01*
X-20458Y-1044D01*
X-20466Y-1107D01*
X-20472Y-1139D01*
X-20471Y-1148D01*
X-20474Y-1157D01*
X-20476Y-1180D01*
X-20481Y-1219D01*
Y-2131D01*
X-20475Y-2172D01*
X-20474Y-2191D01*
X-20472Y-2198D01*
X-20472Y-2205D01*
X-20465Y-2250D01*
X-20465Y-2252D01*
X-20458Y-2306D01*
X-20434Y-2363D01*
X-20428Y-2380D01*
X-20426Y-2382D01*
X-20423Y-2390D01*
X-20422Y-2393D01*
X-20419Y-2399D01*
X-20390Y-2468D01*
X-20283Y-2608D01*
X-20143Y-2715D01*
X-19981Y-2783D01*
X-19928Y-2790D01*
X-19924Y-2791D01*
X-19871Y-2798D01*
X-19868Y-2798D01*
X-19866Y-2798D01*
X-19863Y-2799D01*
X-19852Y-2800D01*
X-19806Y-2806D01*
X-19350D01*
Y-3650D01*
X-19181D01*
Y-3775D01*
X-19156Y-3902D01*
X-19084Y-4009D01*
X-18515Y-4579D01*
X-18531Y-4700D01*
Y-4900D01*
X-18507Y-5083D01*
X-18436Y-5253D01*
X-18324Y-5399D01*
X-18284Y-5430D01*
X-18274Y-5580D01*
X-18334Y-5641D01*
X-18406Y-5748D01*
X-18428Y-5858D01*
X-18550Y-5925D01*
X-19450D01*
Y-6760D01*
X-19475Y-6900D01*
Y-6900D01*
X-19475Y-6900D01*
Y-7300D01*
X-19000D01*
Y-7400D01*
X-18900D01*
Y-7900D01*
X-18550D01*
Y-7900D01*
X-18200D01*
Y-7375D01*
X-18100D01*
Y-7275D01*
X-17650D01*
Y-6850D01*
X-17675D01*
Y-5925D01*
X-17626Y-5870D01*
X-17591Y-5834D01*
X-17519Y-5727D01*
X-17494Y-5600D01*
Y-5520D01*
X-17472Y-5511D01*
X-17326Y-5399D01*
X-17288Y-5350D01*
X-17000D01*
Y-4475D01*
X-16800D01*
Y-5350D01*
X-16500D01*
X-16400Y-5459D01*
Y-5750D01*
X-16320D01*
Y-6700D01*
X-16313Y-6750D01*
X-16445Y-6900D01*
X-17150D01*
Y-7500D01*
X-16400D01*
Y-7700D01*
X-17150D01*
Y-8300D01*
X-17259Y-8400D01*
X-17550D01*
Y-10200D01*
X-16226D01*
Y-12542D01*
X-16821Y-13137D01*
X-16960Y-13080D01*
Y-11500D01*
X-19010D01*
Y-13550D01*
X-17430D01*
X-17373Y-13689D01*
X-19769Y-16085D01*
X-19907Y-16027D01*
Y-14812D01*
X-19928Y-14709D01*
X-19986Y-14622D01*
X-20632Y-13976D01*
X-20719Y-13918D01*
X-20822Y-13897D01*
X-22667D01*
X-22770Y-13918D01*
X-22894Y-13820D01*
X-22905Y-13805D01*
X-23029Y-13722D01*
X-23025Y-13570D01*
X-23017Y-13552D01*
X-22797Y-13524D01*
X-22548Y-13420D01*
X-22334Y-13256D01*
X-22170Y-13042D01*
X-22066Y-12793D01*
X-22031Y-12525D01*
X-22066Y-12257D01*
X-22170Y-12008D01*
X-22334Y-11794D01*
X-22548Y-11630D01*
X-22797Y-11526D01*
X-23065Y-11491D01*
X-23333Y-11526D01*
X-23582Y-11630D01*
X-23796Y-11794D01*
X-23960Y-12008D01*
X-24064Y-12257D01*
X-24099Y-12525D01*
X-24064Y-12793D01*
X-23960Y-13042D01*
X-23882Y-13144D01*
X-23956Y-13294D01*
X-27825D01*
X-27837Y-13296D01*
X-27911Y-13158D01*
X-25709Y-10955D01*
X-23575D01*
X-23468Y-10934D01*
X-23377Y-10873D01*
X-22402Y-9898D01*
X-22341Y-9807D01*
X-22320Y-9700D01*
X-22320Y-9700D01*
Y-6654D01*
X-22276Y-6624D01*
X-22176Y-6476D01*
X-22141Y-6300D01*
X-22169Y-6159D01*
X-22092Y-6104D01*
X-22034Y-6087D01*
X-20798Y-7323D01*
X-20809Y-7375D01*
X-20774Y-7551D01*
X-20674Y-7699D01*
X-20526Y-7799D01*
X-20350Y-7834D01*
X-20174Y-7799D01*
X-20026Y-7699D01*
X-19926Y-7551D01*
X-19891Y-7375D01*
X-19926Y-7199D01*
X-20026Y-7051D01*
X-20174Y-6951D01*
X-20350Y-6916D01*
X-20402Y-6927D01*
X-21570Y-5759D01*
Y-1535D01*
X-21591Y-1428D01*
X-21652Y-1337D01*
X-21652Y-1337D01*
X-22320Y-668D01*
X-22263Y-529D01*
X-21483D01*
X-21478Y-535D01*
D02*
G37*
G36*
X-35864Y-86537D02*
X-35700Y-86751D01*
X-35486Y-86915D01*
X-35236Y-87018D01*
X-34969Y-87054D01*
X-34701Y-87018D01*
X-34452Y-86915D01*
X-34238Y-86751D01*
X-34118Y-86594D01*
X-33968Y-86645D01*
Y-87893D01*
X-34118Y-87944D01*
X-34220Y-87811D01*
X-34439Y-87643D01*
X-34695Y-87537D01*
X-34869Y-87514D01*
Y-88560D01*
Y-89606D01*
X-34695Y-89583D01*
X-34439Y-89477D01*
X-34220Y-89309D01*
X-34118Y-89175D01*
X-33968Y-89226D01*
Y-90269D01*
X-35833Y-92135D01*
X-36082Y-92031D01*
X-36350Y-91996D01*
X-36618Y-92031D01*
X-36867Y-92135D01*
X-37081Y-92299D01*
X-37232Y-92496D01*
X-37291Y-92493D01*
X-37382Y-92454D01*
Y-86987D01*
X-37326Y-86949D01*
X-37226Y-86801D01*
X-37191Y-86625D01*
X-37226Y-86449D01*
X-37234Y-86437D01*
X-37154Y-86287D01*
X-35967D01*
X-35864Y-86537D01*
D02*
G37*
G36*
X-55600Y-87441D02*
Y-99321D01*
X-55600Y-99325D01*
X-55611Y-99471D01*
X-59471D01*
Y-87554D01*
X-59332Y-87496D01*
X-59064Y-87764D01*
X-58977Y-87822D01*
X-58875Y-87843D01*
X-56325D01*
X-56223Y-87822D01*
X-56136Y-87764D01*
X-55750Y-87379D01*
X-55600Y-87441D01*
D02*
G37*
G36*
X-24787Y-920D02*
X-24906Y-1045D01*
X-24925Y-1041D01*
X-25101Y-1076D01*
X-25249Y-1176D01*
X-25349Y-1324D01*
X-25384Y-1500D01*
X-25349Y-1676D01*
X-25249Y-1824D01*
X-25101Y-1924D01*
X-24925Y-1959D01*
X-24825Y-1939D01*
X-24675Y-2041D01*
Y-3450D01*
X-24268D01*
Y-6350D01*
X-24675D01*
Y-8950D01*
X-24268D01*
Y-9250D01*
X-24425D01*
Y-9250D01*
X-24475D01*
Y-9250D01*
X-25425D01*
X-25425Y-9250D01*
X-25500Y-9225D01*
X-25500Y-9225D01*
X-25565Y-9225D01*
X-26575D01*
Y-9200D01*
X-27125D01*
Y-9700D01*
Y-10200D01*
X-26591D01*
X-26518Y-10289D01*
X-26504Y-10325D01*
X-29347Y-13168D01*
X-29515Y-13134D01*
X-29533Y-13107D01*
X-29516Y-13025D01*
X-29551Y-12849D01*
X-29651Y-12701D01*
X-29707Y-12663D01*
Y-12625D01*
X-29728Y-12523D01*
X-29786Y-12436D01*
X-30511Y-11711D01*
X-30598Y-11653D01*
X-30700Y-11632D01*
X-31275D01*
Y-11125D01*
X-32825D01*
Y-12675D01*
X-31275D01*
Y-12168D01*
X-30811D01*
X-30298Y-12681D01*
X-30299Y-12701D01*
X-30399Y-12849D01*
X-30434Y-13025D01*
X-30417Y-13107D01*
X-30528Y-13257D01*
X-33103D01*
X-33205Y-13278D01*
X-33292Y-13336D01*
X-33411Y-13455D01*
X-33596D01*
X-33707Y-13305D01*
X-33691Y-13225D01*
X-33726Y-13049D01*
X-33826Y-12901D01*
X-33870Y-12871D01*
Y-12675D01*
X-33375D01*
Y-11125D01*
X-33971D01*
X-34051Y-10976D01*
X-34016Y-10800D01*
X-34030Y-10733D01*
X-33464Y-10168D01*
X-32775D01*
Y-10400D01*
X-31625D01*
Y-10400D01*
X-31575D01*
Y-10400D01*
X-30425D01*
Y-9400D01*
X-30720D01*
Y-8950D01*
X-30325D01*
Y-6350D01*
X-30720D01*
Y-3450D01*
X-30325D01*
Y-2066D01*
X-30175Y-1964D01*
X-30075Y-1984D01*
X-29899Y-1949D01*
X-29751Y-1849D01*
X-29651Y-1701D01*
X-29616Y-1525D01*
X-29651Y-1349D01*
X-29751Y-1201D01*
X-29899Y-1101D01*
X-30075Y-1066D01*
X-30154Y-1082D01*
X-30269Y-982D01*
X-30233Y-865D01*
X-28700D01*
Y-2050D01*
X-27300D01*
Y-865D01*
X-24804D01*
X-24787Y-920D01*
D02*
G37*
%LPC*%
G36*
X-18670Y-94524D02*
X-18844Y-94547D01*
X-19100Y-94653D01*
X-19319Y-94821D01*
X-19487Y-95040D01*
X-19593Y-95296D01*
X-19616Y-95470D01*
X-18670D01*
Y-94524D01*
D02*
G37*
G36*
X-18470D02*
Y-95470D01*
X-17524D01*
X-17547Y-95296D01*
X-17653Y-95040D01*
X-17821Y-94821D01*
X-18040Y-94653D01*
X-18296Y-94547D01*
X-18470Y-94524D01*
D02*
G37*
G36*
X-26190Y-94536D02*
X-26458Y-94571D01*
X-26707Y-94675D01*
X-26921Y-94839D01*
X-27085Y-95053D01*
X-27189Y-95302D01*
X-27224Y-95570D01*
X-27189Y-95838D01*
X-27085Y-96087D01*
X-26921Y-96301D01*
X-26707Y-96465D01*
X-26458Y-96569D01*
X-26190Y-96604D01*
X-25922Y-96569D01*
X-25673Y-96465D01*
X-25459Y-96301D01*
X-25295Y-96087D01*
X-25191Y-95838D01*
X-25156Y-95570D01*
X-25191Y-95302D01*
X-25295Y-95053D01*
X-25459Y-94839D01*
X-25673Y-94675D01*
X-25922Y-94571D01*
X-26190Y-94536D01*
D02*
G37*
G36*
X-41250Y-57200D02*
X-41650D01*
Y-57750D01*
X-41250D01*
Y-57200D01*
D02*
G37*
G36*
X-17524Y-95670D02*
X-18470D01*
Y-96616D01*
X-18296Y-96593D01*
X-18040Y-96487D01*
X-17821Y-96319D01*
X-17653Y-96100D01*
X-17547Y-95844D01*
X-17524Y-95670D01*
D02*
G37*
G36*
X-28730Y-94536D02*
X-28998Y-94571D01*
X-29247Y-94675D01*
X-29461Y-94839D01*
X-29625Y-95053D01*
X-29729Y-95302D01*
X-29764Y-95570D01*
X-29729Y-95838D01*
X-29625Y-96087D01*
X-29461Y-96301D01*
X-29247Y-96465D01*
X-28998Y-96569D01*
X-28730Y-96604D01*
X-28462Y-96569D01*
X-28213Y-96465D01*
X-27999Y-96301D01*
X-27835Y-96087D01*
X-27731Y-95838D01*
X-27696Y-95570D01*
X-27731Y-95302D01*
X-27835Y-95053D01*
X-27999Y-94839D01*
X-28213Y-94675D01*
X-28462Y-94571D01*
X-28730Y-94536D01*
D02*
G37*
G36*
X-43260Y-59600D02*
X-44206D01*
X-44183Y-59774D01*
X-44077Y-60030D01*
X-43909Y-60249D01*
X-43690Y-60417D01*
X-43434Y-60523D01*
X-43260Y-60546D01*
Y-59600D01*
D02*
G37*
G36*
X-40625Y-60625D02*
X-41025D01*
Y-61175D01*
X-40625D01*
Y-60625D01*
D02*
G37*
G36*
X-41225D02*
X-41625D01*
Y-61175D01*
X-41225D01*
Y-60625D01*
D02*
G37*
G36*
X-42114Y-59600D02*
X-43060D01*
Y-60546D01*
X-42886Y-60523D01*
X-42630Y-60417D01*
X-42411Y-60249D01*
X-42243Y-60030D01*
X-42137Y-59774D01*
X-42114Y-59600D01*
D02*
G37*
G36*
X-41530Y-93130D02*
X-42476D01*
X-42453Y-93304D01*
X-42347Y-93560D01*
X-42179Y-93779D01*
X-41960Y-93947D01*
X-41704Y-94053D01*
X-41530Y-94076D01*
Y-93130D01*
D02*
G37*
G36*
X-26190Y-91996D02*
X-26458Y-92031D01*
X-26707Y-92135D01*
X-26921Y-92299D01*
X-27085Y-92513D01*
X-27189Y-92762D01*
X-27224Y-93030D01*
X-27189Y-93298D01*
X-27085Y-93547D01*
X-26921Y-93761D01*
X-26707Y-93925D01*
X-26458Y-94029D01*
X-26190Y-94064D01*
X-25922Y-94029D01*
X-25673Y-93925D01*
X-25459Y-93761D01*
X-25295Y-93547D01*
X-25191Y-93298D01*
X-25156Y-93030D01*
X-25191Y-92762D01*
X-25295Y-92513D01*
X-25459Y-92299D01*
X-25673Y-92135D01*
X-25922Y-92031D01*
X-26190Y-91996D01*
D02*
G37*
G36*
X-6970Y-48016D02*
X-7238Y-48051D01*
X-7487Y-48155D01*
X-7701Y-48319D01*
X-7865Y-48533D01*
X-7969Y-48782D01*
X-8004Y-49050D01*
X-7969Y-49318D01*
X-7865Y-49567D01*
X-7701Y-49781D01*
X-7487Y-49945D01*
X-7238Y-50049D01*
X-6970Y-50084D01*
X-6702Y-50049D01*
X-6453Y-49945D01*
X-6239Y-49781D01*
X-6075Y-49567D01*
X-5971Y-49318D01*
X-5936Y-49050D01*
X-5971Y-48782D01*
X-6075Y-48533D01*
X-6239Y-48319D01*
X-6453Y-48155D01*
X-6702Y-48051D01*
X-6970Y-48016D01*
D02*
G37*
G36*
X-18670Y-95670D02*
X-19616D01*
X-19593Y-95844D01*
X-19487Y-96100D01*
X-19319Y-96319D01*
X-19100Y-96487D01*
X-18844Y-96593D01*
X-18670Y-96616D01*
Y-95670D01*
D02*
G37*
G36*
X-38275Y-51575D02*
X-38675D01*
Y-52125D01*
X-38275D01*
Y-51575D01*
D02*
G37*
G36*
X-7070Y-51690D02*
X-8016D01*
X-7993Y-51864D01*
X-7887Y-52120D01*
X-7719Y-52339D01*
X-7500Y-52507D01*
X-7244Y-52613D01*
X-7070Y-52636D01*
Y-51690D01*
D02*
G37*
G36*
X-38275Y-52625D02*
X-38675D01*
Y-53175D01*
X-38275D01*
Y-52625D01*
D02*
G37*
G36*
X-38875Y-51575D02*
X-39275D01*
Y-52125D01*
X-38875D01*
Y-51575D01*
D02*
G37*
G36*
X-4430Y-50556D02*
X-4698Y-50591D01*
X-4947Y-50695D01*
X-5161Y-50859D01*
X-5325Y-51073D01*
X-5429Y-51322D01*
X-5464Y-51590D01*
X-5429Y-51858D01*
X-5325Y-52107D01*
X-5161Y-52321D01*
X-4947Y-52485D01*
X-4698Y-52589D01*
X-4430Y-52624D01*
X-4162Y-52589D01*
X-3913Y-52485D01*
X-3699Y-52321D01*
X-3535Y-52107D01*
X-3431Y-51858D01*
X-3396Y-51590D01*
X-3431Y-51322D01*
X-3535Y-51073D01*
X-3699Y-50859D01*
X-3913Y-50695D01*
X-4162Y-50591D01*
X-4430Y-50556D01*
D02*
G37*
G36*
X-5924Y-51690D02*
X-6870D01*
Y-52636D01*
X-6696Y-52613D01*
X-6440Y-52507D01*
X-6221Y-52339D01*
X-6053Y-52120D01*
X-5947Y-51864D01*
X-5924Y-51690D01*
D02*
G37*
G36*
X-38875Y-52625D02*
X-39275D01*
Y-53175D01*
X-38875D01*
Y-52625D01*
D02*
G37*
G36*
X-45275Y-49975D02*
X-46625D01*
Y-51575D01*
X-45275D01*
Y-49975D01*
D02*
G37*
G36*
X-7070Y-50544D02*
X-7244Y-50567D01*
X-7500Y-50673D01*
X-7719Y-50841D01*
X-7887Y-51060D01*
X-7993Y-51316D01*
X-8016Y-51490D01*
X-7070D01*
Y-50544D01*
D02*
G37*
G36*
X-6870D02*
Y-51490D01*
X-5924D01*
X-5947Y-51316D01*
X-6053Y-51060D01*
X-6221Y-50841D01*
X-6440Y-50673D01*
X-6696Y-50567D01*
X-6870Y-50544D01*
D02*
G37*
G36*
X-45275Y-51775D02*
X-46625D01*
Y-53375D01*
X-45275D01*
Y-51775D01*
D02*
G37*
G36*
X-46825D02*
X-48175D01*
Y-53375D01*
X-46825D01*
Y-51775D01*
D02*
G37*
G36*
Y-49975D02*
X-48175D01*
Y-51575D01*
X-46825D01*
Y-49975D01*
D02*
G37*
G36*
X-57878Y-64510D02*
X-58828D01*
Y-65460D01*
X-57878D01*
Y-64510D01*
D02*
G37*
G36*
X-56728D02*
X-57678D01*
Y-65460D01*
X-56728D01*
Y-64510D01*
D02*
G37*
G36*
X-30350Y-65100D02*
X-30900D01*
Y-65500D01*
X-30350D01*
Y-65100D01*
D02*
G37*
G36*
X-26800Y-69500D02*
X-27475D01*
Y-70300D01*
X-26800D01*
Y-69500D01*
D02*
G37*
G36*
X-4530Y-64390D02*
X-5476D01*
X-5453Y-64564D01*
X-5347Y-64820D01*
X-5179Y-65039D01*
X-4960Y-65207D01*
X-4704Y-65313D01*
X-4530Y-65336D01*
Y-64390D01*
D02*
G37*
G36*
X-34225Y-70795D02*
X-36775D01*
Y-71745D01*
X-34225D01*
Y-70795D01*
D02*
G37*
G36*
X-39775Y-70625D02*
X-40325D01*
Y-71025D01*
X-39775D01*
Y-70625D01*
D02*
G37*
G36*
Y-71225D02*
X-40325D01*
Y-71625D01*
X-39775D01*
Y-71225D01*
D02*
G37*
G36*
X-57878Y-65660D02*
X-58828D01*
Y-66610D01*
X-57878D01*
Y-65660D01*
D02*
G37*
G36*
X-56728D02*
X-57678D01*
Y-66610D01*
X-56728D01*
Y-65660D01*
D02*
G37*
G36*
X-56753Y-67075D02*
X-58803D01*
Y-69125D01*
X-56753D01*
Y-67075D01*
D02*
G37*
G36*
X-24325Y-67300D02*
X-25000D01*
Y-68100D01*
X-24325D01*
Y-67300D01*
D02*
G37*
G36*
X-32575Y-69800D02*
X-33125D01*
Y-70200D01*
X-32575D01*
Y-69800D01*
D02*
G37*
G36*
X-24950Y-65200D02*
X-25500D01*
Y-65600D01*
X-24950D01*
Y-65200D01*
D02*
G37*
G36*
X-32575Y-69200D02*
X-33125D01*
Y-69600D01*
X-32575D01*
Y-69200D01*
D02*
G37*
G36*
X-30350Y-65700D02*
X-30900D01*
Y-66100D01*
X-30350D01*
Y-65700D01*
D02*
G37*
G36*
X-41530Y-91984D02*
X-41704Y-92007D01*
X-41960Y-92113D01*
X-42179Y-92281D01*
X-42347Y-92500D01*
X-42453Y-92756D01*
X-42476Y-92930D01*
X-41530D01*
Y-91984D01*
D02*
G37*
G36*
X-48240Y-55926D02*
X-48508Y-55961D01*
X-48757Y-56065D01*
X-48971Y-56229D01*
X-49135Y-56443D01*
X-49239Y-56692D01*
X-49274Y-56960D01*
X-49239Y-57228D01*
X-49135Y-57477D01*
X-48971Y-57691D01*
X-48757Y-57855D01*
X-48520Y-57953D01*
Y-58475D01*
X-49265D01*
Y-60525D01*
X-48520D01*
Y-62500D01*
X-48775D01*
Y-62745D01*
X-50050D01*
Y-62550D01*
X-50025D01*
Y-62000D01*
X-51025D01*
Y-62550D01*
X-51000D01*
Y-63625D01*
X-50050D01*
Y-63305D01*
X-48775D01*
Y-63550D01*
X-47725D01*
Y-62500D01*
X-47960D01*
Y-60525D01*
X-47215D01*
Y-58475D01*
X-47960D01*
Y-57953D01*
X-47723Y-57855D01*
X-47509Y-57691D01*
X-47345Y-57477D01*
X-47241Y-57228D01*
X-47206Y-56960D01*
X-47241Y-56692D01*
X-47345Y-56443D01*
X-47509Y-56229D01*
X-47723Y-56065D01*
X-47972Y-55961D01*
X-48240Y-55926D01*
D02*
G37*
G36*
X-35069Y-87514D02*
X-35243Y-87537D01*
X-35498Y-87643D01*
X-35718Y-87811D01*
X-35886Y-88030D01*
X-35992Y-88286D01*
X-36015Y-88460D01*
X-35069D01*
Y-87514D01*
D02*
G37*
G36*
Y-88660D02*
X-36015D01*
X-35992Y-88834D01*
X-35886Y-89089D01*
X-35718Y-89309D01*
X-35498Y-89477D01*
X-35243Y-89583D01*
X-35069Y-89606D01*
Y-88660D01*
D02*
G37*
G36*
X-50025Y-61250D02*
X-50425D01*
Y-61800D01*
X-50025D01*
Y-61250D01*
D02*
G37*
G36*
X-23650Y-91996D02*
X-23918Y-92031D01*
X-24167Y-92135D01*
X-24381Y-92299D01*
X-24545Y-92513D01*
X-24649Y-92762D01*
X-24684Y-93030D01*
X-24649Y-93298D01*
X-24545Y-93547D01*
X-24381Y-93761D01*
X-24167Y-93925D01*
X-23918Y-94029D01*
X-23650Y-94064D01*
X-23382Y-94029D01*
X-23133Y-93925D01*
X-22919Y-93761D01*
X-22755Y-93547D01*
X-22651Y-93298D01*
X-22616Y-93030D01*
X-22651Y-92762D01*
X-22755Y-92513D01*
X-22919Y-92299D01*
X-23133Y-92135D01*
X-23382Y-92031D01*
X-23650Y-91996D01*
D02*
G37*
G36*
X-17545Y-92005D02*
X-19595D01*
Y-94055D01*
X-17545D01*
Y-92005D01*
D02*
G37*
G36*
X-50625Y-61250D02*
X-51025D01*
Y-61800D01*
X-50625D01*
Y-61250D01*
D02*
G37*
G36*
X-35600Y-75180D02*
X-36800D01*
Y-75580D01*
X-35600D01*
Y-75180D01*
D02*
G37*
G36*
X-8493Y-63011D02*
X-10543D01*
Y-63768D01*
X-16711D01*
X-16813Y-63789D01*
X-16900Y-63847D01*
X-17208Y-64155D01*
X-17275Y-64141D01*
X-17451Y-64176D01*
X-17599Y-64276D01*
X-17699Y-64424D01*
X-17734Y-64600D01*
X-17699Y-64776D01*
X-17599Y-64924D01*
X-17451Y-65024D01*
X-17275Y-65059D01*
X-17099Y-65024D01*
X-16951Y-64924D01*
X-16851Y-64776D01*
X-16816Y-64600D01*
X-16830Y-64533D01*
X-16600Y-64304D01*
X-10543D01*
Y-65061D01*
X-8493D01*
Y-63011D01*
D02*
G37*
G36*
X-4530Y-63244D02*
X-4704Y-63267D01*
X-4960Y-63373D01*
X-5179Y-63541D01*
X-5347Y-63760D01*
X-5453Y-64016D01*
X-5476Y-64190D01*
X-4530D01*
Y-63244D01*
D02*
G37*
G36*
X-34200Y-75180D02*
X-35400D01*
Y-75580D01*
X-34200D01*
Y-75180D01*
D02*
G37*
G36*
X-56728Y-63120D02*
X-57678D01*
Y-64070D01*
X-56728D01*
Y-63120D01*
D02*
G37*
G36*
X-46325Y-62500D02*
X-47375D01*
Y-63550D01*
X-46325D01*
Y-63330D01*
X-41029D01*
X-40999Y-63374D01*
X-40851Y-63474D01*
X-40675Y-63509D01*
X-40499Y-63474D01*
X-40351Y-63374D01*
X-40251Y-63226D01*
X-40216Y-63050D01*
X-40251Y-62874D01*
X-40351Y-62726D01*
X-40499Y-62626D01*
X-40675Y-62591D01*
X-40851Y-62626D01*
X-40999Y-62726D01*
X-41029Y-62770D01*
X-46325D01*
Y-62500D01*
D02*
G37*
G36*
X-57878Y-63120D02*
X-58828D01*
Y-64070D01*
X-57878D01*
Y-63120D01*
D02*
G37*
G36*
X-7070Y-87250D02*
X-8016D01*
X-7993Y-87424D01*
X-7887Y-87680D01*
X-7719Y-87899D01*
X-7500Y-88067D01*
X-7244Y-88173D01*
X-7070Y-88196D01*
Y-87250D01*
D02*
G37*
G36*
X-4550Y-9341D02*
X-4726Y-9376D01*
X-4874Y-9476D01*
X-4974Y-9624D01*
X-5009Y-9800D01*
X-4974Y-9976D01*
X-4874Y-10124D01*
X-4726Y-10224D01*
X-4550Y-10259D01*
X-4374Y-10224D01*
X-4226Y-10124D01*
X-4126Y-9976D01*
X-4091Y-9800D01*
X-4126Y-9624D01*
X-4226Y-9476D01*
X-4374Y-9376D01*
X-4550Y-9341D01*
D02*
G37*
G36*
X-27325Y-9800D02*
X-27875D01*
Y-10200D01*
X-27325D01*
Y-9800D01*
D02*
G37*
G36*
X-4330Y-12444D02*
Y-13390D01*
X-3384D01*
X-3407Y-13216D01*
X-3513Y-12960D01*
X-3681Y-12741D01*
X-3900Y-12573D01*
X-4156Y-12467D01*
X-4330Y-12444D01*
D02*
G37*
G36*
X-40245Y-9925D02*
X-42295D01*
Y-11975D01*
X-40245D01*
Y-9925D01*
D02*
G37*
G36*
X-34300Y-7750D02*
X-34900D01*
Y-8975D01*
X-34300D01*
Y-7750D01*
D02*
G37*
G36*
X-28100D02*
X-28700D01*
Y-8975D01*
X-28100D01*
Y-7750D01*
D02*
G37*
G36*
X-12150Y-9675D02*
X-12500D01*
Y-10100D01*
X-12150D01*
Y-9675D01*
D02*
G37*
G36*
X-27325Y-9200D02*
X-27875D01*
Y-9600D01*
X-27325D01*
Y-9200D01*
D02*
G37*
G36*
X-49500Y-17020D02*
X-50350D01*
Y-17795D01*
X-49500D01*
Y-17020D01*
D02*
G37*
G36*
X-46075Y-16395D02*
X-46625D01*
Y-16795D01*
X-46075D01*
Y-16395D01*
D02*
G37*
G36*
X-33900Y-19541D02*
X-34076Y-19576D01*
X-34224Y-19676D01*
X-34324Y-19824D01*
X-34359Y-20000D01*
X-34324Y-20176D01*
X-34224Y-20324D01*
X-34076Y-20424D01*
X-33900Y-20459D01*
X-33724Y-20424D01*
X-33576Y-20324D01*
X-33476Y-20176D01*
X-33441Y-20000D01*
X-33476Y-19824D01*
X-33576Y-19676D01*
X-33724Y-19576D01*
X-33900Y-19541D01*
D02*
G37*
G36*
X-42975Y-19370D02*
X-43375D01*
Y-19920D01*
X-42975D01*
Y-19370D01*
D02*
G37*
G36*
X-20525Y-11491D02*
X-20793Y-11526D01*
X-21042Y-11630D01*
X-21256Y-11794D01*
X-21420Y-12008D01*
X-21524Y-12257D01*
X-21559Y-12525D01*
X-21524Y-12793D01*
X-21420Y-13042D01*
X-21256Y-13256D01*
X-21042Y-13420D01*
X-20793Y-13524D01*
X-20525Y-13559D01*
X-20257Y-13524D01*
X-20008Y-13420D01*
X-19794Y-13256D01*
X-19630Y-13042D01*
X-19526Y-12793D01*
X-19491Y-12525D01*
X-19526Y-12257D01*
X-19630Y-12008D01*
X-19794Y-11794D01*
X-20008Y-11630D01*
X-20257Y-11526D01*
X-20525Y-11491D01*
D02*
G37*
G36*
X-4530Y-12444D02*
X-4704Y-12467D01*
X-4960Y-12573D01*
X-5179Y-12741D01*
X-5347Y-12960D01*
X-5453Y-13216D01*
X-5476Y-13390D01*
X-4530D01*
Y-12444D01*
D02*
G37*
G36*
X-46075Y-15795D02*
X-46625D01*
Y-16195D01*
X-46075D01*
Y-15795D01*
D02*
G37*
G36*
X-47000Y-14395D02*
X-47400D01*
Y-14945D01*
X-47000D01*
Y-14395D01*
D02*
G37*
G36*
X-27300Y-7750D02*
X-27900D01*
Y-8975D01*
X-27300D01*
Y-7750D01*
D02*
G37*
G36*
Y-6325D02*
X-27900D01*
Y-7550D01*
X-27300D01*
Y-6325D01*
D02*
G37*
G36*
X-32390Y-6406D02*
X-32566Y-6441D01*
X-32714Y-6541D01*
X-32814Y-6689D01*
X-32849Y-6865D01*
X-32814Y-7041D01*
X-32714Y-7189D01*
X-32566Y-7289D01*
X-32390Y-7324D01*
X-32214Y-7289D01*
X-32066Y-7189D01*
X-31966Y-7041D01*
X-31931Y-6865D01*
X-31966Y-6689D01*
X-32066Y-6541D01*
X-32214Y-6441D01*
X-32390Y-6406D01*
D02*
G37*
G36*
X-34300Y-6325D02*
X-34900D01*
Y-7550D01*
X-34300D01*
Y-6325D01*
D02*
G37*
G36*
X-28100D02*
X-28700D01*
Y-7550D01*
X-28100D01*
Y-6325D01*
D02*
G37*
G36*
Y-2250D02*
X-28700D01*
Y-3475D01*
X-28100D01*
Y-2250D01*
D02*
G37*
G36*
X-27300D02*
X-27900D01*
Y-3475D01*
X-27300D01*
Y-2250D01*
D02*
G37*
G36*
X-35100D02*
X-35700D01*
Y-3475D01*
X-35100D01*
Y-2250D01*
D02*
G37*
G36*
X-34300D02*
X-34900D01*
Y-3475D01*
X-34300D01*
Y-2250D01*
D02*
G37*
G36*
X-35100Y-7750D02*
X-35700D01*
Y-8058D01*
X-35850Y-8138D01*
X-35887Y-8114D01*
X-36062Y-8079D01*
X-36238Y-8114D01*
X-36387Y-8213D01*
X-36486Y-8362D01*
X-36521Y-8538D01*
X-36486Y-8713D01*
X-36387Y-8862D01*
X-36238Y-8961D01*
X-36062Y-8996D01*
X-35887Y-8961D01*
X-35850Y-8937D01*
X-35700Y-8975D01*
Y-8975D01*
X-35700Y-8975D01*
X-35100D01*
Y-7750D01*
D02*
G37*
G36*
X-33290Y-7206D02*
X-33466Y-7241D01*
X-33614Y-7341D01*
X-33714Y-7489D01*
X-33749Y-7665D01*
X-33714Y-7841D01*
X-33614Y-7989D01*
X-33466Y-8089D01*
X-33290Y-8124D01*
X-33114Y-8089D01*
X-32966Y-7989D01*
X-32866Y-7841D01*
X-32831Y-7665D01*
X-32866Y-7489D01*
X-32966Y-7341D01*
X-33114Y-7241D01*
X-33290Y-7206D01*
D02*
G37*
G36*
X-32390Y-8006D02*
X-32566Y-8041D01*
X-32714Y-8141D01*
X-32814Y-8289D01*
X-32849Y-8465D01*
X-32814Y-8641D01*
X-32714Y-8789D01*
X-32566Y-8889D01*
X-32390Y-8924D01*
X-32214Y-8889D01*
X-32066Y-8789D01*
X-31966Y-8641D01*
X-31931Y-8465D01*
X-31966Y-8289D01*
X-32066Y-8141D01*
X-32214Y-8041D01*
X-32390Y-8006D01*
D02*
G37*
G36*
X-7975Y-2775D02*
X-9525D01*
Y-4325D01*
X-8354D01*
X-5868Y-6811D01*
Y-8392D01*
X-6018Y-8437D01*
X-6026Y-8426D01*
X-6174Y-8326D01*
X-6350Y-8291D01*
X-6526Y-8326D01*
X-6674Y-8426D01*
X-6712Y-8482D01*
X-7900D01*
X-8002Y-8503D01*
X-8089Y-8561D01*
X-15014Y-15486D01*
X-15072Y-15573D01*
X-15093Y-15675D01*
Y-15963D01*
X-15149Y-16001D01*
X-15249Y-16149D01*
X-15284Y-16325D01*
X-15249Y-16501D01*
X-15149Y-16649D01*
X-15001Y-16749D01*
X-14825Y-16784D01*
X-14649Y-16749D01*
X-14501Y-16649D01*
X-14401Y-16501D01*
X-14366Y-16325D01*
X-14401Y-16149D01*
X-14501Y-16001D01*
X-14557Y-15963D01*
Y-15786D01*
X-13085Y-14313D01*
X-12907Y-14348D01*
X-12849Y-14434D01*
X-12701Y-14534D01*
X-12525Y-14569D01*
X-12458Y-14555D01*
X-11369Y-15644D01*
X-11282Y-15702D01*
X-11180Y-15723D01*
X-10184D01*
X-10149Y-15774D01*
X-10001Y-15874D01*
X-9825Y-15909D01*
X-9649Y-15874D01*
X-9501Y-15774D01*
X-9401Y-15626D01*
X-9366Y-15450D01*
X-9401Y-15274D01*
X-9501Y-15126D01*
X-9649Y-15026D01*
X-9825Y-14991D01*
X-10001Y-15026D01*
X-10149Y-15126D01*
X-10191Y-15187D01*
X-11069D01*
X-12080Y-14177D01*
X-12066Y-14110D01*
X-12101Y-13934D01*
X-12201Y-13786D01*
X-12287Y-13728D01*
X-12322Y-13550D01*
X-7789Y-9018D01*
X-6712D01*
X-6674Y-9074D01*
X-6526Y-9174D01*
X-6350Y-9209D01*
X-6174Y-9174D01*
X-6106Y-9128D01*
X-5938Y-9193D01*
X-5926Y-9247D01*
X-6283Y-9605D01*
X-6350Y-9591D01*
X-6526Y-9626D01*
X-6674Y-9726D01*
X-6774Y-9874D01*
X-6809Y-10050D01*
X-6774Y-10226D01*
X-6674Y-10374D01*
X-6526Y-10474D01*
X-6350Y-10509D01*
X-6174Y-10474D01*
X-6026Y-10374D01*
X-5926Y-10226D01*
X-5891Y-10050D01*
X-5905Y-9983D01*
X-5411Y-9489D01*
X-5353Y-9402D01*
X-5332Y-9300D01*
Y-6700D01*
X-5353Y-6598D01*
X-5411Y-6511D01*
X-7975Y-3946D01*
Y-2775D01*
D02*
G37*
G36*
X-5725D02*
X-7275D01*
Y-4325D01*
X-6104D01*
X-2989Y-7439D01*
X-2902Y-7497D01*
X-2800Y-7518D01*
X-1562D01*
X-1524Y-7574D01*
X-1376Y-7674D01*
X-1200Y-7709D01*
X-1024Y-7674D01*
X-876Y-7574D01*
X-776Y-7426D01*
X-741Y-7250D01*
X-776Y-7074D01*
X-876Y-6926D01*
X-1024Y-6826D01*
X-1200Y-6791D01*
X-1376Y-6826D01*
X-1524Y-6926D01*
X-1562Y-6982D01*
X-2689D01*
X-5725Y-3946D01*
Y-2775D01*
D02*
G37*
G36*
X-35100Y-6325D02*
X-35700D01*
Y-7550D01*
X-35100D01*
Y-6325D01*
D02*
G37*
G36*
X-17650Y-7475D02*
X-18000D01*
Y-7900D01*
X-17650D01*
Y-7475D01*
D02*
G37*
G36*
X-19100Y-7500D02*
X-19475D01*
Y-7900D01*
X-19100D01*
Y-7500D01*
D02*
G37*
G36*
X-7630Y-20587D02*
X-7719Y-20599D01*
X-7896Y-20672D01*
X-8047Y-20788D01*
X-8163Y-20939D01*
X-8236Y-21116D01*
X-8248Y-21205D01*
X-7630D01*
Y-20587D01*
D02*
G37*
G36*
X-55825Y-43494D02*
Y-44440D01*
X-54879D01*
X-54902Y-44266D01*
X-55008Y-44010D01*
X-55176Y-43791D01*
X-55395Y-43623D01*
X-55651Y-43517D01*
X-55825Y-43494D01*
D02*
G37*
G36*
X-51300Y-39931D02*
X-51568Y-39966D01*
X-51817Y-40070D01*
X-52031Y-40234D01*
X-52195Y-40448D01*
X-52299Y-40697D01*
X-52334Y-40965D01*
X-52299Y-41233D01*
X-52195Y-41482D01*
X-52031Y-41696D01*
X-51817Y-41860D01*
X-51568Y-41964D01*
X-51300Y-41999D01*
X-51032Y-41964D01*
X-50783Y-41860D01*
X-50569Y-41696D01*
X-50405Y-41482D01*
X-50301Y-41233D01*
X-50266Y-40965D01*
X-50301Y-40697D01*
X-50405Y-40448D01*
X-50569Y-40234D01*
X-50783Y-40070D01*
X-51032Y-39966D01*
X-51300Y-39931D01*
D02*
G37*
G36*
X-54879Y-44640D02*
X-55825D01*
Y-45586D01*
X-55651Y-45563D01*
X-55395Y-45457D01*
X-55176Y-45289D01*
X-55008Y-45070D01*
X-54902Y-44814D01*
X-54879Y-44640D01*
D02*
G37*
G36*
X-56025Y-43494D02*
X-56199Y-43517D01*
X-56455Y-43623D01*
X-56674Y-43791D01*
X-56842Y-44010D01*
X-56948Y-44266D01*
X-56971Y-44440D01*
X-56025D01*
Y-43494D01*
D02*
G37*
G36*
X-45500Y-37720D02*
X-46950D01*
Y-38445D01*
X-45500D01*
Y-37720D01*
D02*
G37*
G36*
X-4430Y-35316D02*
X-4698Y-35351D01*
X-4947Y-35455D01*
X-5161Y-35619D01*
X-5325Y-35833D01*
X-5429Y-36082D01*
X-5464Y-36350D01*
X-5429Y-36618D01*
X-5325Y-36867D01*
X-5161Y-37081D01*
X-4947Y-37245D01*
X-4698Y-37349D01*
X-4430Y-37384D01*
X-4162Y-37349D01*
X-3913Y-37245D01*
X-3699Y-37081D01*
X-3535Y-36867D01*
X-3431Y-36618D01*
X-3396Y-36350D01*
X-3431Y-36082D01*
X-3535Y-35833D01*
X-3699Y-35619D01*
X-3913Y-35455D01*
X-4162Y-35351D01*
X-4430Y-35316D01*
D02*
G37*
G36*
Y-37856D02*
X-4698Y-37891D01*
X-4947Y-37995D01*
X-5161Y-38159D01*
X-5325Y-38373D01*
X-5429Y-38622D01*
X-5464Y-38890D01*
X-5429Y-39158D01*
X-5325Y-39407D01*
X-5161Y-39621D01*
X-4947Y-39785D01*
X-4698Y-39889D01*
X-4430Y-39924D01*
X-4162Y-39889D01*
X-3913Y-39785D01*
X-3699Y-39621D01*
X-3535Y-39407D01*
X-3431Y-39158D01*
X-3396Y-38890D01*
X-3431Y-38622D01*
X-3535Y-38373D01*
X-3699Y-38159D01*
X-3913Y-37995D01*
X-4162Y-37891D01*
X-4430Y-37856D01*
D02*
G37*
G36*
X-45400Y-39316D02*
X-45576Y-39351D01*
X-45724Y-39451D01*
X-45762Y-39507D01*
X-47188D01*
X-47226Y-39451D01*
X-47374Y-39351D01*
X-47550Y-39316D01*
X-47726Y-39351D01*
X-47874Y-39451D01*
X-47974Y-39599D01*
X-48009Y-39775D01*
X-47974Y-39951D01*
X-47874Y-40099D01*
X-47726Y-40199D01*
X-47550Y-40234D01*
X-47374Y-40199D01*
X-47226Y-40099D01*
X-47188Y-40043D01*
X-45762D01*
X-45724Y-40099D01*
X-45576Y-40199D01*
X-45400Y-40234D01*
X-45224Y-40199D01*
X-45076Y-40099D01*
X-44976Y-39951D01*
X-44941Y-39775D01*
X-44976Y-39599D01*
X-45076Y-39451D01*
X-45224Y-39351D01*
X-45400Y-39316D01*
D02*
G37*
G36*
X-8468Y-48896D02*
X-9418D01*
Y-49846D01*
X-8468D01*
Y-48896D01*
D02*
G37*
G36*
X-9618Y-47746D02*
X-10568D01*
Y-48696D01*
X-9618D01*
Y-47746D01*
D02*
G37*
G36*
X-4430Y-48016D02*
X-4698Y-48051D01*
X-4947Y-48155D01*
X-5161Y-48319D01*
X-5325Y-48533D01*
X-5429Y-48782D01*
X-5464Y-49050D01*
X-5429Y-49318D01*
X-5325Y-49567D01*
X-5161Y-49781D01*
X-4947Y-49945D01*
X-4698Y-50049D01*
X-4430Y-50084D01*
X-4162Y-50049D01*
X-3913Y-49945D01*
X-3699Y-49781D01*
X-3535Y-49567D01*
X-3431Y-49318D01*
X-3396Y-49050D01*
X-3431Y-48782D01*
X-3535Y-48533D01*
X-3699Y-48319D01*
X-3913Y-48155D01*
X-4162Y-48051D01*
X-4430Y-48016D01*
D02*
G37*
G36*
X-9618Y-48896D02*
X-10568D01*
Y-49846D01*
X-9618D01*
Y-48896D01*
D02*
G37*
G36*
X-8493Y-45231D02*
X-10543D01*
Y-45957D01*
X-12913D01*
X-12951Y-45901D01*
X-13099Y-45801D01*
X-13275Y-45766D01*
X-13451Y-45801D01*
X-13599Y-45901D01*
X-13699Y-46049D01*
X-13734Y-46225D01*
X-13699Y-46401D01*
X-13599Y-46549D01*
X-13451Y-46649D01*
X-13275Y-46684D01*
X-13099Y-46649D01*
X-12951Y-46549D01*
X-12913Y-46493D01*
X-10543D01*
Y-47281D01*
X-8493D01*
Y-45231D01*
D02*
G37*
G36*
X-56025Y-44640D02*
X-56971D01*
X-56948Y-44814D01*
X-56842Y-45070D01*
X-56674Y-45289D01*
X-56455Y-45457D01*
X-56199Y-45563D01*
X-56025Y-45586D01*
Y-44640D01*
D02*
G37*
G36*
X-8468Y-47746D02*
X-9418D01*
Y-48696D01*
X-8468D01*
Y-47746D01*
D02*
G37*
G36*
X-6970Y-45476D02*
X-7238Y-45511D01*
X-7487Y-45615D01*
X-7701Y-45779D01*
X-7865Y-45993D01*
X-7969Y-46242D01*
X-8004Y-46510D01*
X-7969Y-46778D01*
X-7865Y-47027D01*
X-7701Y-47241D01*
X-7487Y-47405D01*
X-7238Y-47509D01*
X-6970Y-47544D01*
X-6702Y-47509D01*
X-6453Y-47405D01*
X-6239Y-47241D01*
X-6075Y-47027D01*
X-5971Y-46778D01*
X-5936Y-46510D01*
X-5971Y-46242D01*
X-6075Y-45993D01*
X-6239Y-45779D01*
X-6453Y-45615D01*
X-6702Y-45511D01*
X-6970Y-45476D01*
D02*
G37*
G36*
X-27750Y-35616D02*
X-27926Y-35651D01*
X-28074Y-35751D01*
X-28174Y-35899D01*
X-28209Y-36075D01*
X-28174Y-36251D01*
X-28074Y-36399D01*
X-27926Y-36499D01*
X-27750Y-36534D01*
X-27574Y-36499D01*
X-27426Y-36399D01*
X-27326Y-36251D01*
X-27291Y-36075D01*
X-27326Y-35899D01*
X-27426Y-35751D01*
X-27574Y-35651D01*
X-27750Y-35616D01*
D02*
G37*
G36*
X-44025Y-30295D02*
X-44462D01*
Y-30570D01*
X-44025D01*
Y-30295D01*
D02*
G37*
G36*
X-4530Y-28830D02*
X-5476D01*
X-5453Y-29004D01*
X-5347Y-29260D01*
X-5179Y-29479D01*
X-4960Y-29647D01*
X-4704Y-29753D01*
X-4530Y-29776D01*
Y-28830D01*
D02*
G37*
G36*
X-6970Y-30236D02*
X-7238Y-30271D01*
X-7487Y-30375D01*
X-7701Y-30539D01*
X-7865Y-30753D01*
X-7969Y-31002D01*
X-8004Y-31270D01*
X-7969Y-31538D01*
X-7865Y-31787D01*
X-7701Y-32001D01*
X-7487Y-32165D01*
X-7238Y-32269D01*
X-6970Y-32304D01*
X-6702Y-32269D01*
X-6453Y-32165D01*
X-6239Y-32001D01*
X-6075Y-31787D01*
X-5971Y-31538D01*
X-5936Y-31270D01*
X-5971Y-31002D01*
X-6075Y-30753D01*
X-6239Y-30539D01*
X-6453Y-30375D01*
X-6702Y-30271D01*
X-6970Y-30236D01*
D02*
G37*
G36*
X-4430D02*
X-4698Y-30271D01*
X-4947Y-30375D01*
X-5161Y-30539D01*
X-5325Y-30753D01*
X-5429Y-31002D01*
X-5464Y-31270D01*
X-5429Y-31538D01*
X-5325Y-31787D01*
X-5161Y-32001D01*
X-4947Y-32165D01*
X-4698Y-32269D01*
X-4430Y-32304D01*
X-4162Y-32269D01*
X-3913Y-32165D01*
X-3699Y-32001D01*
X-3535Y-31787D01*
X-3431Y-31538D01*
X-3396Y-31270D01*
X-3431Y-31002D01*
X-3535Y-30753D01*
X-3699Y-30539D01*
X-3913Y-30375D01*
X-4162Y-30271D01*
X-4430Y-30236D01*
D02*
G37*
G36*
X-4330Y-27684D02*
Y-28630D01*
X-3384D01*
X-3407Y-28456D01*
X-3513Y-28200D01*
X-3681Y-27981D01*
X-3900Y-27813D01*
X-4156Y-27707D01*
X-4330Y-27684D01*
D02*
G37*
G36*
X-31525Y-20966D02*
X-31701Y-21001D01*
X-31849Y-21101D01*
X-31949Y-21249D01*
X-31984Y-21425D01*
X-31949Y-21601D01*
X-31849Y-21749D01*
X-31701Y-21849D01*
X-31525Y-21884D01*
X-31349Y-21849D01*
X-31201Y-21749D01*
X-31101Y-21601D01*
X-31066Y-21425D01*
X-31101Y-21249D01*
X-31201Y-21101D01*
X-31349Y-21001D01*
X-31525Y-20966D01*
D02*
G37*
G36*
X-3384Y-28830D02*
X-4330D01*
Y-29776D01*
X-4156Y-29753D01*
X-3900Y-29647D01*
X-3681Y-29479D01*
X-3513Y-29260D01*
X-3407Y-29004D01*
X-3384Y-28830D01*
D02*
G37*
G36*
X-4530Y-27684D02*
X-4704Y-27707D01*
X-4960Y-27813D01*
X-5179Y-27981D01*
X-5347Y-28200D01*
X-5453Y-28456D01*
X-5476Y-28630D01*
X-4530D01*
Y-27684D01*
D02*
G37*
G36*
X-4430Y-32776D02*
X-4698Y-32811D01*
X-4947Y-32915D01*
X-5161Y-33079D01*
X-5325Y-33293D01*
X-5429Y-33542D01*
X-5464Y-33810D01*
X-5429Y-34078D01*
X-5325Y-34327D01*
X-5161Y-34541D01*
X-4947Y-34705D01*
X-4698Y-34809D01*
X-4430Y-34844D01*
X-4162Y-34809D01*
X-3913Y-34705D01*
X-3699Y-34541D01*
X-3535Y-34327D01*
X-3431Y-34078D01*
X-3396Y-33810D01*
X-3431Y-33542D01*
X-3535Y-33293D01*
X-3699Y-33079D01*
X-3913Y-32915D01*
X-4162Y-32811D01*
X-4430Y-32776D01*
D02*
G37*
G36*
X-56050Y-33130D02*
X-56996D01*
X-56973Y-33304D01*
X-56867Y-33560D01*
X-56699Y-33779D01*
X-56480Y-33947D01*
X-56224Y-34053D01*
X-56050Y-34076D01*
Y-33130D01*
D02*
G37*
G36*
X-22250Y-35566D02*
X-22426Y-35601D01*
X-22574Y-35701D01*
X-22674Y-35849D01*
X-22709Y-36025D01*
X-22674Y-36201D01*
X-22574Y-36349D01*
X-22426Y-36449D01*
X-22250Y-36484D01*
X-22074Y-36449D01*
X-21926Y-36349D01*
X-21826Y-36201D01*
X-21791Y-36025D01*
X-21826Y-35849D01*
X-21926Y-35701D01*
X-22074Y-35601D01*
X-22250Y-35566D01*
D02*
G37*
G36*
X-6970Y-32776D02*
X-7238Y-32811D01*
X-7487Y-32915D01*
X-7701Y-33079D01*
X-7865Y-33293D01*
X-7969Y-33542D01*
X-8004Y-33810D01*
X-7969Y-34078D01*
X-7865Y-34327D01*
X-7701Y-34541D01*
X-7487Y-34705D01*
X-7238Y-34809D01*
X-6970Y-34844D01*
X-6702Y-34809D01*
X-6453Y-34705D01*
X-6239Y-34541D01*
X-6075Y-34327D01*
X-5971Y-34078D01*
X-5936Y-33810D01*
X-5971Y-33542D01*
X-6075Y-33293D01*
X-6239Y-33079D01*
X-6453Y-32915D01*
X-6702Y-32811D01*
X-6970Y-32776D01*
D02*
G37*
G36*
X-55850Y-31984D02*
Y-32930D01*
X-54904D01*
X-54927Y-32756D01*
X-55033Y-32500D01*
X-55201Y-32281D01*
X-55420Y-32113D01*
X-55676Y-32007D01*
X-55850Y-31984D01*
D02*
G37*
G36*
X-48325Y-32500D02*
X-48875D01*
Y-32900D01*
X-48325D01*
Y-32500D01*
D02*
G37*
G36*
X-54904Y-33130D02*
X-55850D01*
Y-34076D01*
X-55676Y-34053D01*
X-55420Y-33947D01*
X-55201Y-33779D01*
X-55033Y-33560D01*
X-54927Y-33304D01*
X-54904Y-33130D01*
D02*
G37*
G36*
X-56050Y-31984D02*
X-56224Y-32007D01*
X-56480Y-32113D01*
X-56699Y-32281D01*
X-56867Y-32500D01*
X-56973Y-32756D01*
X-56996Y-32930D01*
X-56050D01*
Y-31984D01*
D02*
G37*
%LPD*%
D10*
X-23500Y-68900D02*
D03*
Y-67200D02*
D03*
D11*
X-14300Y-4475D02*
D03*
X-14950D02*
D03*
X-15600D02*
D03*
X-16250D02*
D03*
X-16900D02*
D03*
D12*
X-35000Y-7650D02*
D03*
Y-2150D02*
D03*
X-31000D02*
D03*
Y-7650D02*
D03*
X-28000D02*
D03*
Y-2150D02*
D03*
X-24000D02*
D03*
Y-7650D02*
D03*
X-31625Y-29875D02*
D03*
Y-35375D02*
D03*
X-35625D02*
D03*
Y-29875D02*
D03*
D13*
X-43925Y-36045D02*
D03*
D14*
X-26700Y-67200D02*
D03*
Y-69400D02*
D03*
X-25100D02*
D03*
Y-67200D02*
D03*
D15*
X-40475Y-50375D02*
D03*
Y-52975D02*
D03*
D16*
X-46725Y-51675D02*
D03*
D17*
X-39175Y-72925D02*
D03*
D18*
X-40625Y-72175D02*
D03*
Y-72675D02*
D03*
Y-73175D02*
D03*
Y-73675D02*
D03*
X-37725D02*
D03*
Y-73175D02*
D03*
Y-72675D02*
D03*
Y-72175D02*
D03*
D19*
X-41100Y-32620D02*
D03*
Y-31970D02*
D03*
Y-31320D02*
D03*
Y-30670D02*
D03*
X-43924D02*
D03*
Y-31320D02*
D03*
Y-31970D02*
D03*
Y-32620D02*
D03*
X-44700Y-19720D02*
D03*
Y-19070D02*
D03*
Y-18420D02*
D03*
Y-17770D02*
D03*
X-47525D02*
D03*
Y-18420D02*
D03*
Y-19070D02*
D03*
Y-19720D02*
D03*
D20*
X-42512Y-31645D02*
D03*
X-46112Y-18745D02*
D03*
D21*
X-33750Y-52425D02*
D03*
X-33250D02*
D03*
X-32750D02*
D03*
X-32250D02*
D03*
X-31750D02*
D03*
X-31250D02*
D03*
X-30750D02*
D03*
X-30250D02*
D03*
X-29750D02*
D03*
X-29250D02*
D03*
X-28750D02*
D03*
X-28250D02*
D03*
X-27750D02*
D03*
X-27250D02*
D03*
X-26750D02*
D03*
X-26250D02*
D03*
Y-63575D02*
D03*
X-26750D02*
D03*
X-27250D02*
D03*
X-27750D02*
D03*
X-28250D02*
D03*
X-28750D02*
D03*
X-29250D02*
D03*
X-29750D02*
D03*
X-30250D02*
D03*
X-30750D02*
D03*
X-31250D02*
D03*
X-31750D02*
D03*
X-32250D02*
D03*
X-32750D02*
D03*
X-33250D02*
D03*
X-33750D02*
D03*
D22*
X-24425Y-54250D02*
D03*
Y-54750D02*
D03*
Y-55250D02*
D03*
Y-55750D02*
D03*
Y-56250D02*
D03*
Y-56750D02*
D03*
Y-57250D02*
D03*
Y-57750D02*
D03*
Y-58250D02*
D03*
Y-58750D02*
D03*
Y-59250D02*
D03*
Y-59750D02*
D03*
Y-60250D02*
D03*
Y-60750D02*
D03*
Y-61250D02*
D03*
Y-61750D02*
D03*
X-35575D02*
D03*
Y-61250D02*
D03*
Y-60750D02*
D03*
Y-60250D02*
D03*
Y-59750D02*
D03*
Y-59250D02*
D03*
Y-58750D02*
D03*
Y-58250D02*
D03*
Y-57750D02*
D03*
Y-57250D02*
D03*
Y-56750D02*
D03*
Y-56250D02*
D03*
Y-55750D02*
D03*
Y-55250D02*
D03*
Y-54750D02*
D03*
Y-54250D02*
D03*
D23*
X-30700Y-75080D02*
D03*
Y-73810D02*
D03*
Y-72540D02*
D03*
Y-71270D02*
D03*
X-35500Y-75080D02*
D03*
Y-73810D02*
D03*
Y-72540D02*
D03*
Y-71270D02*
D03*
D24*
X-50100Y-35520D02*
D03*
Y-33620D02*
D03*
X-52000Y-34570D02*
D03*
D25*
X-34150Y-11900D02*
D03*
X-32050D02*
D03*
D26*
X-16400Y-7600D02*
D03*
D27*
Y-9300D02*
D03*
X-14300D02*
D03*
Y-7400D02*
D03*
D28*
X-46850Y-63025D02*
D03*
X-48250D02*
D03*
X-11200Y-7500D02*
D03*
X-12600D02*
D03*
D29*
X-52375Y-14670D02*
D03*
Y-17570D02*
D03*
Y-19895D02*
D03*
Y-22795D02*
D03*
D30*
X-35700Y-11400D02*
D03*
Y-12600D02*
D03*
X-22000Y-67100D02*
D03*
Y-68300D02*
D03*
X-28100Y-67200D02*
D03*
Y-68400D02*
D03*
X-47675Y-31045D02*
D03*
Y-29845D02*
D03*
X-49050Y-29845D02*
D03*
Y-31045D02*
D03*
X-39500Y-33825D02*
D03*
Y-32625D02*
D03*
X-39475Y-31025D02*
D03*
Y-29825D02*
D03*
D31*
X-47050Y-34570D02*
D03*
Y-37620D02*
D03*
D32*
X-49400Y-19545D02*
D03*
Y-17895D02*
D03*
D33*
X-32475Y-69700D02*
D03*
X-31375D02*
D03*
X-32100Y-65600D02*
D03*
X-31000D02*
D03*
X-27225Y-9700D02*
D03*
X-26125D02*
D03*
X-25600Y-65700D02*
D03*
X-26700D02*
D03*
X-24100D02*
D03*
X-23000D02*
D03*
X-45975Y-16295D02*
D03*
X-44875D02*
D03*
X-48225Y-32400D02*
D03*
X-47125D02*
D03*
X-39675Y-71125D02*
D03*
X-38575D02*
D03*
D34*
X-47525Y-21745D02*
D03*
X-45825D02*
D03*
X-41925Y-54375D02*
D03*
X-40225D02*
D03*
D35*
X-41150Y-56000D02*
D03*
Y-57100D02*
D03*
X-41125Y-59425D02*
D03*
Y-60525D02*
D03*
X-38775Y-51475D02*
D03*
Y-50375D02*
D03*
Y-53275D02*
D03*
Y-54375D02*
D03*
X-22800Y-54450D02*
D03*
Y-53350D02*
D03*
X-22650Y-62725D02*
D03*
Y-61625D02*
D03*
X-30075Y-49225D02*
D03*
Y-50325D02*
D03*
X-28975Y-49225D02*
D03*
Y-50325D02*
D03*
X-37225Y-56700D02*
D03*
Y-57800D02*
D03*
X-43475Y-19270D02*
D03*
Y-18170D02*
D03*
X-47500Y-15045D02*
D03*
Y-16145D02*
D03*
X-45225Y-30270D02*
D03*
Y-31370D02*
D03*
X-50525Y-61900D02*
D03*
Y-63000D02*
D03*
D36*
X-38450Y-57973D02*
D03*
Y-56576D02*
D03*
D37*
X-27575Y-73775D02*
D03*
X-26375D02*
D03*
X-27575Y-75075D02*
D03*
X-26375D02*
D03*
X-43925Y-34270D02*
D03*
X-42725D02*
D03*
X-53700Y-47900D02*
D03*
X-52500D02*
D03*
X-32200Y-9900D02*
D03*
X-31000D02*
D03*
X-38250Y-60750D02*
D03*
X-39450D02*
D03*
D38*
X-23950Y-9700D02*
D03*
X-24950D02*
D03*
D39*
X-19000Y-7400D02*
D03*
Y-6400D02*
D03*
X-36800Y-10900D02*
D03*
Y-11900D02*
D03*
D40*
X-11300Y-9575D02*
D03*
Y-8625D02*
D03*
X-12600Y-9575D02*
D03*
Y-8625D02*
D03*
X-18100Y-6425D02*
D03*
Y-7375D02*
D03*
D41*
X-6500Y-1450D02*
D03*
Y-3550D02*
D03*
X-8750Y-1450D02*
D03*
Y-3550D02*
D03*
D42*
X-39700Y-56550D02*
D03*
Y-57950D02*
D03*
D43*
X-47050Y-34570D02*
Y-32400D01*
X-47675Y-31045D02*
X-47125Y-31595D01*
Y-32400D02*
Y-31595D01*
X-44917Y-32042D02*
X-43924D01*
X-47050Y-32400D02*
X-45275D01*
X-44917Y-32042D01*
X-43924D02*
Y-31970D01*
X-48075Y-33287D02*
X-47638D01*
X-48225Y-33138D02*
X-48075Y-33287D01*
X-48225Y-33138D02*
Y-32400D01*
X-39550Y-35525D02*
X-38925D01*
X-40200Y-36175D02*
X-39550Y-35525D01*
X-40200Y-37638D02*
Y-36175D01*
X-39500Y-33825D02*
X-38025Y-35300D01*
Y-38450D02*
Y-35300D01*
X-40800Y-45350D02*
Y-33463D01*
X-41100Y-33162D02*
X-40800Y-33463D01*
X-41100Y-33162D02*
Y-32620D01*
X-40800Y-45350D02*
X-40175Y-45975D01*
X-41550Y-35850D02*
Y-34275D01*
X-39562Y-33888D02*
X-39500Y-33825D01*
X-30150Y-42450D02*
X-20250Y-52350D01*
Y-54350D02*
Y-52350D01*
X-21640Y-55740D02*
X-20250Y-54350D01*
X-30425Y-42875D02*
X-20900Y-52400D01*
Y-54475D02*
Y-52400D01*
X-21675Y-55250D02*
X-20900Y-54475D01*
X-43975Y-18170D02*
X-43533D01*
X-44438Y-19763D02*
X-44225Y-19975D01*
X-31338Y-45300D02*
X-27475Y-49163D01*
X-31650Y-45300D02*
X-31338D01*
X-32000Y-44950D02*
X-31650Y-45300D01*
X-27100Y-50755D02*
Y-48775D01*
X-31825Y-44050D02*
X-27100Y-48775D01*
X-35888Y-44050D02*
X-31825D01*
X-30950Y-42875D02*
X-30425D01*
X-34775Y-39050D02*
X-30950Y-42875D01*
X-34775Y-39050D02*
Y-28725D01*
X-30775Y-42450D02*
X-30150D01*
X-34450Y-38775D02*
X-30775Y-42450D01*
X-34450Y-38775D02*
Y-28600D01*
X-34375Y-63575D02*
X-33750D01*
X-41925Y-71125D02*
X-34375Y-63575D01*
X-33100Y-30050D02*
X-32675Y-30475D01*
Y-37500D02*
Y-30475D01*
Y-37500D02*
X-31800Y-38375D01*
X-34925Y-28125D02*
X-34450Y-28600D01*
X-41375Y-28125D02*
X-34925D01*
X-44225Y-25275D02*
X-41375Y-28125D01*
X-51200Y-47900D02*
X-51150Y-47950D01*
X-52500Y-47900D02*
X-51200D01*
X-56225Y-55400D02*
X-53700Y-52875D01*
Y-48125D01*
X-45675Y-26825D02*
X-45225D01*
X-45900Y-27050D02*
X-45675Y-26825D01*
X-46375Y-27050D02*
X-45900D01*
X-45600Y-25550D02*
X-43775Y-27375D01*
Y-28125D02*
Y-27375D01*
Y-28125D02*
X-43375Y-28525D01*
X-45600Y-25550D02*
Y-23145D01*
X-47550Y-39775D02*
X-45400D01*
X-36000Y-40400D02*
Y-37675D01*
X-36575Y-37100D02*
X-36000Y-37675D01*
X-36575Y-37100D02*
Y-34000D01*
X-36375Y-40775D02*
X-36000Y-40400D01*
X-38630Y-31970D02*
X-37500Y-33100D01*
X-41100Y-31970D02*
X-38630D01*
X-42725Y-35075D02*
Y-34270D01*
Y-35075D02*
X-42725Y-35075D01*
X-31675Y-25202D02*
X-31450Y-24978D01*
X-31675Y-25425D02*
Y-25202D01*
Y-25425D02*
X-30975Y-26125D01*
X-31450Y-24978D02*
X-29948D01*
X-30975Y-26875D02*
Y-26125D01*
X-31853Y-27753D02*
X-30975Y-26875D01*
X-32403Y-27753D02*
X-31853D01*
X-33425Y-28775D02*
X-32403Y-27753D01*
X-32075Y-26150D02*
X-31688D01*
X-33425Y-30775D02*
Y-28775D01*
Y-30775D02*
X-33200Y-31000D01*
Y-32300D02*
Y-31000D01*
X-33775Y-28675D02*
X-33275Y-28175D01*
X-33775Y-37104D02*
Y-28675D01*
Y-37104D02*
X-29379Y-41500D01*
X-33100Y-30050D02*
Y-29425D01*
X-32675Y-29000D01*
X-31850Y-29650D02*
Y-28500D01*
X-32100Y-28250D02*
X-31850Y-28500D01*
X-39828Y-27597D02*
X-38400D01*
X-37803Y-27000D01*
X-35575D01*
X-34140Y-28435D01*
X-46600Y-27850D02*
X-45125D01*
X-47825Y-36000D02*
X-45950D01*
X-44725Y-37225D01*
X-42925D01*
X-41550Y-35850D01*
X-43924Y-36044D02*
Y-32620D01*
X-39500Y-32625D02*
X-39353Y-32772D01*
X-43600Y-24600D02*
X-42775D01*
X-39152Y-27001D02*
X-38626Y-26475D01*
X-35125D01*
X-34725Y-26875D01*
X-33275Y-28175D02*
Y-27225D01*
X-35037Y-25462D02*
X-33275Y-27225D01*
X-35588Y-25462D02*
X-35037D01*
X-42775Y-24600D02*
X-40925Y-22750D01*
X-34825D01*
X-29948Y-24978D02*
X-29925Y-25000D01*
X-32750Y-21425D02*
Y-21396D01*
X-27979Y-16625D01*
X-40595Y-26875D02*
X-40550Y-26830D01*
Y-26875D02*
X-39828Y-27597D01*
X-36050Y-21375D02*
X-33946D01*
X-27571Y-15000D01*
X-47675Y-29845D02*
Y-28575D01*
X-30875Y-38500D02*
Y-38500D01*
X-32347Y-37028D02*
X-30875Y-38500D01*
X-30900Y-25475D02*
X-30350Y-26025D01*
X-37500Y-41300D02*
Y-33100D01*
X-34825Y-22750D02*
X-27823Y-15748D01*
X-36181Y-15951D02*
X-35802D01*
X-43375Y-23145D02*
X-36181Y-15951D01*
X-34140Y-38012D02*
Y-28435D01*
Y-38012D02*
X-33302Y-38850D01*
X-35030Y-28470D02*
X-34775Y-28725D01*
X-41630Y-28470D02*
X-35030D01*
X-44900Y-25200D02*
X-41630Y-28470D01*
X-47375Y-29545D02*
X-39625D01*
X-35575Y-39175D02*
Y-36925D01*
X-31525Y-43225D02*
X-30750D01*
X-35575Y-39175D02*
X-31525Y-43225D01*
X-36575Y-34000D02*
X-36000Y-33425D01*
X-37500Y-41300D02*
X-35912Y-42888D01*
X-41100Y-32620D02*
X-39500D01*
X-36000Y-33425D02*
Y-31725D01*
X-37300Y-30425D02*
X-36000Y-31725D01*
X-38975Y-30425D02*
X-37300D01*
X-38750Y-29050D02*
X-35325D01*
Y-35145D02*
Y-29050D01*
X-35625Y-35445D02*
X-35325Y-35145D01*
X-39435Y-29735D02*
X-38750Y-29050D01*
X-39625Y-29545D02*
X-39435Y-29735D01*
X-30650Y-35200D02*
Y-34075D01*
X-31625Y-37050D02*
Y-35375D01*
Y-37050D02*
X-31025Y-37650D01*
X-30125D01*
X-37875Y-14350D02*
X-32450D01*
X-36228Y-13722D02*
X-33300D01*
X-36950Y-13000D02*
X-36228Y-13722D01*
X-33103Y-13525D02*
X-29325D01*
X-33300Y-13722D02*
X-33103Y-13525D01*
X-44225Y-25275D02*
Y-19975D01*
X-44900Y-25200D02*
Y-20700D01*
X-54450Y-61000D02*
X-48700Y-55250D01*
X-54450Y-67500D02*
Y-61000D01*
X-19600Y-36025D02*
X-19325Y-36300D01*
X-14050Y-37450D02*
X-13498Y-36898D01*
X-13725Y-37775D02*
X-13125Y-37175D01*
X-18875Y-33625D02*
Y-30062D01*
X-22650Y-26288D02*
X-18875Y-30062D01*
X-22650Y-26288D02*
Y-24450D01*
X-38775Y-97800D02*
X-23340D01*
X-40175Y-96400D02*
Y-86550D01*
Y-96400D02*
X-38775Y-97800D01*
X-36475Y-97150D02*
X-23625D01*
X-37650Y-95975D02*
Y-86625D01*
Y-95975D02*
X-36475Y-97150D01*
X-23340Y-97800D02*
X-21110Y-95570D01*
X-23625Y-97150D02*
X-22450Y-95975D01*
Y-94370D01*
X-21110Y-93030D01*
X-5887Y-91463D02*
X-2700Y-88275D01*
X-28938Y-91463D02*
X-5887D01*
X-29925Y-92450D02*
X-28938Y-91463D01*
X-29925Y-94225D02*
Y-92450D01*
X-31270Y-95570D02*
X-29925Y-94225D01*
X-31270Y-93030D02*
X-29315Y-91075D01*
X-6175D02*
X-3175Y-88075D01*
X-29315Y-91075D02*
X-6175D01*
X-2700Y-88275D02*
Y-78720D01*
X-7625Y-90625D02*
X-5525Y-88525D01*
X-30475Y-90625D02*
X-7625D01*
X-32515Y-92665D02*
X-30475Y-90625D01*
X-7725Y-90025D02*
X-5875Y-88175D01*
X-30805Y-90025D02*
X-7725D01*
X-33810Y-93030D02*
X-30805Y-90025D01*
X-42512Y-33257D02*
Y-31645D01*
X-42725Y-33470D02*
X-42512Y-33257D01*
X-42725Y-34270D02*
Y-33470D01*
X-8550Y-22575D02*
X-7530D01*
X-11675Y-25700D02*
X-8550Y-22575D01*
X-14550Y-25700D02*
X-11675D01*
X-23600Y-18050D02*
X-22050D01*
X-24250Y-17400D02*
X-23600Y-18050D01*
X-25025Y-18175D02*
X-24250Y-18950D01*
Y-24100D02*
Y-18950D01*
X-24600Y-24450D02*
X-24250Y-24100D01*
X-20822Y-14165D02*
X-20175Y-14812D01*
Y-18500D02*
Y-14812D01*
Y-18500D02*
X-17575Y-21100D01*
X-24425Y-57250D02*
X-23723D01*
X-23520Y-57453D01*
X-23151D01*
X-24825Y-52900D02*
Y-49975D01*
X-26200Y-54275D02*
X-24825Y-52900D01*
X-24600Y-26200D02*
Y-24450D01*
Y-26200D02*
X-24075Y-26725D01*
X-26975Y-24680D02*
Y-23375D01*
X-27048Y-24753D02*
X-26975Y-24680D01*
X-27048Y-25853D02*
Y-24753D01*
Y-25853D02*
X-26675Y-26225D01*
Y-28175D02*
Y-26225D01*
X-21475Y-32100D02*
X-20175D01*
X-24075Y-29500D02*
X-21475Y-32100D01*
X-24075Y-29500D02*
Y-28825D01*
X-32750Y-52425D02*
Y-51175D01*
X-34200Y-49725D02*
X-32750Y-51175D01*
X-34200Y-49725D02*
Y-48250D01*
X-32250Y-52425D02*
Y-51050D01*
X-33575Y-49725D02*
X-32250Y-51050D01*
X-33575Y-49725D02*
Y-45475D01*
X-31650Y-50723D02*
Y-48050D01*
X-31750Y-50823D02*
X-31650Y-50723D01*
X-37100Y-61250D02*
X-35575D01*
X-37300Y-61450D02*
X-37100Y-61250D01*
X-37975Y-61450D02*
X-37300D01*
X-27979Y-16625D02*
X-27875D01*
X-27823Y-15748D02*
X-23483D01*
X-26550Y-16200D02*
X-22325D01*
X-29250Y-18900D02*
X-26550Y-16200D01*
X-29250Y-22050D02*
Y-18900D01*
X-29975Y-13025D02*
Y-12625D01*
X-30700Y-11900D02*
X-29975Y-12625D01*
X-32050Y-11900D02*
X-30700D01*
X-26125Y-10325D02*
Y-9700D01*
X-29175Y-71975D02*
X-28700Y-72450D01*
X-29175Y-71975D02*
Y-66275D01*
X-27750Y-64850D01*
Y-63575D01*
X-30700Y-73810D02*
X-27635D01*
X-28725Y-70179D02*
Y-66525D01*
X-27250Y-65050D01*
Y-63575D01*
X-30650Y-21900D02*
X-29077Y-23472D01*
X-33575Y-9900D02*
X-32200D01*
X-34475Y-10800D02*
X-33575Y-9900D01*
X-30650Y-20000D02*
X-30075Y-19425D01*
X-30650Y-21900D02*
Y-20000D01*
X-29077Y-25534D02*
Y-23472D01*
X-29850Y-26306D02*
X-29077Y-25534D01*
X-28725Y-25900D02*
Y-18950D01*
X-29525Y-26700D02*
X-28725Y-25900D01*
X-28415Y-26090D02*
Y-19227D01*
X-29140Y-26815D02*
X-28415Y-26090D01*
X-29140Y-32040D02*
Y-26815D01*
X-27250Y-52425D02*
Y-51400D01*
X-24100Y-64125D02*
X-22425D01*
X-25792Y-62432D02*
X-24100Y-64125D01*
X-25859Y-62432D02*
X-25792D01*
X-27733Y-60559D02*
X-25859Y-62432D01*
X-27733Y-60559D02*
Y-59417D01*
X-30400Y-56750D02*
X-27733Y-59417D01*
X-35575Y-56750D02*
X-30400D01*
X-23600Y-63750D02*
X-20900D01*
X-25228Y-62123D02*
X-23600Y-63750D01*
X-25731Y-62123D02*
X-25228D01*
X-27423Y-60431D02*
X-25731Y-62123D01*
X-27423Y-60431D02*
Y-59228D01*
X-30400Y-56250D02*
X-27423Y-59228D01*
X-35575Y-56250D02*
X-30400D01*
X-31750Y-59025D02*
X-31350Y-58625D01*
X-31750Y-59825D02*
X-31350Y-59425D01*
X-28175Y-68475D02*
X-28100Y-68400D01*
X-28175Y-70025D02*
Y-68475D01*
X-22000Y-68300D02*
X-21975Y-68325D01*
X-20550D01*
X-9518Y-70640D02*
X-8240D01*
X-6970Y-71910D01*
X-21850Y-78250D02*
X-21840Y-78260D01*
X-9518D01*
X-22290Y-71910D02*
X-19060D01*
X-17790Y-70640D01*
X-9518D01*
X-46133Y-20703D02*
X-46125Y-20695D01*
X-46133Y-21372D02*
Y-20703D01*
Y-21372D02*
X-45825Y-21680D01*
Y-21745D02*
Y-21680D01*
X-47525Y-21745D02*
X-47525Y-21744D01*
Y-19720D01*
X-27641Y-56625D02*
X-26225D01*
X-25600Y-57250D01*
X-28438Y-57350D02*
X-26350D01*
X-25950Y-57750D01*
X-16711Y-64036D02*
X-9518D01*
X-5685Y-65575D02*
X-4430Y-66830D01*
X-12250Y-66825D02*
X-12245Y-66830D01*
X-6970D01*
X-33375Y-79200D02*
X-30505Y-82070D01*
X-6970D01*
X-31250Y-53975D02*
Y-52425D01*
X-31450Y-54175D02*
X-31250Y-53975D01*
X-31450Y-54725D02*
Y-54175D01*
X-30750Y-54625D02*
X-30183Y-55193D01*
X-30750Y-54625D02*
Y-52425D01*
X-9549Y-46225D02*
X-9518Y-46256D01*
X-13275Y-46225D02*
X-9549D01*
X-31350Y-58625D02*
X-29675D01*
X-27750Y-31375D02*
Y-29425D01*
X-29798Y-33423D02*
X-27750Y-31375D01*
X-30125Y-33025D02*
X-29140Y-32040D01*
X-13400Y-38900D02*
X-10850Y-36350D01*
X-6970D01*
X-26075Y-17400D02*
X-24250D01*
X-26550Y-17875D02*
X-26075Y-17400D01*
X-26550Y-18653D02*
Y-17875D01*
X-25903Y-17753D02*
X-24625D01*
X-26150Y-18000D02*
X-25903Y-17753D01*
X-26150Y-18450D02*
Y-18000D01*
X-23965Y-16935D02*
X-23550Y-17350D01*
X-26123Y-16935D02*
X-23965D01*
X-22050Y-18050D02*
X-19340Y-20760D01*
X-22275Y-18400D02*
X-19650Y-21025D01*
X-23978Y-18400D02*
X-22275D01*
X-24625Y-17753D02*
X-23978Y-18400D01*
X-28415Y-19227D02*
X-26123Y-16935D01*
X-28075Y-21277D02*
X-26299Y-19501D01*
X-28075Y-26250D02*
Y-21277D01*
X-28775Y-26950D02*
X-28075Y-26250D01*
X-18579Y-25392D02*
X-14075Y-29896D01*
X-18579Y-25392D02*
Y-25382D01*
X-18889Y-28814D02*
Y-25511D01*
X-21100Y-23300D02*
X-18889Y-25511D01*
X-23725Y-19475D02*
X-23290Y-19910D01*
Y-20315D02*
Y-19910D01*
X-23498Y-20523D02*
X-23290Y-20315D01*
X-26050Y-23700D02*
X-25253Y-22903D01*
X-23498Y-21900D02*
Y-20523D01*
X-19340Y-22864D02*
Y-20760D01*
Y-22864D02*
X-12350Y-29854D01*
X-19650Y-23103D02*
Y-21025D01*
Y-23103D02*
X-12927Y-29825D01*
X-19022Y-21603D02*
Y-20177D01*
Y-21603D02*
X-18350Y-22275D01*
X-20550Y-18650D02*
X-19022Y-20177D01*
X-23726Y-20126D02*
X-23726D01*
X-23925Y-20325D02*
X-23712Y-20112D01*
X-23498Y-21900D02*
X-23497Y-21900D01*
Y-22250D02*
Y-21900D01*
Y-22250D02*
X-23452Y-22295D01*
Y-29272D02*
X-23075Y-29650D01*
X-25150Y-27750D02*
Y-24150D01*
Y-27750D02*
X-24075Y-28825D01*
X-26050Y-28065D02*
Y-23700D01*
Y-28065D02*
X-25575Y-28540D01*
X-23452Y-29272D02*
Y-22295D01*
X-20025Y-30750D02*
X-19400Y-31375D01*
X-21600Y-30750D02*
X-20025D01*
X-22275Y-30075D02*
X-21600Y-30750D01*
X-22275Y-30075D02*
Y-29175D01*
X-20550Y-18650D02*
Y-14875D01*
X-23925Y-25350D02*
Y-20325D01*
X-24050Y-25475D02*
X-23925Y-25350D01*
X-17028Y-34548D02*
Y-29923D01*
X-18325Y-28625D02*
X-17028Y-29923D01*
X-18325Y-28625D02*
Y-27350D01*
X-31350Y-59425D02*
X-29675D01*
X-30250Y-54125D02*
X-29700Y-54675D01*
X-30250Y-54125D02*
Y-52425D01*
X-13498Y-36898D02*
Y-34327D01*
X-13125Y-37175D02*
Y-34675D01*
X-14175Y-36650D02*
Y-35275D01*
X-20875Y-37575D02*
X-20425Y-38025D01*
X-16718Y-32733D02*
X-14175Y-35275D01*
X-13134Y-43716D02*
X-9518D01*
X-17975Y-38875D02*
X-13134Y-43716D01*
X-15450Y-36850D02*
Y-36125D01*
X-16718Y-32733D02*
Y-29358D01*
X-16775Y-29300D02*
X-16718Y-29358D01*
X-44700Y-17095D02*
Y-16470D01*
Y-17770D02*
Y-17095D01*
X-24415Y-55740D02*
X-21640D01*
X-24425Y-55250D02*
X-21675D01*
X-26750Y-53575D02*
Y-52425D01*
X-25925Y-51150D02*
Y-48675D01*
X-26250Y-51475D02*
X-25925Y-51150D01*
X-26250Y-52425D02*
Y-51475D01*
X-27750Y-27425D02*
Y-22850D01*
X-27000Y-31575D02*
Y-26575D01*
X-25575Y-30175D02*
Y-28540D01*
X-26450Y-36950D02*
Y-30175D01*
X-47675Y-29845D02*
X-47375Y-29545D01*
X-14125Y-25100D02*
X-5725Y-16700D01*
X-22667Y-14165D02*
X-20822D01*
X-23503Y-15000D02*
X-22667Y-14165D01*
X-27571Y-15000D02*
X-23503D01*
X-35802Y-15951D02*
Y-15927D01*
Y-15951D02*
Y-15827D01*
X-32275Y-14175D02*
X-30750D01*
X-32450Y-14350D02*
X-32275Y-14175D01*
X-20950Y-14475D02*
X-20550Y-14875D01*
X-22210Y-14475D02*
X-20950D01*
X-22325Y-16200D02*
X-21200Y-15075D01*
X-23483Y-15748D02*
X-22210Y-14475D01*
X-41375Y-14350D02*
X-37875D01*
X-25597Y-22079D02*
X-25253Y-22423D01*
Y-22903D02*
Y-22423D01*
X-24375Y-33750D02*
Y-31375D01*
X-18900Y-33600D02*
X-18875Y-33625D01*
X-26150Y-18450D02*
X-25325Y-19275D01*
X-3720Y-23945D02*
Y-22575D01*
X-4300Y-24525D02*
X-3720Y-23945D01*
X-27750Y-22850D02*
X-26325Y-21425D01*
X-22350Y-34425D02*
Y-32150D01*
X-24225Y-36300D02*
X-22350Y-34425D01*
X-24225Y-37550D02*
Y-36300D01*
X-25325Y-19775D02*
Y-19275D01*
X-25675Y-20125D02*
X-25325Y-19775D01*
X-26550Y-18653D02*
X-25900Y-19302D01*
Y-19700D02*
Y-19302D01*
X-26325Y-20125D02*
X-25900Y-19700D01*
X-26375Y-75075D02*
Y-72800D01*
X-33825Y-69700D02*
X-32475D01*
X-30095Y-71270D02*
X-30000Y-71175D01*
Y-69700D01*
X-31375D02*
X-30000D01*
X-40725Y-71125D02*
X-39675D01*
Y-72425D02*
Y-71125D01*
Y-72425D02*
X-39175Y-72925D01*
X-39925Y-73675D02*
X-39175Y-72925D01*
X-40625Y-73675D02*
X-39925D01*
X-37675Y-72125D02*
Y-71125D01*
X-37725Y-72175D02*
X-37675Y-72125D01*
X-38575Y-71125D02*
X-37675D01*
X-37725Y-74225D02*
Y-73675D01*
Y-74225D02*
X-37525Y-74425D01*
X-33575D01*
X-32920Y-75080D01*
X-30700D01*
X-32790Y-73810D02*
X-30700D01*
X-33425Y-73175D02*
X-32790Y-73810D01*
X-37725Y-73175D02*
X-33425D01*
X-27580Y-75080D02*
X-27575Y-75075D01*
X-9770Y-40924D02*
X-9518Y-41176D01*
X-7450Y-40200D02*
X-5660D01*
X-8426Y-41176D02*
X-7450Y-40200D01*
X-9518Y-41176D02*
X-8426D01*
X-9518Y-43716D02*
X-8466D01*
X-8050Y-43300D01*
Y-42510D01*
X-6970Y-41430D01*
X-5825Y-42575D01*
X-47545Y-34570D02*
X-47050D01*
X-48875D02*
X-47545D01*
X-48048Y-34068D02*
X-47545Y-34570D01*
X-41100Y-31320D02*
X-39400D01*
X-43925Y-36045D02*
X-43924Y-36044D01*
X-51400Y-27930D02*
X-49865D01*
X-49050Y-28745D01*
Y-29845D02*
Y-28745D01*
X-50100Y-33620D02*
Y-32895D01*
X-49050Y-31845D01*
Y-31045D01*
X-45875Y-30345D02*
X-45275D01*
X-45225Y-30295D01*
X-44850D01*
X-44475Y-30670D01*
X-43924D01*
X-47050Y-38970D02*
Y-37620D01*
X-52000Y-34570D02*
X-48875D01*
X-51300Y-38425D02*
X-49655D01*
X-48875Y-37645D01*
Y-34570D01*
X-55950Y-35570D02*
X-55900Y-35520D01*
X-50100D01*
X-55950Y-30490D02*
X-51420D01*
X-51400Y-30470D01*
X-45975Y-16295D02*
Y-15395D01*
X-46325Y-15045D02*
X-45975Y-15395D01*
X-47500Y-15045D02*
X-46325D01*
X-47525Y-17770D02*
X-47500Y-17746D01*
Y-16145D01*
X-56000Y-21395D02*
Y-19940D01*
Y-21395D02*
X-54600Y-22795D01*
X-52375D01*
X-56000Y-17400D02*
Y-15770D01*
X-54900Y-14670D01*
X-52375D01*
X-46125Y-20695D02*
X-46112Y-20682D01*
Y-18745D01*
X-45975Y-18608D01*
X-43475Y-20270D02*
Y-19270D01*
X-43925D02*
X-43475D01*
X-44125Y-19070D02*
X-43925Y-19270D01*
X-44700Y-19070D02*
X-44125D01*
X-44225Y-18420D02*
X-43975Y-18170D01*
X-44700Y-18420D02*
X-44225D01*
X-44875Y-16295D02*
X-44700Y-16470D01*
X-49400Y-17895D02*
Y-16495D01*
X-48225Y-20620D02*
Y-19195D01*
X-50400Y-22795D02*
X-48225Y-20620D01*
Y-19195D02*
X-48100Y-19070D01*
X-52375Y-14670D02*
X-48850D01*
X-48200Y-15320D01*
Y-18295D02*
Y-15320D01*
Y-18295D02*
X-48075Y-18420D01*
X-47525D01*
X-52375Y-22795D02*
X-50400D01*
X-48100Y-19070D02*
X-47525D01*
X-36950Y-13000D02*
Y-11900D01*
X-26925Y-8825D02*
Y-7975D01*
X-27225Y-9125D02*
X-26925Y-8825D01*
X-27225Y-9700D02*
Y-9125D01*
X-26125Y-9700D02*
X-26125Y-9700D01*
X-25000D01*
X-38730Y-10950D02*
X-36075D01*
X-35675Y-11350D01*
X-16100Y-15500D02*
X-10425Y-9825D01*
X-7900Y-8750D02*
X-6350D01*
X-14825Y-15675D02*
X-7900Y-8750D01*
X-14825Y-16325D02*
Y-15675D01*
X-10425Y-9825D02*
Y-8925D01*
X-16100Y-16425D02*
Y-15500D01*
X-10725Y-8625D02*
X-10425Y-8925D01*
X-11300Y-8625D02*
X-10725D01*
X-11180Y-15455D02*
X-9825D01*
X-12525Y-14110D02*
X-11180Y-15455D01*
X-3725Y-14750D02*
X-2800Y-13825D01*
X-4825Y-14750D02*
X-3725D01*
X-5725Y-15650D02*
X-4825Y-14750D01*
X-5725Y-16700D02*
Y-15650D01*
X-2800Y-13825D02*
Y-12250D01*
X-32250Y-53703D02*
Y-52425D01*
X-12600Y-9575D02*
X-11300D01*
X-5660Y-40200D02*
X-4430Y-41430D01*
X-27750Y-52425D02*
Y-51405D01*
X-28250Y-52425D02*
Y-51427D01*
X-5600Y-9300D02*
Y-6700D01*
X-6350Y-10050D02*
X-5600Y-9300D01*
X-8750Y-3550D02*
X-5600Y-6700D01*
X-2800Y-7250D02*
X-1200D01*
X-6500Y-3550D02*
X-2800Y-7250D01*
X-38900Y-93020D02*
X-38890Y-93030D01*
X-24425Y-59750D02*
X-24400Y-59725D01*
X-35000Y-7650D02*
Y-2150D01*
X-24925Y-1500D02*
X-24300D01*
X-24000Y-1800D01*
Y-2150D02*
Y-1800D01*
Y-7650D02*
Y-2150D01*
Y-9700D02*
Y-7650D01*
X-16900Y-6525D02*
Y-5150D01*
X-16500Y-7500D02*
Y-6925D01*
X-16900Y-6525D02*
X-16500Y-6925D01*
X-17975Y-7500D02*
X-16500D01*
X-16400Y-7600D01*
X-19000Y-7400D02*
X-18125D01*
X-18100Y-7375D01*
X-17975Y-7500D01*
X-6970Y-76990D02*
X-5680Y-75700D01*
X-46725Y-51675D02*
Y-49675D01*
Y-53675D02*
Y-51675D01*
X-4430Y-41430D02*
X-3045D01*
X-5825Y-42575D02*
X-3180D01*
X-24425Y-59250D02*
X-20050D01*
X-5680Y-75700D02*
X-3742D01*
X-38250Y-60750D02*
X-35575D01*
X-50525Y-61900D02*
Y-60475D01*
X-43160Y-56960D02*
X-41415D01*
X-41275Y-57100D01*
X-43160Y-59500D02*
X-42135Y-60525D01*
X-41125D01*
X-37280Y-75080D02*
X-35500D01*
X-37300Y-75100D02*
X-37280Y-75080D01*
X-26700Y-70550D02*
Y-69400D01*
X-33810Y-95570D02*
X-32515Y-94275D01*
Y-92665D01*
X-5525Y-88525D02*
Y-80625D01*
X-4430Y-79530D01*
X-6970D02*
X-5875Y-80625D01*
X-9518Y-85880D02*
X-5880D01*
X-5875Y-88175D02*
Y-80625D01*
X-4430Y-76990D02*
X-2700Y-78720D01*
X-6970Y-76990D02*
X-5735Y-78225D01*
X-3950D01*
X-3175Y-79000D01*
Y-88075D02*
Y-79000D01*
X-8042Y-77434D02*
Y-76546D01*
X-8352Y-78147D02*
X-6970Y-79530D01*
X-8352Y-78147D02*
Y-76340D01*
X-8042Y-76546D02*
X-7414Y-75918D01*
X-5503Y-74006D02*
X-4872Y-73375D01*
X-3825D01*
X-8352Y-76340D02*
X-7613Y-75600D01*
X-7414Y-75918D02*
X-6367D01*
X-5503Y-75052D01*
Y-74006D01*
X-7613Y-75600D02*
X-6500D01*
X-5850Y-74950D01*
Y-73675D01*
X-5157Y-72982D01*
X-3986D01*
X-8042Y-77434D02*
X-7227Y-78250D01*
X-6550D01*
X-6075Y-78725D01*
X-5235D01*
X-4430Y-79530D01*
X-23075Y-21425D02*
X-22425Y-22075D01*
X-57778Y-55400D02*
X-56225D01*
X-33250Y-64750D02*
Y-63575D01*
X-37175Y-68675D02*
X-33250Y-64750D01*
X-38997Y-68675D02*
X-37175D01*
X-37650Y-62425D02*
X-36975Y-61750D01*
X-35575D01*
X-59315Y-62416D02*
X-58625Y-61725D01*
X-56150D01*
X-55650Y-61225D01*
Y-55975D01*
X-56225Y-55400D02*
X-55650Y-55975D01*
X-13425Y-32200D02*
Y-29900D01*
X-25575Y-30175D02*
X-24375Y-31375D01*
X-29300Y-33875D02*
X-27000Y-31575D01*
X-28725Y-18950D02*
X-26400Y-16625D01*
X-23475D01*
X-13125Y-34675D02*
X-12350Y-33900D01*
X-13498Y-34327D02*
X-12927Y-33756D01*
X-17028Y-34548D02*
X-15450Y-36125D01*
X-17575Y-22675D02*
Y-21100D01*
Y-22675D02*
X-14550Y-25700D01*
X-12927Y-33756D02*
Y-29825D01*
X-12350Y-33900D02*
Y-29854D01*
X-14075Y-32838D02*
Y-29896D01*
X-24425Y-56250D02*
X-22494D01*
X-24425Y-56750D02*
X-23050D01*
X-28250Y-63575D02*
Y-62025D01*
X-28750Y-63575D02*
Y-61300D01*
X-29250Y-63575D02*
Y-62150D01*
X-29250Y-62150D01*
X-29750Y-63575D02*
Y-61475D01*
X-29750Y-61475D01*
X-25950Y-57750D02*
X-24425D01*
X-25600Y-57250D02*
X-24425D01*
X-30250Y-63575D02*
Y-62275D01*
X-56325Y-87575D02*
X-54770Y-86020D01*
X-34969D01*
X-59315Y-87134D02*
Y-62416D01*
Y-87134D02*
X-58875Y-87575D01*
X-56325D01*
X-56525Y-87100D02*
X-54300Y-84875D01*
X-58800Y-87100D02*
X-56525D01*
X-59006Y-86895D02*
X-58800Y-87100D01*
X-59006Y-86895D02*
Y-72055D01*
X-54450Y-67500D01*
X-22425Y-64125D02*
X-21950Y-64600D01*
X-3045Y-41430D02*
X-1300Y-43175D01*
X-4430Y-76990D02*
X-1300Y-73860D01*
Y-43175D01*
X-3742Y-75700D02*
X-1700Y-73658D01*
Y-44055D01*
X-3180Y-42575D02*
X-1700Y-44055D01*
X-3825Y-73375D02*
X-2150Y-71700D01*
Y-46250D01*
X-4430Y-43970D02*
X-2150Y-46250D01*
X-4430Y-71910D02*
X-3035Y-70515D01*
X-17275Y-64600D02*
X-16711Y-64036D01*
X-20550Y-68325D02*
X-18825Y-66600D01*
X-30700Y-75080D02*
X-27580D01*
X-16575Y-68100D02*
X-9518D01*
X-16600Y-68125D02*
X-16575Y-68100D01*
X-16550Y-65575D02*
X-5685D01*
X-16625Y-66825D02*
X-12250D01*
X-28725Y-70179D02*
X-27575Y-71329D01*
Y-73775D02*
Y-71329D01*
X-26250Y-76300D02*
X-25625Y-75675D01*
X-12095Y-75720D02*
X-9518D01*
X-12100Y-75725D02*
X-12095Y-75720D01*
X-17920Y-69370D02*
X-6970D01*
X-21250Y-70275D02*
X-16550Y-65575D01*
X-20500Y-70700D02*
X-16625Y-66825D01*
X-25625Y-75675D02*
Y-72800D01*
X-23100Y-70275D01*
X-21250D01*
X-25125Y-76075D02*
Y-72975D01*
X-22850Y-70700D01*
X-20500D01*
X-19800Y-71250D02*
X-17920Y-69370D01*
X-22600Y-71250D02*
X-19800D01*
X-23575Y-72225D02*
X-22600Y-71250D01*
X-23575Y-72700D02*
Y-72225D01*
X-32750Y-63575D02*
Y-62300D01*
X-24425Y-60750D02*
X-21750D01*
X-24425Y-59750D02*
X-22375D01*
X-22300Y-59825D01*
X-25638Y-60250D02*
X-24425D01*
X-25663Y-60225D02*
X-25638Y-60250D01*
X-19900Y-74450D02*
X-6970D01*
X-19900Y-74450D02*
X-19900Y-74450D01*
X-19925Y-75725D02*
X-12100D01*
X-25950Y-59550D02*
Y-59050D01*
X-25650Y-58750D01*
X-24425D01*
X-26900Y-60100D02*
X-25900Y-61100D01*
X-26900Y-60100D02*
Y-58700D01*
X-25950Y-57750D01*
X-21950Y-72375D02*
X-12925D01*
X-22500Y-72925D02*
X-21950Y-72375D01*
X-32250Y-62025D02*
X-32000Y-61775D01*
X-32250Y-63575D02*
Y-62025D01*
X-12925Y-72375D02*
X-11775Y-71225D01*
X-24425Y-58750D02*
X-20525D01*
X-19275Y-57500D01*
X-24425Y-58250D02*
X-21000D01*
X-19730Y-56980D01*
X-21120Y-73180D02*
X-9518D01*
X-21125Y-73175D02*
X-21120Y-73180D01*
X-29379Y-41500D02*
X-26075D01*
X-30750Y-43225D02*
X-25475Y-48500D01*
X-30975Y-43625D02*
X-25925Y-48675D01*
X-33750Y-53750D02*
Y-52425D01*
X-33775Y-53775D02*
X-33750Y-53750D01*
X-33250Y-52425D02*
Y-51300D01*
X-34875Y-49675D02*
X-33250Y-51300D01*
X-32760Y-45710D02*
X-32000Y-44950D01*
X-13524Y-53876D02*
X-9518D01*
X-11941Y-56416D02*
X-9518D01*
X-23425Y-44932D02*
X-11941Y-56416D01*
X-35575Y-55750D02*
X-29075D01*
X-28025Y-54700D01*
X-30183Y-55193D02*
X-29042D01*
X-28125Y-54275D01*
X-26750Y-53575D02*
X-26550Y-53775D01*
X-26175D01*
X-25475Y-53075D01*
Y-48500D01*
X-28125Y-54275D02*
X-26200D01*
X-28025Y-54700D02*
X-26175D01*
X-23925Y-52450D01*
X-21775D01*
X-25351Y-46674D02*
X-19730Y-52295D01*
Y-56980D02*
Y-52295D01*
X-19275Y-57500D02*
Y-52200D01*
X-25351Y-46674D02*
Y-39702D01*
X-18825Y-66600D02*
Y-51925D01*
X-24800Y-46675D02*
X-19275Y-52200D01*
X-24800Y-46675D02*
Y-39825D01*
X-24325Y-46425D02*
X-18825Y-51925D01*
X-24325Y-46425D02*
Y-42000D01*
X-23825Y-41500D01*
X-31750Y-52425D02*
Y-50823D01*
X-8425Y-52550D02*
X-6900Y-54075D01*
Y-58878D02*
Y-54075D01*
X-9518Y-61496D02*
X-6900Y-58878D01*
X-9518Y-61496D02*
X-5079D01*
X-3035Y-63540D01*
Y-70515D02*
Y-63540D01*
X-23275Y-46500D02*
Y-45975D01*
Y-46500D02*
X-10819Y-58956D01*
X-9518D01*
X-23400Y-44000D02*
X-13524Y-53876D01*
X-23400Y-44000D02*
Y-43200D01*
X-22175Y-44300D02*
X-13925Y-52550D01*
X-8425D01*
X-40600Y-76300D02*
X-26250D01*
X-40525Y-77225D02*
X-26275D01*
X-25125Y-76075D01*
X-51175Y-80775D02*
X-45075D01*
X-40600Y-76300D01*
X-48825Y-78275D02*
X-43550D01*
X-41550Y-76275D01*
X-41400Y-75500D02*
X-40600Y-76300D01*
X-41400Y-75500D02*
Y-71078D01*
X-38997Y-68675D01*
X-41925Y-75900D02*
X-41550Y-76275D01*
X-41925Y-75900D02*
Y-71125D01*
X-36350Y-93030D02*
X-33700Y-90380D01*
X-54300Y-84875D02*
X-34400D01*
X-33700Y-85575D01*
Y-90380D02*
Y-85575D01*
X-3986Y-72982D02*
X-2650Y-71647D01*
Y-46450D01*
X-6970Y-43970D02*
X-5690Y-45250D01*
X-3850D01*
X-2650Y-46450D01*
X-10400Y-30125D02*
Y-29100D01*
X-5825Y-24525D01*
X-4300D01*
X-24800Y-39825D02*
X-19400Y-34425D01*
Y-31375D01*
X-16425Y-38450D02*
X-15800D01*
X-15350Y-38900D01*
X-13400D01*
X-28250Y-51427D02*
X-27475Y-50652D01*
Y-49163D01*
X-27750Y-51405D02*
X-27100Y-50755D01*
X-27250Y-51400D02*
X-26525Y-50675D01*
Y-48875D01*
X-32760Y-49625D02*
Y-45710D01*
X-34425Y-44625D02*
X-33575Y-45475D01*
X-34875Y-49675D02*
Y-47225D01*
X-34200Y-48250D02*
Y-45775D01*
X-14825Y-87350D02*
X-14125Y-88050D01*
X-31098Y-87350D02*
X-14825D01*
X-32429Y-86020D02*
X-31098Y-87350D01*
X-39450Y-61875D02*
Y-60750D01*
X-54700Y-84075D02*
X-42375D01*
X-38500Y-61975D02*
X-37975Y-61450D01*
X-26450Y-30175D02*
X-25950Y-29675D01*
Y-28900D01*
X-26675Y-28175D02*
X-25950Y-28900D01*
X-27400Y-26175D02*
X-27000Y-26575D01*
X-27400Y-26175D02*
Y-22975D01*
X-26725Y-22300D01*
X-26100D01*
X-25675Y-22725D01*
X-25150Y-24150D02*
X-24575Y-23575D01*
Y-19275D01*
X-25675Y-18175D02*
X-24575Y-19275D01*
X-30650Y-36400D02*
X-29525Y-37525D01*
Y-39000D02*
Y-37525D01*
X-30125Y-36400D02*
Y-33025D01*
Y-36400D02*
X-29025Y-37500D01*
X-29325Y-13525D02*
X-26125Y-10325D01*
X-20050Y-23275D02*
Y-21400D01*
X-21950Y-19500D02*
X-20050Y-21400D01*
X-23050Y-19500D02*
X-21950D01*
X-20050Y-23275D02*
X-13425Y-29900D01*
X-20475Y-23487D02*
X-18579Y-25382D01*
X-22425Y-22075D02*
X-21350D01*
X-20475Y-22950D01*
Y-23487D02*
Y-22950D01*
X-23475Y-16625D02*
X-23375Y-16725D01*
X-29025Y-37500D02*
X-25900D01*
X-25150Y-36750D01*
Y-34375D01*
X-30650Y-36400D02*
Y-35200D01*
X-29798Y-35978D02*
Y-33423D01*
Y-35978D02*
X-29150Y-36625D01*
X-30750Y-63575D02*
Y-62025D01*
X-30875Y-61900D02*
X-30750Y-62025D01*
X-30875Y-61900D02*
Y-61200D01*
X-35912Y-42888D02*
X-35175Y-43625D01*
X-30975D01*
X-38775Y-41162D02*
Y-37100D01*
Y-41162D02*
X-35888Y-44050D01*
X-39350Y-41275D02*
Y-36425D01*
Y-41275D02*
X-36000Y-44625D01*
X-34425D01*
X-43450Y-25325D02*
X-41787D01*
X-40725Y-24263D01*
X-33963D01*
X-32075Y-26150D01*
X-13950Y-33713D02*
Y-32963D01*
X-14075Y-32838D02*
X-13950Y-32963D01*
X-30350Y-30737D02*
Y-26025D01*
X-31550Y-31938D02*
X-30350Y-30737D01*
X-29850Y-30875D02*
Y-26306D01*
X-31188Y-33537D02*
X-30650Y-34075D01*
X-31188Y-33537D02*
Y-32213D01*
X-29850Y-30875D01*
X-30625Y-32525D02*
X-29525Y-31425D01*
Y-26700D01*
X-32347Y-37028D02*
Y-34135D01*
X-31550Y-33338D01*
Y-31938D01*
X-28775Y-29062D02*
Y-26950D01*
Y-29062D02*
X-28525Y-29312D01*
Y-29725D02*
Y-29312D01*
X-17100Y-38850D02*
X-15026Y-40924D01*
X-9770D01*
X-16725Y-37775D02*
X-13725D01*
X-17302Y-38353D02*
X-16725Y-37775D01*
X-21100Y-38825D02*
X-20628Y-38353D01*
X-17302D01*
X-20425Y-38025D02*
X-17500D01*
X-16925Y-37450D01*
X-14050D01*
X-17688Y-37463D02*
X-17075Y-36850D01*
X-19325Y-36862D02*
Y-36300D01*
Y-36862D02*
X-18725Y-37463D01*
X-17688D01*
X-18200Y-36775D02*
Y-29504D01*
X-18889Y-28814D02*
X-18200Y-29504D01*
D44*
X-40237Y-14875D02*
X-30025D01*
X-43533Y-18170D02*
X-40237Y-14875D01*
X-21850Y-5875D02*
X-20350Y-7375D01*
X-21850Y-5875D02*
Y-1535D01*
X-49175Y-54775D02*
Y-48750D01*
X-55925Y-42000D02*
X-49175Y-48750D01*
X-57200Y-12845D02*
X-46305D01*
X-43475Y-15675D01*
Y-18170D02*
Y-15675D01*
X-59225Y-13620D02*
Y-12475D01*
X-47335Y-585D02*
X-22800D01*
X-59225Y-12475D02*
X-47335Y-585D01*
X-49175Y-54775D02*
X-48700Y-55250D01*
X-35575D01*
X-14550Y-1575D02*
X-14450Y-1675D01*
X-16800D02*
X-16775Y-1650D01*
X-33400Y-57250D02*
X-33025Y-57625D01*
X-35575Y-57250D02*
X-33400D01*
X-30025Y-14875D02*
X-25825Y-10675D01*
X-23575D01*
X-22600Y-9700D01*
X-25125Y-63575D02*
X-23000Y-65700D01*
X-26250Y-63575D02*
X-25125D01*
X-44490Y-55750D02*
X-35575D01*
X-22600Y-9700D02*
Y-6300D01*
X-2450Y-24200D02*
Y-22575D01*
X-4000Y-25750D02*
X-2450Y-24200D01*
X-11225Y-33600D02*
X-9425Y-31800D01*
X-52025Y-19545D02*
X-49400D01*
X-52375Y-19895D02*
X-52025Y-19545D01*
X-52375Y-19895D02*
Y-17570D01*
X-8450Y-14550D02*
X-6970Y-16030D01*
X-8450Y-14550D02*
Y-12450D01*
X-31000Y-66500D02*
Y-65600D01*
X-32100Y-66500D02*
Y-65600D01*
X-46875Y-63050D02*
X-40675D01*
X-48240Y-59500D02*
Y-56960D01*
X-45700D02*
X-44490Y-55750D01*
X-24300Y-65500D02*
X-24100Y-65700D01*
X-24300Y-65500D02*
Y-65200D01*
X-25000Y-64500D02*
X-24300Y-65200D01*
X-25600Y-65100D02*
X-25000Y-64500D01*
X-25600Y-65700D02*
Y-65100D01*
Y-66700D02*
X-25100Y-67200D01*
X-25600Y-66700D02*
Y-65700D01*
X-23500Y-67200D02*
X-22100D01*
X-23500D02*
X-23000Y-66700D01*
Y-65700D01*
X-25100Y-69400D02*
X-24600Y-68900D01*
X-23500D01*
X-28100Y-67200D02*
X-26700D01*
X-26700Y-67200D01*
X-26700Y-67200D02*
X-26700Y-67200D01*
X-26700Y-67200D02*
Y-65700D01*
X-26750Y-65650D02*
Y-63575D01*
X-32100Y-65600D02*
Y-65125D01*
X-31000Y-65500D02*
Y-65150D01*
X-38450Y-56576D02*
X-38326Y-56700D01*
X-12700Y-8725D02*
Y-8625D01*
X-22700Y-54400D02*
X-21900D01*
X-22950Y-54750D02*
X-22700Y-54500D01*
X-21975Y-53300D02*
X-21562Y-53713D01*
X-22700Y-53300D02*
X-21975D01*
X-30300Y-17025D02*
X-29350Y-16075D01*
X-33425Y-17025D02*
X-30300D01*
X-30600Y-50325D02*
X-30075D01*
X-31000Y-49925D02*
X-30600Y-50325D01*
X-30075Y-50600D02*
Y-50325D01*
Y-49225D02*
Y-48200D01*
X-24425Y-54750D02*
X-22950D01*
X-22700Y-53675D02*
Y-53300D01*
X-36825Y-56950D02*
X-36525Y-57250D01*
X-36975Y-56950D02*
X-36825D01*
X-37225Y-56700D02*
X-36975Y-56950D01*
X-36525Y-57250D02*
X-35575D01*
X-28000Y-7650D02*
Y-2150D01*
X-31150Y-9850D02*
X-31000Y-9700D01*
Y-7650D01*
X-30900Y-1425D02*
X-30800Y-1525D01*
X-30900Y-2050D02*
Y-1425D01*
X-31000Y-2150D02*
X-30900Y-2050D01*
X-8756Y-1518D02*
X-6470D01*
X-31000Y-7650D02*
Y-2150D01*
X-38775Y-54375D02*
X-38775Y-54375D01*
X-40225Y-54375D02*
X-38775D01*
X-41475Y-52975D02*
X-40475D01*
X-41925Y-53425D02*
X-41475Y-52975D01*
X-41925Y-54375D02*
Y-53425D01*
X-38775Y-50375D02*
X-38000D01*
X-40475D02*
X-38775D01*
X-40475Y-50375D02*
X-40475Y-50375D01*
X-38775Y-53275D02*
Y-51475D01*
X-38000Y-50375D02*
X-37725Y-50650D01*
X-35475Y-12350D02*
X-34500D01*
X-28000Y-2150D02*
Y-1675D01*
X-28150Y-1525D02*
X-28000Y-1675D01*
X-29125Y-1525D02*
X-28150D01*
X-37175Y-57750D02*
X-35575D01*
X-37725Y-53775D02*
Y-50650D01*
Y-53775D02*
X-37250Y-54250D01*
X-35575D01*
X-37450Y-54750D02*
X-35575D01*
X-37825Y-54375D02*
X-37450Y-54750D01*
X-38775Y-54375D02*
X-37825D01*
X-39950Y-56825D02*
X-39925D01*
X-39950D02*
X-39700Y-56575D01*
X-38326Y-56700D02*
X-37225D01*
Y-57800D02*
X-37175Y-57750D01*
X-37398Y-57973D02*
X-37225Y-57800D01*
X-38450Y-57973D02*
X-37398D01*
X-39699D02*
X-38450D01*
X-34150Y-13225D02*
Y-12000D01*
X-31750Y-64775D02*
Y-63575D01*
X-32100Y-65125D02*
X-31750Y-64775D01*
X-31250Y-64900D02*
X-31000Y-65150D01*
X-31250Y-64900D02*
Y-63575D01*
X-24425Y-62062D02*
Y-61750D01*
Y-62062D02*
X-23762Y-62725D01*
X-22650D01*
Y-61893D02*
Y-61625D01*
Y-61893D02*
X-22567Y-61976D01*
X-21742D01*
X-16050Y-9250D02*
X-15550Y-8750D01*
Y-6764D01*
X-15614Y-6700D02*
X-15550Y-6764D01*
X-15150Y-8750D02*
X-14500Y-9400D01*
X-15150Y-8750D02*
Y-6761D01*
X-14964Y-6575D01*
X-15614Y-6700D02*
Y-4489D01*
X-15600Y-4475D01*
X-14964Y-6575D02*
Y-4489D01*
X-14950Y-4475D01*
X-50500Y-63025D02*
X-48250D01*
X-50525Y-63000D02*
X-50500Y-63025D01*
X-48240D02*
Y-59500D01*
X-39700Y-59025D02*
Y-57950D01*
Y-59025D02*
X-39675Y-59050D01*
X-40325Y-57225D02*
X-39925Y-56825D01*
X-37550Y-59725D02*
X-37025Y-60250D01*
X-35575D01*
X-40875Y-59725D02*
X-37550D01*
X-45700Y-59500D02*
X-44615Y-58415D01*
X-41385D01*
X-41125Y-59425D02*
Y-58675D01*
X-41385Y-58415D02*
X-41125Y-58675D01*
X-24425Y-61250D02*
X-22750D01*
X-22650Y-61350D01*
Y-61625D02*
Y-61350D01*
X-22625Y-6275D02*
X-22600Y-6300D01*
X-59415Y-15060D02*
X-57200Y-12845D01*
X-59415Y-58843D02*
Y-15060D01*
Y-58843D02*
X-57778Y-60480D01*
X-59075Y-56643D02*
X-57778Y-57940D01*
X-59075Y-56643D02*
Y-15570D01*
X-56975Y-13495D02*
Y-13470D01*
X-59075Y-15570D02*
X-56975Y-13470D01*
X-22800Y-585D02*
X-21850Y-1535D01*
X-28975Y-49225D02*
Y-48500D01*
X-30075Y-48200D02*
X-29275D01*
X-28975Y-48500D01*
X-28750Y-53725D02*
Y-52425D01*
X-9425Y-31800D02*
Y-28800D01*
X-6375Y-25750D01*
X-4000D01*
X-24425Y-54250D02*
Y-53975D01*
X-24125Y-53675D01*
X-22700D01*
X-11225Y-34800D02*
Y-33600D01*
D45*
X-39925Y-30425D02*
X-38975D01*
X-25678Y-22079D02*
X-25597D01*
X-27635Y-73810D02*
X-27600Y-73775D01*
X-46225Y-31320D02*
X-43924D01*
X-47100Y-30445D02*
X-46225Y-31320D01*
X-51375Y-30445D02*
X-47100D01*
X-51400Y-30470D02*
X-51375Y-30445D01*
X-17237Y-7475D02*
X-17237Y-7475D01*
X-30800Y-1525D02*
X-30075D01*
X-35000Y-2150D02*
X-34125D01*
X-19025Y-7500D02*
X-19000D01*
X-17401Y-7494D02*
X-17237Y-7475D01*
D46*
X-40170Y-30670D02*
X-39925Y-30425D01*
X-34150Y-59750D02*
X-33800Y-60100D01*
X-35575Y-59750D02*
X-34150D01*
X-35575Y-59250D02*
X-33900D01*
X-33325Y-59825D01*
X-35575Y-58750D02*
X-33550D01*
X-32825Y-59475D01*
X-57778Y-83340D02*
X-55165D01*
X-32825Y-61000D01*
Y-59475D01*
X-57778Y-75720D02*
X-47948D01*
X-33325Y-61097D01*
Y-59825D01*
X-57778Y-73180D02*
X-45811D01*
X-33800Y-61169D01*
Y-60100D01*
X-35575Y-58250D02*
X-33405D01*
X-32540Y-59115D01*
X-41100Y-30670D02*
X-40170D01*
X-32540Y-61181D02*
Y-59115D01*
X-54700Y-83341D02*
X-32540Y-61181D01*
X-53875Y-83350D02*
X-43175D01*
X-57778Y-85880D02*
X-56505D01*
X-54700Y-84075D01*
Y-83341D01*
D47*
X-38750Y-15375D02*
X-29575D01*
X-40225Y-16850D02*
X-38750Y-15375D01*
X-13375Y-4800D02*
X-12025Y-3450D01*
Y-2188D01*
X-11512Y-1675D01*
X-19000Y-6400D02*
X-18975Y-6425D01*
X-18100D01*
Y-5875D01*
X-17825Y-5600D01*
Y-4800D01*
X-18850Y-3775D02*
X-17825Y-4800D01*
X-18850Y-3775D02*
Y-2513D01*
X-19688Y-1675D02*
X-18850Y-2513D01*
X-14650Y-1675D02*
X-14550Y-1575D01*
X-16800Y-1675D02*
X-14650D01*
X-14450D02*
X-11512D01*
X-19688D02*
X-16800D01*
X-29575Y-15375D02*
X-27825Y-13625D01*
X-23625D01*
X-23175Y-14075D01*
X-40225Y-16975D02*
Y-16850D01*
X-13350Y-7400D02*
X-12700D01*
X-14300D02*
X-13350D01*
X-11300Y-8625D02*
X-11200Y-8525D01*
Y-7500D01*
X-11200Y-7500D02*
X-11200Y-7500D01*
X-12600Y-8625D02*
Y-7500D01*
X-14300Y-7400D02*
Y-5150D01*
D48*
X-19600Y-18200D02*
Y-17775D01*
X-19800Y-17575D02*
X-19600Y-17775D01*
X-16400Y-9300D02*
X-16050D01*
X-15530Y-9820D01*
X-15150Y-9800D02*
X-14650Y-9300D01*
X-14300D01*
X-19800Y-17575D02*
Y-17100D01*
X-15530Y-12830D01*
Y-9820D01*
X-19150Y-17400D02*
Y-17000D01*
X-15150Y-13000D01*
Y-9800D01*
D49*
X-28550Y-50000D02*
X-28150Y-49600D01*
X-28975Y-50000D02*
X-28550D01*
X-28975Y-50325D02*
Y-50000D01*
X-29750Y-52425D02*
Y-50925D01*
X-30075Y-50600D02*
X-29750Y-50925D01*
X-28975Y-50575D02*
Y-50325D01*
X-29250Y-50850D02*
X-28975Y-50575D01*
X-29250Y-52425D02*
Y-50850D01*
D50*
X-23500Y-68050D02*
D03*
D51*
X-16750Y-1675D02*
D03*
X-14450D02*
D03*
D52*
X-46675Y-21745D02*
D03*
X-41075Y-54375D02*
D03*
D53*
X-13375Y-4800D02*
D03*
D54*
X-17825D02*
D03*
D55*
X-19250Y-1675D02*
D03*
X-11950D02*
D03*
D56*
X-57778Y-83340D02*
D03*
Y-85880D02*
D03*
Y-78260D02*
D03*
Y-80800D02*
D03*
Y-75720D02*
D03*
Y-73180D02*
D03*
X-9518Y-85880D02*
D03*
Y-83340D02*
D03*
Y-78260D02*
D03*
Y-80800D02*
D03*
Y-70640D02*
D03*
Y-68100D02*
D03*
Y-73180D02*
D03*
Y-75720D02*
D03*
Y-53876D02*
D03*
Y-46256D02*
D03*
Y-48796D02*
D03*
Y-58956D02*
D03*
Y-56416D02*
D03*
Y-61496D02*
D03*
Y-64036D02*
D03*
X-57778Y-50320D02*
D03*
Y-52860D02*
D03*
Y-57940D02*
D03*
Y-55400D02*
D03*
Y-65560D02*
D03*
Y-68100D02*
D03*
Y-63020D02*
D03*
Y-60480D02*
D03*
D57*
X-9518Y-51336D02*
D03*
Y-43716D02*
D03*
Y-41176D02*
D03*
X-55950Y-35570D02*
D03*
X-55925Y-42000D02*
D03*
X-6970Y-13490D02*
D03*
Y-64290D02*
D03*
Y-28730D02*
D03*
X-56000Y-19940D02*
D03*
X-51400Y-30470D02*
D03*
X-51300Y-38425D02*
D03*
D58*
X-55950Y-30490D02*
D03*
Y-33030D02*
D03*
X-55925Y-44540D02*
D03*
X-4430Y-13490D02*
D03*
Y-87150D02*
D03*
X-6970Y-76990D02*
D03*
X-4430D02*
D03*
Y-79530D02*
D03*
X-6970D02*
D03*
X-4430Y-82070D02*
D03*
Y-84610D02*
D03*
X-6970D02*
D03*
Y-87150D02*
D03*
X-4430Y-64290D02*
D03*
X-43160Y-59500D02*
D03*
Y-56960D02*
D03*
X-4430Y-51590D02*
D03*
X-6970Y-41430D02*
D03*
X-4430D02*
D03*
Y-43970D02*
D03*
X-6970D02*
D03*
Y-51590D02*
D03*
X-4430Y-28730D02*
D03*
X-18570Y-95570D02*
D03*
X-41430Y-93030D02*
D03*
X-38890D02*
D03*
Y-95570D02*
D03*
X-36350Y-93030D02*
D03*
Y-95570D02*
D03*
X-31270D02*
D03*
Y-93030D02*
D03*
X-41430Y-95570D02*
D03*
X-23065Y-12525D02*
D03*
X-20525D02*
D03*
X-51300Y-40965D02*
D03*
X-32429Y-86020D02*
D03*
X-34969Y-88560D02*
D03*
X-29889D02*
D03*
D59*
X-6970Y-16030D02*
D03*
X-4430D02*
D03*
X-6970Y-82070D02*
D03*
Y-74450D02*
D03*
Y-71910D02*
D03*
X-4430D02*
D03*
X-6970Y-69370D02*
D03*
X-4430D02*
D03*
X-6970Y-66830D02*
D03*
X-4430D02*
D03*
Y-74450D02*
D03*
X-45700Y-59500D02*
D03*
Y-56960D02*
D03*
X-48240D02*
D03*
X-4430Y-46510D02*
D03*
X-6970D02*
D03*
X-4430Y-49050D02*
D03*
X-6970D02*
D03*
Y-38890D02*
D03*
Y-36350D02*
D03*
X-4430D02*
D03*
X-6970Y-33810D02*
D03*
X-4430D02*
D03*
X-6970Y-31270D02*
D03*
X-4430D02*
D03*
Y-38890D02*
D03*
X-28730Y-95570D02*
D03*
X-21110D02*
D03*
Y-93030D02*
D03*
X-23650Y-95570D02*
D03*
Y-93030D02*
D03*
X-26190Y-95570D02*
D03*
Y-93030D02*
D03*
X-28730D02*
D03*
X-33810D02*
D03*
Y-95570D02*
D03*
X-56000Y-17400D02*
D03*
X-51400Y-27930D02*
D03*
X-34969Y-86020D02*
D03*
X-32429Y-88560D02*
D03*
D60*
X-38730Y-10950D02*
D03*
X-41270D02*
D03*
X-18570Y-93030D02*
D03*
X-29889Y-86020D02*
D03*
D61*
X-7530Y-21305D02*
D03*
X-4990Y-22575D02*
D03*
X-6260D02*
D03*
Y-21305D02*
D03*
X-4990D02*
D03*
X-3720D02*
D03*
X-2450D02*
D03*
D62*
X-7530Y-22575D02*
D03*
X-2450D02*
D03*
X-3720D02*
D03*
D63*
X-48240Y-59500D02*
D03*
X-17985Y-12525D02*
D03*
D64*
X-2350Y-2350D02*
D03*
X-57650D02*
D03*
X-2350Y-97650D02*
D03*
X-57650D02*
D03*
D65*
X-45550Y-33175D02*
D03*
X-38925Y-35525D02*
D03*
X-40200Y-37638D02*
D03*
X-41550Y-34275D02*
D03*
X-42725Y-35250D02*
D03*
X-44900Y-20700D02*
D03*
X-37300Y-29612D02*
D03*
X-45225Y-26825D02*
D03*
X-46375Y-27050D02*
D03*
X-47550Y-39775D02*
D03*
X-45400D02*
D03*
X-31688Y-26150D02*
D03*
X-33200Y-32300D02*
D03*
X-46600Y-27850D02*
D03*
X-47825Y-36000D02*
D03*
X-43450Y-25325D02*
D03*
X-43600Y-24600D02*
D03*
X-38525Y-29850D02*
D03*
X-39152Y-27001D02*
D03*
X-35588Y-25462D02*
D03*
X-32750Y-21425D02*
D03*
X-36050Y-21375D02*
D03*
X-30875Y-38500D02*
D03*
X-32050Y-32075D02*
D03*
X-36350Y-40775D02*
D03*
X-35950Y-27600D02*
D03*
X-43375Y-23145D02*
D03*
X-34025Y-27800D02*
D03*
X-36250Y-25900D02*
D03*
X-31600Y-22375D02*
D03*
X-31300Y-28250D02*
D03*
X-40550Y-26875D02*
D03*
X-37300Y-32100D02*
D03*
X-32575Y-29825D02*
D03*
X-32675Y-29000D02*
D03*
X-32100Y-28250D02*
D03*
X-35802Y-15951D02*
D03*
X-36228Y-13722D02*
D03*
X-37875Y-14350D02*
D03*
X-38925Y-16975D02*
D03*
X-43125Y-27750D02*
D03*
X-42675Y-28850D02*
D03*
X-43375Y-28525D02*
D03*
X-50525Y-60475D02*
D03*
X-19600Y-36025D02*
D03*
X-19975Y-36975D02*
D03*
X-16425Y-38450D02*
D03*
X-40175Y-86550D02*
D03*
X-37650Y-86625D02*
D03*
X-33025Y-57625D02*
D03*
X-27875Y-16625D02*
D03*
X-29975Y-13025D02*
D03*
X-28700Y-72450D02*
D03*
X-28850Y-73825D02*
D03*
X-28900Y-75075D02*
D03*
X-30650Y-35200D02*
D03*
X-34475Y-10800D02*
D03*
X-30075Y-19425D02*
D03*
X-29525Y-39000D02*
D03*
X-28175Y-70025D02*
D03*
X-20550Y-68325D02*
D03*
X-21850Y-78250D02*
D03*
X-33375Y-79200D02*
D03*
X-24825Y-49975D02*
D03*
X-22290Y-71910D02*
D03*
X-31450Y-54725D02*
D03*
X-13275Y-46225D02*
D03*
X-21775Y-52475D02*
D03*
X-25351Y-39702D02*
D03*
X-29150Y-36625D02*
D03*
X-21100Y-21425D02*
D03*
X-34875Y-47225D02*
D03*
X-31800Y-38375D02*
D03*
X-33302Y-38850D02*
D03*
X-39350Y-36425D02*
D03*
X-45600Y-23145D02*
D03*
X-31750Y-59825D02*
D03*
X-29675Y-59425D02*
D03*
X-31750Y-59025D02*
D03*
X-29675Y-58625D02*
D03*
X-33325Y-59825D02*
D03*
X-34150Y-59750D02*
D03*
X-29700Y-54675D02*
D03*
X-14175Y-36650D02*
D03*
X-17075Y-36850D02*
D03*
X-17975Y-38875D02*
D03*
X-19375Y-39200D02*
D03*
X-26450Y-29175D02*
D03*
X-25025Y-28800D02*
D03*
X-27750Y-29425D02*
D03*
X-24625Y-27150D02*
D03*
X-24075Y-26725D02*
D03*
X-27500Y-28575D02*
D03*
X-30900Y-25475D02*
D03*
X-45875Y-28775D02*
D03*
X-41375Y-14350D02*
D03*
X-37000Y-38475D02*
D03*
X-11225Y-34800D02*
D03*
X-17100Y-38850D02*
D03*
X-22275Y-29175D02*
D03*
X-23875Y-40075D02*
D03*
X-22350Y-32150D02*
D03*
X-24225Y-37550D02*
D03*
X-47500Y-17070D02*
D03*
X-26375Y-72800D02*
D03*
X-33825Y-69700D02*
D03*
X-30000D02*
D03*
X-40725Y-71125D02*
D03*
X-37675D02*
D03*
X-45875Y-30345D02*
D03*
X-47638Y-33287D02*
D03*
X-47050Y-38970D02*
D03*
X-46325Y-15045D02*
D03*
X-46125Y-20695D02*
D03*
X-43475Y-20270D02*
D03*
X-49400Y-16495D02*
D03*
X-40225Y-16975D02*
D03*
X-38025Y-38450D02*
D03*
X-7650Y-1525D02*
D03*
X-40800Y-12675D02*
D03*
X-12175Y-11575D02*
D03*
X-9825Y-15450D02*
D03*
X-12525Y-14110D02*
D03*
X-8450Y-12450D02*
D03*
X-17375Y-7525D02*
D03*
X-11950Y-9575D02*
D03*
X-8950Y-15525D02*
D03*
X-13275Y-11462D02*
D03*
X-21100Y-23300D02*
D03*
X-33775Y-53775D02*
D03*
X-34200Y-45775D02*
D03*
X-31000Y-66500D02*
D03*
X-32100D02*
D03*
X-25000Y-64500D02*
D03*
X-21562Y-53713D02*
D03*
X-18525Y-21300D02*
D03*
X-29250Y-22050D02*
D03*
X-26525Y-48875D02*
D03*
X-31000Y-49925D02*
D03*
X-775Y-11100D02*
D03*
X-35325Y-9950D02*
D03*
X-29350Y-16075D02*
D03*
X-26400Y-14300D02*
D03*
X-22100Y-15100D02*
D03*
X-16125Y-20275D02*
D03*
X-26925Y-7975D02*
D03*
Y-6750D02*
D03*
X-27425Y-4225D02*
D03*
X-25375Y-3400D02*
D03*
X-30075Y-1525D02*
D03*
X-24925Y-1500D02*
D03*
X-4900Y-23900D02*
D03*
X-40500Y-1500D02*
D03*
X-4900Y-26500D02*
D03*
Y-25200D02*
D03*
X-32390Y-6865D02*
D03*
Y-8465D02*
D03*
X-33290Y-7665D02*
D03*
X-3875Y-7025D02*
D03*
X-4550Y-9800D02*
D03*
X-17800Y-19100D02*
D03*
X-40325Y-57225D02*
D03*
X-26550Y-25500D02*
D03*
X-29125Y-1525D02*
D03*
X-14125Y-25100D02*
D03*
X-46725Y-49675D02*
D03*
X-24500Y-14375D02*
D03*
X-21200Y-15075D02*
D03*
X-14825Y-16325D02*
D03*
X-36062Y-8538D02*
D03*
X-23762Y-62725D02*
D03*
X-21742Y-61976D02*
D03*
X-19600Y-18200D02*
D03*
X-19150Y-17400D02*
D03*
X-40675Y-63050D02*
D03*
X-14075Y-27425D02*
D03*
X-12312Y-28175D02*
D03*
X-19525Y-27475D02*
D03*
X-21600Y-29675D02*
D03*
X-22900Y-28175D02*
D03*
X-14750Y-31350D02*
D03*
X-20175D02*
D03*
X-20950Y-29150D02*
D03*
X-25675Y-31350D02*
D03*
X-17525Y-33825D02*
D03*
X-16775Y-36050D02*
D03*
X-27525Y-38350D02*
D03*
X-28525Y-34225D02*
D03*
X-33175Y-35275D02*
D03*
X-36150Y-24800D02*
D03*
X-31525Y-21425D02*
D03*
X-33900Y-20000D02*
D03*
X-32975Y-18900D02*
D03*
X-11625Y-32850D02*
D03*
X-14800Y-38300D02*
D03*
X-23025Y-33825D02*
D03*
X-27750Y-36075D02*
D03*
X-33200Y-36850D02*
D03*
X-25250Y-33525D02*
D03*
X-15075Y-32125D02*
D03*
X-22250Y-36025D02*
D03*
X-46725Y-53675D02*
D03*
X-37300Y-75100D02*
D03*
X-26700Y-70550D02*
D03*
X-30075Y-48200D02*
D03*
X-28750Y-53725D02*
D03*
X-21900Y-54400D02*
D03*
X-13425Y-32200D02*
D03*
X-22650Y-24450D02*
D03*
X-23375Y-16725D02*
D03*
X-25150Y-34375D02*
D03*
X-51175Y-47925D02*
D03*
X-22600Y-6300D02*
D03*
X-56975Y-13495D02*
D03*
X-34125Y-2150D02*
D03*
X-20350Y-7375D02*
D03*
X-59225Y-13620D02*
D03*
X-48825Y-78275D02*
D03*
X-51175Y-80800D02*
D03*
X-37650Y-62425D02*
D03*
X-38775Y-52375D02*
D03*
X-26450Y-36950D02*
D03*
X-10400Y-30125D02*
D03*
X-15450Y-36850D02*
D03*
X-20175Y-32100D02*
D03*
X-15500Y-29175D02*
D03*
X-17425Y-28175D02*
D03*
X-16775Y-29300D02*
D03*
X-16100Y-29775D02*
D03*
X-30125Y-37650D02*
D03*
X-22494Y-56250D02*
D03*
X-23075Y-56750D02*
D03*
X-22375Y-59750D02*
D03*
X-25663Y-60250D02*
D03*
X-21750Y-60750D02*
D03*
X-20050Y-59250D02*
D03*
X-28250Y-62025D02*
D03*
X-27641Y-56625D02*
D03*
X-29750Y-61475D02*
D03*
X-29250Y-62150D02*
D03*
X-28750Y-61300D02*
D03*
X-28438Y-57350D02*
D03*
X-30250Y-62275D02*
D03*
X-26075Y-41500D02*
D03*
X-23825D02*
D03*
X-21950Y-64600D02*
D03*
X-17275D02*
D03*
X-16600Y-68125D02*
D03*
X-40600Y-77225D02*
D03*
X-23575Y-72700D02*
D03*
X-21125Y-73200D02*
D03*
X-19900Y-74450D02*
D03*
X-19925Y-75750D02*
D03*
X-32750Y-62300D02*
D03*
X-23151Y-57453D02*
D03*
X-25950Y-59550D02*
D03*
X-25900Y-61100D02*
D03*
X-20900Y-63750D02*
D03*
X-11775Y-71225D02*
D03*
X-22500Y-72925D02*
D03*
X-32000Y-61775D02*
D03*
X-21000Y-58250D02*
D03*
X-32000Y-44950D02*
D03*
X-23400Y-43200D02*
D03*
X-32760Y-49625D02*
D03*
X-23275Y-45975D02*
D03*
X-23400Y-44925D02*
D03*
X-22175Y-44300D02*
D03*
X-41550Y-76275D02*
D03*
X-32250Y-53703D02*
D03*
X-31650Y-48050D02*
D03*
X-34200Y-48250D02*
D03*
X-14125Y-88050D02*
D03*
X-39450Y-61875D02*
D03*
X-46100Y-89825D02*
D03*
X-53875Y-83350D02*
D03*
X-43150Y-83375D02*
D03*
X-42375Y-84075D02*
D03*
X-18875Y-33625D02*
D03*
X-18662Y-39123D02*
D03*
X-28275Y-28850D02*
D03*
D66*
X-45125Y-27850D02*
D03*
X-18175Y-36775D02*
D03*
X-21212Y-27737D02*
D03*
X-38775Y-37100D02*
D03*
X-44700Y-17095D02*
D03*
X-28525Y-29675D02*
D03*
X-34725Y-26875D02*
D03*
X-20875Y-37575D02*
D03*
X-21100Y-38825D02*
D03*
X-30750Y-14175D02*
D03*
X-28150Y-49600D02*
D03*
X-1200Y-7250D02*
D03*
X-6350Y-8750D02*
D03*
Y-10050D02*
D03*
X-2800Y-12250D02*
D03*
X-29850Y-20250D02*
D03*
X-13350Y-7400D02*
D03*
X-39675Y-59050D02*
D03*
X-29925Y-25000D02*
D03*
X-33425Y-17025D02*
D03*
X-18350Y-22275D02*
D03*
X-16100Y-16425D02*
D03*
X-34150Y-13225D02*
D03*
X-23950Y-25475D02*
D03*
X-23075Y-29650D02*
D03*
X-40175Y-45975D02*
D03*
X-38525Y-61950D02*
D03*
X-29300Y-33875D02*
D03*
X-24375Y-33750D02*
D03*
X-13950Y-33713D02*
D03*
X-27750Y-27425D02*
D03*
X-18325Y-27350D02*
D03*
X-30875Y-61200D02*
D03*
X-52375Y-18725D02*
D03*
X-20263Y-52888D02*
D03*
X-28525Y-37500D02*
D03*
X-47675Y-28575D02*
D03*
X-43924Y-35000D02*
D03*
X-47525Y-20800D02*
D03*
X-49550Y-32345D02*
D03*
X-35912Y-42888D02*
D03*
X-35575Y-36925D02*
D03*
X-30625Y-32525D02*
D03*
D67*
X-26325Y-21425D02*
D03*
X-23525Y-17375D02*
D03*
X-25025Y-20775D02*
D03*
Y-20125D02*
D03*
X-25025Y-21425D02*
D03*
Y-23375D02*
D03*
X-23726Y-20126D02*
D03*
X-25675Y-20125D02*
D03*
X-25675Y-22725D02*
D03*
X-26325Y-22725D02*
D03*
X-23050Y-19500D02*
D03*
X-26975Y-23375D02*
D03*
X-23175Y-14075D02*
D03*
X-25678Y-22079D02*
D03*
X-23075Y-21425D02*
D03*
X-23075Y-22075D02*
D03*
X-23725Y-19475D02*
D03*
X-23075Y-18825D02*
D03*
X-25675Y-18175D02*
D03*
X-25025D02*
D03*
X-26325Y-20125D02*
D03*
Y-19475D02*
D03*
X-26975Y-18825D02*
D03*
M02*
