G04 Layer_Color=8421504*
%FSLAX43Y43*%
%MOMM*%
G71*
G01*
G75*
%ADD11R,0.400X1.350*%
%ADD12R,1.000X2.250*%
%ADD14R,1.150X1.400*%
%ADD15R,1.600X1.000*%
%ADD16R,2.500X3.000*%
%ADD18R,0.700X0.300*%
%ADD19R,0.675X0.350*%
%ADD21O,0.300X1.650*%
%ADD22O,1.650X0.300*%
%ADD23R,2.200X0.600*%
%ADD24R,1.400X0.600*%
%ADD25R,1.200X1.200*%
%ADD26R,1.100X1.000*%
%ADD27R,1.100X0.600*%
%ADD28R,0.700X0.700*%
%ADD29R,2.800X1.400*%
%ADD30R,0.762X0.762*%
%ADD31R,2.700X1.250*%
%ADD32R,1.500X1.350*%
%ADD33R,0.900X0.600*%
%ADD34R,0.600X0.900*%
%ADD36R,0.650X0.800*%
%ADD37R,0.800X0.650*%
%ADD38R,0.550X0.600*%
%ADD39R,0.500X0.650*%
%ADD40R,1.200X1.200*%
%ADD41R,0.700X0.700*%
%ADD42R,0.600X0.550*%
G04:AMPARAMS|DCode=116|XSize=1.05mm|YSize=1.25mm|CornerRadius=0.525mm|HoleSize=0mm|Usage=FLASHONLY|Rotation=180.000|XOffset=0mm|YOffset=0mm|HoleType=Round|Shape=RoundedRectangle|*
%AMROUNDEDRECTD116*
21,1,1.050,0.200,0,0,180.0*
21,1,0.000,1.250,0,0,180.0*
1,1,1.050,0.000,0.100*
1,1,1.050,0.000,0.100*
1,1,1.050,0.000,-0.100*
1,1,1.050,0.000,-0.100*
%
%ADD116ROUNDEDRECTD116*%
G04:AMPARAMS|DCode=117|XSize=2.1mm|YSize=1.9mm|CornerRadius=0.494mm|HoleSize=0mm|Usage=FLASHONLY|Rotation=180.000|XOffset=0mm|YOffset=0mm|HoleType=Round|Shape=RoundedRectangle|*
%AMROUNDEDRECTD117*
21,1,2.100,0.912,0,0,180.0*
21,1,1.112,1.900,0,0,180.0*
1,1,0.988,-0.556,0.456*
1,1,0.988,0.556,0.456*
1,1,0.988,0.556,-0.456*
1,1,0.988,-0.556,-0.456*
%
%ADD117ROUNDEDRECTD117*%
%ADD118R,1.700X1.700*%
%ADD119R,2.100X2.100*%
%ADD120R,2.100X2.100*%
%ADD121C,1.050*%
%ADD122R,1.750X1.750*%
%ADD123R,1.700X1.700*%
%ADD124R,1.550X1.125*%
%ADD125R,1.350X1.550*%
%ADD126R,1.300X1.400*%
G36*
X-18200Y-2625D02*
X-19800D01*
X-19848Y-2621D01*
X-19901Y-2614D01*
X-19954Y-2599D01*
X-19997Y-2583D01*
X-20039Y-2563D01*
X-20083Y-2535D01*
X-20121Y-2506D01*
X-20160Y-2472D01*
X-20189Y-2436D01*
X-20217Y-2399D01*
X-20241Y-2358D01*
X-20261Y-2316D01*
X-20277Y-2274D01*
X-20289Y-2223D01*
X-20296Y-2178D01*
X-20300Y-2125D01*
Y-1225D01*
X-20296Y-1170D01*
X-20288Y-1125D01*
X-20276Y-1075D01*
X-20260Y-1035D01*
X-20247Y-1002D01*
X-20222Y-959D01*
X-20196Y-922D01*
X-20165Y-884D01*
X-20120Y-843D01*
X-20080Y-813D01*
X-20034Y-784D01*
X-19981Y-760D01*
X-19894Y-734D01*
X-19800Y-725D01*
X-18200D01*
Y-2625D01*
D02*
G37*
G36*
X-11352Y-729D02*
X-11299Y-736D01*
X-11246Y-751D01*
X-11203Y-767D01*
X-11161Y-787D01*
X-11117Y-815D01*
X-11079Y-844D01*
X-11040Y-878D01*
X-11011Y-914D01*
X-10983Y-951D01*
X-10959Y-992D01*
X-10939Y-1034D01*
X-10923Y-1076D01*
X-10911Y-1127D01*
X-10904Y-1172D01*
X-10900Y-1225D01*
Y-2125D01*
X-10904Y-2180D01*
X-10912Y-2225D01*
X-10924Y-2275D01*
X-10940Y-2315D01*
X-10953Y-2348D01*
X-10978Y-2391D01*
X-11004Y-2428D01*
X-11035Y-2466D01*
X-11080Y-2507D01*
X-11120Y-2537D01*
X-11166Y-2566D01*
X-11219Y-2590D01*
X-11306Y-2616D01*
X-11400Y-2625D01*
X-13000D01*
Y-725D01*
X-11400D01*
X-11352Y-729D01*
D02*
G37*
D11*
X-14300Y-4475D02*
D03*
X-14950D02*
D03*
X-15600D02*
D03*
X-16250D02*
D03*
X-16900D02*
D03*
D12*
X-35000Y-7650D02*
D03*
Y-2150D02*
D03*
X-31000D02*
D03*
Y-7650D02*
D03*
X-28000D02*
D03*
Y-2150D02*
D03*
X-24000D02*
D03*
Y-7650D02*
D03*
X-31625Y-29875D02*
D03*
Y-35375D02*
D03*
X-35625D02*
D03*
Y-29875D02*
D03*
D14*
X-26700Y-67200D02*
D03*
Y-69400D02*
D03*
X-25100D02*
D03*
Y-67200D02*
D03*
D15*
X-40475Y-50375D02*
D03*
Y-52975D02*
D03*
D16*
X-46725Y-51675D02*
D03*
D18*
X-40625Y-72175D02*
D03*
Y-72675D02*
D03*
Y-73175D02*
D03*
Y-73675D02*
D03*
X-37725D02*
D03*
Y-73175D02*
D03*
Y-72675D02*
D03*
Y-72175D02*
D03*
D19*
X-41100Y-32620D02*
D03*
Y-31970D02*
D03*
Y-31320D02*
D03*
Y-30670D02*
D03*
X-43924D02*
D03*
Y-31320D02*
D03*
Y-31970D02*
D03*
Y-32620D02*
D03*
X-44700Y-19720D02*
D03*
Y-19070D02*
D03*
Y-18420D02*
D03*
Y-17770D02*
D03*
X-47525D02*
D03*
Y-18420D02*
D03*
Y-19070D02*
D03*
Y-19720D02*
D03*
D21*
X-33750Y-52425D02*
D03*
X-33250D02*
D03*
X-32750D02*
D03*
X-32250D02*
D03*
X-31750D02*
D03*
X-31250D02*
D03*
X-30750D02*
D03*
X-30250D02*
D03*
X-29750D02*
D03*
X-29250D02*
D03*
X-28750D02*
D03*
X-28250D02*
D03*
X-27750D02*
D03*
X-27250D02*
D03*
X-26750D02*
D03*
X-26250D02*
D03*
Y-63575D02*
D03*
X-26750D02*
D03*
X-27250D02*
D03*
X-27750D02*
D03*
X-28250D02*
D03*
X-28750D02*
D03*
X-29250D02*
D03*
X-29750D02*
D03*
X-30250D02*
D03*
X-30750D02*
D03*
X-31250D02*
D03*
X-31750D02*
D03*
X-32250D02*
D03*
X-32750D02*
D03*
X-33250D02*
D03*
X-33750D02*
D03*
D22*
X-24425Y-54250D02*
D03*
Y-54750D02*
D03*
Y-55250D02*
D03*
Y-55750D02*
D03*
Y-56250D02*
D03*
Y-56750D02*
D03*
Y-57250D02*
D03*
Y-57750D02*
D03*
Y-58250D02*
D03*
Y-58750D02*
D03*
Y-59250D02*
D03*
Y-59750D02*
D03*
Y-60250D02*
D03*
Y-60750D02*
D03*
Y-61250D02*
D03*
Y-61750D02*
D03*
X-35575D02*
D03*
Y-61250D02*
D03*
Y-60750D02*
D03*
Y-60250D02*
D03*
Y-59750D02*
D03*
Y-59250D02*
D03*
Y-58750D02*
D03*
Y-58250D02*
D03*
Y-57750D02*
D03*
Y-57250D02*
D03*
Y-56750D02*
D03*
Y-56250D02*
D03*
Y-55750D02*
D03*
Y-55250D02*
D03*
Y-54750D02*
D03*
Y-54250D02*
D03*
D23*
X-30700Y-75080D02*
D03*
Y-73810D02*
D03*
Y-72540D02*
D03*
Y-71270D02*
D03*
X-35500Y-75080D02*
D03*
Y-73810D02*
D03*
Y-72540D02*
D03*
Y-71270D02*
D03*
D24*
X-50100Y-35520D02*
D03*
Y-33620D02*
D03*
X-52000Y-34570D02*
D03*
D25*
X-34150Y-11900D02*
D03*
X-32050D02*
D03*
D26*
X-16400Y-7600D02*
D03*
D27*
Y-9300D02*
D03*
X-14300D02*
D03*
Y-7400D02*
D03*
D28*
X-46850Y-63025D02*
D03*
X-48250D02*
D03*
X-11200Y-7500D02*
D03*
X-12600D02*
D03*
D29*
X-52375Y-14670D02*
D03*
Y-17570D02*
D03*
Y-19895D02*
D03*
Y-22795D02*
D03*
D30*
X-38450Y-57973D02*
D03*
Y-56576D02*
D03*
X-36100Y-49939D02*
D03*
Y-51336D02*
D03*
D31*
X-47050Y-34570D02*
D03*
Y-37620D02*
D03*
D32*
X-49400Y-19545D02*
D03*
Y-17895D02*
D03*
D33*
X-32475Y-69700D02*
D03*
X-31375D02*
D03*
X-32100Y-65600D02*
D03*
X-31000D02*
D03*
X-25600Y-65700D02*
D03*
X-26700D02*
D03*
X-24100D02*
D03*
X-23000D02*
D03*
X-45975Y-16295D02*
D03*
X-44875D02*
D03*
X-48225Y-32400D02*
D03*
X-47125D02*
D03*
X-39675Y-71125D02*
D03*
X-38575D02*
D03*
X-27225Y-9700D02*
D03*
X-26125D02*
D03*
D34*
X-28525Y-50325D02*
D03*
Y-49225D02*
D03*
X-41150Y-56000D02*
D03*
Y-57100D02*
D03*
X-41125Y-59425D02*
D03*
Y-60525D02*
D03*
X-38775Y-51475D02*
D03*
Y-50375D02*
D03*
Y-53275D02*
D03*
Y-54375D02*
D03*
X-22800Y-54450D02*
D03*
Y-53350D02*
D03*
X-22650Y-62725D02*
D03*
Y-61625D02*
D03*
X-30737Y-49225D02*
D03*
Y-50325D02*
D03*
X-29638Y-49225D02*
D03*
Y-50325D02*
D03*
X-37225Y-56700D02*
D03*
Y-57800D02*
D03*
X-43475Y-19270D02*
D03*
Y-18170D02*
D03*
X-47500Y-15045D02*
D03*
Y-16145D02*
D03*
X-45225Y-30270D02*
D03*
Y-31370D02*
D03*
X-50525Y-61900D02*
D03*
Y-63000D02*
D03*
D36*
X-22000Y-67100D02*
D03*
Y-68300D02*
D03*
X-28100Y-67200D02*
D03*
Y-68400D02*
D03*
X-47675Y-31045D02*
D03*
Y-29845D02*
D03*
X-49050Y-29845D02*
D03*
Y-31045D02*
D03*
X-39500Y-33825D02*
D03*
Y-32625D02*
D03*
X-39475Y-31025D02*
D03*
Y-29825D02*
D03*
X-35700Y-11400D02*
D03*
Y-12600D02*
D03*
D37*
X-27575Y-73775D02*
D03*
X-26375D02*
D03*
X-27575Y-75075D02*
D03*
X-26375D02*
D03*
X-43925Y-34270D02*
D03*
X-42725D02*
D03*
X-53700Y-47900D02*
D03*
X-52500D02*
D03*
X-32200Y-9900D02*
D03*
X-31000D02*
D03*
X-38250Y-60750D02*
D03*
X-39450D02*
D03*
D38*
X-19000Y-7400D02*
D03*
Y-6400D02*
D03*
X-36800Y-10900D02*
D03*
Y-11900D02*
D03*
D39*
X-18100Y-6425D02*
D03*
Y-7375D02*
D03*
X-12600Y-9575D02*
D03*
Y-8625D02*
D03*
X-11300Y-9575D02*
D03*
Y-8625D02*
D03*
D40*
X-6500Y-1450D02*
D03*
Y-3550D02*
D03*
X-8750Y-1450D02*
D03*
Y-3550D02*
D03*
D41*
X-39700Y-56550D02*
D03*
Y-57950D02*
D03*
D42*
X-23950Y-9700D02*
D03*
X-24950D02*
D03*
D116*
X-17825Y-4800D02*
D03*
X-13375D02*
D03*
D117*
X-19250Y-1675D02*
D03*
X-11950D02*
D03*
D118*
X-57778Y-84610D02*
D03*
Y-82070D02*
D03*
Y-79530D02*
D03*
Y-76990D02*
D03*
Y-74450D02*
D03*
Y-71910D02*
D03*
D119*
X-9518Y-84610D02*
D03*
Y-82070D02*
D03*
Y-79530D02*
D03*
Y-76990D02*
D03*
Y-74450D02*
D03*
Y-71910D02*
D03*
Y-69370D02*
D03*
Y-66830D02*
D03*
Y-39906D02*
D03*
Y-42446D02*
D03*
Y-44986D02*
D03*
Y-47526D02*
D03*
Y-50066D02*
D03*
Y-52606D02*
D03*
Y-55146D02*
D03*
Y-57686D02*
D03*
Y-60226D02*
D03*
Y-62766D02*
D03*
X-28730Y-95570D02*
D03*
Y-93030D02*
D03*
X-26190Y-95570D02*
D03*
Y-93030D02*
D03*
X-23650Y-95570D02*
D03*
Y-93030D02*
D03*
X-21110Y-95570D02*
D03*
Y-93030D02*
D03*
X-18570Y-95570D02*
D03*
X-31270Y-93030D02*
D03*
Y-95570D02*
D03*
X-33810Y-93030D02*
D03*
Y-95570D02*
D03*
X-36350Y-93030D02*
D03*
Y-95570D02*
D03*
X-38890Y-93030D02*
D03*
Y-95570D02*
D03*
X-41430Y-93030D02*
D03*
Y-95570D02*
D03*
X-18570Y-93030D02*
D03*
X-57778Y-49050D02*
D03*
Y-51590D02*
D03*
Y-54130D02*
D03*
Y-56670D02*
D03*
Y-59210D02*
D03*
Y-61750D02*
D03*
Y-64290D02*
D03*
Y-66830D02*
D03*
X-23065Y-12525D02*
D03*
X-20525D02*
D03*
X-17985D02*
D03*
D120*
X-57778Y-30490D02*
D03*
Y-33030D02*
D03*
Y-35570D02*
D03*
X-48240Y-67120D02*
D03*
Y-69660D02*
D03*
X-6970Y-64290D02*
D03*
X-4430Y-87150D02*
D03*
X-6970D02*
D03*
X-4430Y-84610D02*
D03*
X-6970D02*
D03*
X-4430Y-82070D02*
D03*
X-6970D02*
D03*
X-4430Y-79530D02*
D03*
X-6970D02*
D03*
X-4430Y-76990D02*
D03*
X-6970D02*
D03*
X-4430Y-64290D02*
D03*
X-6970Y-66830D02*
D03*
X-4430D02*
D03*
X-6970Y-69370D02*
D03*
X-4430D02*
D03*
X-6970Y-71910D02*
D03*
X-4430D02*
D03*
X-6970Y-74450D02*
D03*
X-4430D02*
D03*
X-6970Y-28730D02*
D03*
X-4430Y-51590D02*
D03*
X-6970D02*
D03*
X-4430Y-49050D02*
D03*
X-6970D02*
D03*
X-4430Y-46510D02*
D03*
X-6970D02*
D03*
X-4430Y-43970D02*
D03*
X-6970D02*
D03*
X-4430Y-41430D02*
D03*
X-6970D02*
D03*
X-4430Y-28730D02*
D03*
X-6970Y-31270D02*
D03*
X-4430D02*
D03*
X-6970Y-33810D02*
D03*
X-4430D02*
D03*
X-6970Y-36350D02*
D03*
X-4430D02*
D03*
X-6970Y-38890D02*
D03*
X-4430D02*
D03*
X-56000Y-19940D02*
D03*
Y-17400D02*
D03*
X-51300Y-38925D02*
D03*
Y-41465D02*
D03*
X-51400Y-29958D02*
D03*
Y-27417D02*
D03*
X-6970Y-13490D02*
D03*
X-4430D02*
D03*
X-6970Y-16030D02*
D03*
X-4430D02*
D03*
D121*
X-2450Y-21305D02*
D03*
Y-22575D02*
D03*
X-3720Y-21305D02*
D03*
Y-22575D02*
D03*
X-4990Y-21305D02*
D03*
Y-22575D02*
D03*
X-6260Y-21305D02*
D03*
Y-22575D02*
D03*
X-7530Y-21305D02*
D03*
Y-22575D02*
D03*
D122*
X-48240Y-59500D02*
D03*
Y-56960D02*
D03*
X-45700Y-59500D02*
D03*
Y-56960D02*
D03*
X-43160Y-59500D02*
D03*
Y-56960D02*
D03*
X-29889Y-84750D02*
D03*
Y-87290D02*
D03*
X-32429Y-84750D02*
D03*
Y-87290D02*
D03*
X-34969Y-84750D02*
D03*
Y-87290D02*
D03*
D123*
X-41270Y-10950D02*
D03*
X-38730D02*
D03*
D124*
X-42512Y-31033D02*
D03*
X-42512Y-32257D02*
D03*
X-46112Y-18133D02*
D03*
X-46112Y-19357D02*
D03*
D125*
X-39175Y-72925D02*
D03*
D126*
X-16750Y-1675D02*
D03*
X-14450D02*
D03*
M02*
