G04 Layer_Color=128*
%FSLAX43Y43*%
%MOMM*%
G71*
G01*
G75*
%ADD28R,0.700X0.700*%
%ADD32R,1.500X1.350*%
%ADD33R,0.900X0.600*%
%ADD36R,0.650X0.800*%
%ADD37R,0.800X0.650*%
%ADD38R,0.550X0.600*%
%ADD39R,0.500X0.650*%
%ADD42R,0.600X0.550*%
%ADD89R,1.300X1.600*%
%ADD92R,0.250X0.400*%
%ADD93R,0.400X0.250*%
%ADD94C,0.280*%
%ADD95R,0.400X1.000*%
%ADD96R,1.050X0.720*%
%ADD97R,0.300X0.350*%
%ADD98R,1.050X0.600*%
%ADD99R,1.300X0.600*%
%ADD100R,0.350X0.850*%
%ADD101R,0.600X1.400*%
%ADD102R,0.800X0.850*%
%ADD103R,0.650X0.500*%
%ADD104R,0.720X1.050*%
%ADD105R,0.350X0.300*%
%ADD106R,1.000X0.400*%
%ADD107C,0.800*%
%ADD197R,0.800X0.250*%
%ADD198R,0.900X0.250*%
%ADD199R,0.900X1.500*%
%ADD200R,0.550X0.250*%
D28*
X-31375Y-20000D02*
D03*
X-32775D02*
D03*
D32*
X-15125Y-8650D02*
D03*
Y-10300D02*
D03*
X-38612Y-18663D02*
D03*
Y-17013D02*
D03*
X-23100Y-6525D02*
D03*
Y-8175D02*
D03*
D33*
X-40150Y-12965D02*
D03*
X-39050D02*
D03*
D36*
X-43138Y-15365D02*
D03*
Y-16565D02*
D03*
X-8950Y-14675D02*
D03*
Y-13475D02*
D03*
X-34900Y-18025D02*
D03*
Y-19225D02*
D03*
X-36200Y-19225D02*
D03*
Y-18025D02*
D03*
X-41787Y-15365D02*
D03*
Y-16565D02*
D03*
X-1200Y-8600D02*
D03*
Y-9800D02*
D03*
X-5200Y-9800D02*
D03*
Y-8600D02*
D03*
X-26950Y-12462D02*
D03*
Y-11262D02*
D03*
X-36600Y-10950D02*
D03*
Y-12150D02*
D03*
X-35325Y-12150D02*
D03*
Y-10950D02*
D03*
X-13350Y-34825D02*
D03*
Y-36025D02*
D03*
X-11325Y-30150D02*
D03*
Y-31350D02*
D03*
X-11300Y-28712D02*
D03*
Y-27513D02*
D03*
D37*
X-12075Y-10700D02*
D03*
X-13275D02*
D03*
X-13425Y-12450D02*
D03*
X-12225D02*
D03*
X-9038Y-25200D02*
D03*
X-10238D02*
D03*
X-5800D02*
D03*
X-7000D02*
D03*
X-5800Y-26500D02*
D03*
X-7000D02*
D03*
X-5300Y-11100D02*
D03*
X-4100D02*
D03*
X-2800D02*
D03*
X-1600D02*
D03*
X-43575Y-29775D02*
D03*
X-44775D02*
D03*
D38*
X-40125Y-39763D02*
D03*
Y-38763D02*
D03*
X-20300Y-18200D02*
D03*
Y-19200D02*
D03*
X-18775Y-34975D02*
D03*
Y-35975D02*
D03*
X-16775Y-30250D02*
D03*
Y-31250D02*
D03*
X-33200Y-31375D02*
D03*
Y-30375D02*
D03*
X-27750Y-31325D02*
D03*
Y-30325D02*
D03*
X-22275Y-31250D02*
D03*
Y-30250D02*
D03*
X-24350Y-35975D02*
D03*
Y-34975D02*
D03*
X-29800Y-36025D02*
D03*
Y-35025D02*
D03*
X-20300Y-17200D02*
D03*
Y-16200D02*
D03*
X-45125Y-34787D02*
D03*
Y-35787D02*
D03*
X-45263Y-37250D02*
D03*
Y-38250D02*
D03*
X-16900Y-18400D02*
D03*
Y-17400D02*
D03*
D39*
X-43138Y-12887D02*
D03*
Y-13837D02*
D03*
X-33975Y-36050D02*
D03*
Y-35100D02*
D03*
X-30875Y-22375D02*
D03*
Y-21425D02*
D03*
X-30000Y-22375D02*
D03*
Y-21425D02*
D03*
X-17800Y-18375D02*
D03*
Y-17425D02*
D03*
X-16900Y-20275D02*
D03*
Y-19325D02*
D03*
X-20950Y-31275D02*
D03*
Y-30325D02*
D03*
X-23025Y-35950D02*
D03*
Y-35000D02*
D03*
X-17525Y-35950D02*
D03*
Y-35000D02*
D03*
X-15500Y-31275D02*
D03*
Y-30325D02*
D03*
X-37375Y-25825D02*
D03*
Y-24875D02*
D03*
X-42025Y-24900D02*
D03*
Y-25850D02*
D03*
X-31925Y-31350D02*
D03*
Y-30400D02*
D03*
X-37287Y-31400D02*
D03*
Y-30450D02*
D03*
X-26450Y-31275D02*
D03*
Y-30325D02*
D03*
X-37300Y-28775D02*
D03*
Y-27825D02*
D03*
X-42025Y-27825D02*
D03*
Y-28775D02*
D03*
X-28525Y-36000D02*
D03*
Y-35050D02*
D03*
X-21450Y-7725D02*
D03*
Y-6775D02*
D03*
X-16900Y-21225D02*
D03*
Y-22175D02*
D03*
D42*
X-23025Y-38825D02*
D03*
X-24025D02*
D03*
X-23000Y-37550D02*
D03*
X-24000D02*
D03*
X-41750Y-34975D02*
D03*
X-40750D02*
D03*
X-18775Y-32850D02*
D03*
X-17775D02*
D03*
X-15350Y-37525D02*
D03*
X-14350D02*
D03*
X-41550Y-30275D02*
D03*
X-40550D02*
D03*
X-13325Y-32850D02*
D03*
X-12325D02*
D03*
X-29750Y-32925D02*
D03*
X-28750D02*
D03*
X-35200Y-32975D02*
D03*
X-34200D02*
D03*
X-24275Y-32850D02*
D03*
X-23275D02*
D03*
X-26550Y-37625D02*
D03*
X-27550D02*
D03*
X-31800D02*
D03*
X-30800D02*
D03*
D89*
X-13100Y-22150D02*
D03*
Y-18350D02*
D03*
X-15400D02*
D03*
Y-22150D02*
D03*
D92*
X-19375Y-37450D02*
D03*
Y-38650D02*
D03*
D93*
X-19980Y-38050D02*
D03*
Y-37550D02*
D03*
Y-38550D02*
D03*
X-18770D02*
D03*
Y-37550D02*
D03*
Y-38050D02*
D03*
D94*
X-27300Y-20450D02*
D03*
X-27950Y-17850D02*
D03*
X-27300D02*
D03*
X-26650D02*
D03*
X-26000D02*
D03*
X-25350D02*
D03*
X-24700D02*
D03*
X-24050D02*
D03*
X-23400D02*
D03*
X-22750D02*
D03*
X-22100D02*
D03*
X-27950Y-18500D02*
D03*
X-27300D02*
D03*
X-26650D02*
D03*
X-26000D02*
D03*
X-25350D02*
D03*
X-24700D02*
D03*
X-24050D02*
D03*
X-23400D02*
D03*
X-22750D02*
D03*
X-22100D02*
D03*
X-27950Y-19150D02*
D03*
X-27300D02*
D03*
X-26650D02*
D03*
X-26000D02*
D03*
X-25350D02*
D03*
X-24700D02*
D03*
X-24050D02*
D03*
X-23400D02*
D03*
X-22750D02*
D03*
X-27950Y-19800D02*
D03*
X-27300D02*
D03*
X-26650D02*
D03*
X-26000D02*
D03*
X-25350D02*
D03*
X-24700D02*
D03*
X-24050D02*
D03*
X-23400D02*
D03*
X-22750D02*
D03*
X-27950Y-20450D02*
D03*
X-26650D02*
D03*
X-26000D02*
D03*
X-25350D02*
D03*
X-24700D02*
D03*
X-24050D02*
D03*
X-23400D02*
D03*
X-22750D02*
D03*
X-27950Y-21750D02*
D03*
X-27300D02*
D03*
X-26650D02*
D03*
X-26000D02*
D03*
X-25350D02*
D03*
X-24700D02*
D03*
X-24050D02*
D03*
X-23400D02*
D03*
X-22750D02*
D03*
X-27950Y-22400D02*
D03*
X-27300D02*
D03*
X-26650D02*
D03*
X-26000D02*
D03*
X-25350D02*
D03*
X-24700D02*
D03*
X-24050D02*
D03*
X-23400D02*
D03*
X-22750D02*
D03*
X-27950Y-23050D02*
D03*
X-27300D02*
D03*
X-26650D02*
D03*
X-26000D02*
D03*
X-25350D02*
D03*
X-24700D02*
D03*
X-24050D02*
D03*
X-23400D02*
D03*
X-22750D02*
D03*
X-27950Y-23700D02*
D03*
X-27300D02*
D03*
X-26650D02*
D03*
X-26000D02*
D03*
X-25350D02*
D03*
X-24700D02*
D03*
X-24050D02*
D03*
X-23400D02*
D03*
X-22750D02*
D03*
X-27950Y-21100D02*
D03*
X-27300D02*
D03*
X-26650D02*
D03*
X-26000D02*
D03*
X-25350D02*
D03*
X-24700D02*
D03*
X-24050D02*
D03*
X-23400D02*
D03*
X-22750D02*
D03*
X-22100D02*
D03*
Y-19150D02*
D03*
Y-19800D02*
D03*
Y-20450D02*
D03*
Y-21750D02*
D03*
Y-22400D02*
D03*
Y-23050D02*
D03*
Y-23700D02*
D03*
D95*
X-32550Y-34425D02*
D03*
X-31900D02*
D03*
X-31250D02*
D03*
Y-36125D02*
D03*
X-31900D02*
D03*
X-32550D02*
D03*
X-19525Y-29650D02*
D03*
X-18875D02*
D03*
X-18225D02*
D03*
Y-31350D02*
D03*
X-18875D02*
D03*
X-19525D02*
D03*
X-21600Y-34325D02*
D03*
X-20950D02*
D03*
X-20300D02*
D03*
Y-36025D02*
D03*
X-20950D02*
D03*
X-21600D02*
D03*
X-16100Y-34325D02*
D03*
X-15450D02*
D03*
X-14800D02*
D03*
Y-36025D02*
D03*
X-15450D02*
D03*
X-16100D02*
D03*
X-38000Y-34475D02*
D03*
X-37350D02*
D03*
X-36700D02*
D03*
Y-36175D02*
D03*
X-37350D02*
D03*
X-38000D02*
D03*
X-14075Y-29650D02*
D03*
X-13425D02*
D03*
X-12775D02*
D03*
Y-31350D02*
D03*
X-13425D02*
D03*
X-14075D02*
D03*
X-30500Y-29725D02*
D03*
X-29850D02*
D03*
X-29200D02*
D03*
Y-31425D02*
D03*
X-29850D02*
D03*
X-30500D02*
D03*
X-35950Y-29775D02*
D03*
X-35300D02*
D03*
X-34650D02*
D03*
Y-31475D02*
D03*
X-35300D02*
D03*
X-35950D02*
D03*
X-25025Y-29650D02*
D03*
X-24375D02*
D03*
X-23725D02*
D03*
Y-31350D02*
D03*
X-24375D02*
D03*
X-25025D02*
D03*
X-27100Y-34375D02*
D03*
X-26450D02*
D03*
X-25800D02*
D03*
Y-36075D02*
D03*
X-26450D02*
D03*
X-27100D02*
D03*
D96*
X-10950Y-13620D02*
D03*
X-10950Y-14600D02*
D03*
X-39525Y-15130D02*
D03*
X-39525Y-14150D02*
D03*
D97*
X-10075Y-13460D02*
D03*
Y-14110D02*
D03*
Y-14760D02*
D03*
X-11825D02*
D03*
Y-14110D02*
D03*
Y-13460D02*
D03*
X-40400Y-15290D02*
D03*
Y-14640D02*
D03*
Y-13990D02*
D03*
X-38650D02*
D03*
Y-14640D02*
D03*
Y-15290D02*
D03*
D98*
X-43875Y-36325D02*
D03*
Y-37275D02*
D03*
Y-38225D02*
D03*
X-41425D02*
D03*
Y-37275D02*
D03*
Y-36325D02*
D03*
X-44300Y-33425D02*
D03*
Y-32475D02*
D03*
Y-31525D02*
D03*
X-41850D02*
D03*
Y-32475D02*
D03*
Y-33425D02*
D03*
D99*
X-30750Y-11975D02*
D03*
X-28650Y-12925D02*
D03*
Y-11025D02*
D03*
D100*
X-3875Y-7875D02*
D03*
X-3225D02*
D03*
X-2575D02*
D03*
Y-9725D02*
D03*
X-3225D02*
D03*
X-3875D02*
D03*
D101*
X-44737Y-15500D02*
D03*
X-46638D02*
D03*
X-45688Y-13600D02*
D03*
D102*
X-26900Y-3638D02*
D03*
X-28300D02*
D03*
X-18362Y-7213D02*
D03*
X-19763D02*
D03*
X-26900Y-6887D02*
D03*
X-28300D02*
D03*
D103*
X-24900Y-26400D02*
D03*
X-25850D02*
D03*
X-24900Y-25500D02*
D03*
X-25850D02*
D03*
X-19325Y-21300D02*
D03*
X-20275D02*
D03*
X-32150Y-18900D02*
D03*
X-31200D02*
D03*
X-23450Y-40075D02*
D03*
X-22500D02*
D03*
X-19300Y-39825D02*
D03*
X-18350D02*
D03*
X-18500Y-28175D02*
D03*
X-19450D02*
D03*
X-20575Y-32850D02*
D03*
X-21525D02*
D03*
X-15075Y-32850D02*
D03*
X-16025D02*
D03*
X-36875Y-32975D02*
D03*
X-37825D02*
D03*
X-37950Y-37675D02*
D03*
X-37000D02*
D03*
X-13050Y-28175D02*
D03*
X-14000D02*
D03*
X-29475Y-28250D02*
D03*
X-30425D02*
D03*
X-34925Y-28300D02*
D03*
X-35875D02*
D03*
X-24000Y-28175D02*
D03*
X-24950D02*
D03*
X-26075Y-32900D02*
D03*
X-27025D02*
D03*
X-31525Y-32950D02*
D03*
X-32475D02*
D03*
X-25975Y-15100D02*
D03*
X-25025D02*
D03*
X-25975Y-16000D02*
D03*
X-25025D02*
D03*
X-22925Y-15100D02*
D03*
X-23875D02*
D03*
X-22925Y-16000D02*
D03*
X-23875D02*
D03*
D104*
X-10565Y-11575D02*
D03*
X-9585Y-11575D02*
D03*
D105*
X-10725Y-10700D02*
D03*
X-10075D02*
D03*
X-9425D02*
D03*
Y-12450D02*
D03*
X-10075D02*
D03*
X-10725D02*
D03*
D106*
X-38850Y-24825D02*
D03*
Y-25475D02*
D03*
Y-26125D02*
D03*
X-40550D02*
D03*
Y-25475D02*
D03*
Y-24825D02*
D03*
X-38850Y-27750D02*
D03*
Y-28400D02*
D03*
Y-29050D02*
D03*
X-40550D02*
D03*
Y-28400D02*
D03*
Y-27750D02*
D03*
D107*
X-25013Y-8175D02*
D03*
X-45263Y-39875D02*
D03*
X-29925Y-3525D02*
D03*
X-20500Y-5525D02*
D03*
D197*
X-25638Y-5225D02*
D03*
X-26888D02*
D03*
X-25638Y-5725D02*
D03*
Y-4725D02*
D03*
X-26888D02*
D03*
D198*
X-26837Y-5725D02*
D03*
D199*
X-19413Y-9087D02*
D03*
D200*
X-18362Y-9738D02*
D03*
Y-9087D02*
D03*
Y-8438D02*
D03*
X-20462D02*
D03*
Y-9087D02*
D03*
Y-9738D02*
D03*
M02*
