G04 Layer_Physical_Order=2*
G04 Layer_Color=32768*
%FSLAX43Y43*%
%MOMM*%
G71*
G01*
G75*
%ADD71C,0.500*%
%ADD72O,1.250X1.450*%
%ADD73O,1.250X1.450*%
%ADD74O,1.425X2.100*%
%ADD75C,1.600*%
%ADD76C,1.600*%
G04:AMPARAMS|DCode=77|XSize=2.524mm|YSize=2.524mm|CornerRadius=0mm|HoleSize=0mm|Usage=FLASHONLY|Rotation=0.000|XOffset=0mm|YOffset=0mm|HoleType=Round|Shape=Relief|Width=0.254mm|Gap=0.254mm|Entries=4|*
%AMTHD77*
7,0,0,2.524,2.016,0.254,45*
%
%ADD77THD77*%
G04:AMPARAMS|DCode=78|XSize=1.45mm|YSize=1.45mm|CornerRadius=0mm|HoleSize=0mm|Usage=FLASHONLY|Rotation=0.000|XOffset=0mm|YOffset=0mm|HoleType=Round|Shape=Relief|Width=0.2mm|Gap=0.2mm|Entries=4|*
%AMTHD78*
7,0,0,1.450,1.050,0.200,45*
%
%ADD78THD78*%
%ADD79C,1.250*%
%ADD80C,1.250*%
%ADD81C,0.850*%
%ADD82C,0.900*%
%ADD83C,0.850*%
%ADD84C,0.800*%
G36*
X-43600Y-99325D02*
X-55600D01*
Y-97325D01*
Y-87325D01*
X-43600D01*
Y-99325D01*
D02*
G37*
%LPC*%
G36*
X-45600Y-89325D02*
X-53600D01*
Y-97325D01*
X-45600D01*
Y-89325D01*
D02*
G37*
%LPD*%
D71*
X-10600Y-350D02*
G03*
X-9825Y-1I0J1036D01*
G01*
X-21375D02*
G03*
X-20600Y-350I776J686D01*
G01*
X-60000Y-100000D02*
X0D01*
Y0D01*
X-9825D02*
X0D01*
X-9825Y-1D02*
Y0D01*
X-10600Y-350D02*
Y-350D01*
X-20600Y-350D02*
X-10600D01*
X-21375Y-1D02*
Y0D01*
X-60000D02*
X-21375D01*
X-60000Y-100000D02*
Y0D01*
D72*
X-13375Y-4800D02*
D03*
D73*
X-17825D02*
D03*
D74*
X-19688Y-1675D02*
D03*
X-11512D02*
D03*
D75*
X-57778Y-82070D02*
D03*
Y-84610D02*
D03*
Y-76990D02*
D03*
Y-79530D02*
D03*
Y-74450D02*
D03*
Y-71910D02*
D03*
X-9518Y-84610D02*
D03*
Y-82070D02*
D03*
Y-76990D02*
D03*
Y-79530D02*
D03*
Y-69370D02*
D03*
Y-66830D02*
D03*
Y-71910D02*
D03*
Y-74450D02*
D03*
Y-52606D02*
D03*
Y-44986D02*
D03*
Y-57686D02*
D03*
Y-55146D02*
D03*
Y-60226D02*
D03*
Y-62766D02*
D03*
X-57778Y-30490D02*
D03*
X-4430Y-87150D02*
D03*
X-6970Y-76990D02*
D03*
X-4430D02*
D03*
Y-79530D02*
D03*
X-6970D02*
D03*
X-4430Y-82070D02*
D03*
Y-84610D02*
D03*
X-6970D02*
D03*
X-48240Y-59500D02*
D03*
X-4430Y-51590D02*
D03*
X-6970Y-41430D02*
D03*
X-4430D02*
D03*
Y-43970D02*
D03*
X-6970D02*
D03*
X-38890Y-93030D02*
D03*
Y-95570D02*
D03*
X-36350Y-93030D02*
D03*
Y-95570D02*
D03*
X-31270D02*
D03*
Y-93030D02*
D03*
X-41430Y-95570D02*
D03*
X-57778Y-49050D02*
D03*
Y-51590D02*
D03*
Y-56670D02*
D03*
Y-54130D02*
D03*
Y-66830D02*
D03*
Y-59210D02*
D03*
X-32429Y-84750D02*
D03*
X-29889Y-87290D02*
D03*
X-51300Y-41465D02*
D03*
X-20525Y-12525D02*
D03*
D76*
X-9518Y-50066D02*
D03*
Y-42446D02*
D03*
Y-39906D02*
D03*
X-57778Y-35570D02*
D03*
X-48240Y-67120D02*
D03*
X-6970Y-64290D02*
D03*
Y-82070D02*
D03*
Y-74450D02*
D03*
Y-71910D02*
D03*
X-4430D02*
D03*
X-6970Y-69370D02*
D03*
X-4430D02*
D03*
X-6970Y-66830D02*
D03*
X-4430D02*
D03*
Y-74450D02*
D03*
X-38730Y-10950D02*
D03*
X-41270D02*
D03*
X-45700Y-59500D02*
D03*
Y-56960D02*
D03*
X-48240D02*
D03*
X-6970Y-28730D02*
D03*
X-4430Y-46510D02*
D03*
X-6970D02*
D03*
X-4430Y-49050D02*
D03*
X-6970D02*
D03*
Y-38890D02*
D03*
Y-36350D02*
D03*
X-4430D02*
D03*
X-6970Y-33810D02*
D03*
X-4430D02*
D03*
X-6970Y-31270D02*
D03*
X-4430D02*
D03*
Y-38890D02*
D03*
X-28730Y-95570D02*
D03*
X-21110D02*
D03*
Y-93030D02*
D03*
X-23650Y-95570D02*
D03*
Y-93030D02*
D03*
X-26190Y-95570D02*
D03*
Y-93030D02*
D03*
X-28730D02*
D03*
X-33810D02*
D03*
Y-95570D02*
D03*
X-18570Y-93030D02*
D03*
X-56000Y-17400D02*
D03*
Y-19940D02*
D03*
X-34969Y-84750D02*
D03*
X-29889D02*
D03*
X-32429Y-87290D02*
D03*
X-51300Y-38925D02*
D03*
X-51400Y-27417D02*
D03*
Y-29958D02*
D03*
X-23065Y-12525D02*
D03*
X-17985D02*
D03*
X-6970Y-13490D02*
D03*
Y-16030D02*
D03*
X-4430D02*
D03*
D77*
X-9518Y-47526D02*
D03*
X-57778Y-33030D02*
D03*
X-48240Y-69660D02*
D03*
X-6970Y-87150D02*
D03*
X-4430Y-64290D02*
D03*
X-43160Y-59500D02*
D03*
Y-56960D02*
D03*
X-6970Y-51590D02*
D03*
X-4430Y-28730D02*
D03*
X-18570Y-95570D02*
D03*
X-41430Y-93030D02*
D03*
X-57778Y-64290D02*
D03*
Y-61750D02*
D03*
X-34969Y-87290D02*
D03*
X-4430Y-13490D02*
D03*
D78*
X-7530Y-21305D02*
D03*
X-4990D02*
D03*
X-3720D02*
D03*
D79*
X-7530Y-22575D02*
D03*
X-2450D02*
D03*
X-3720D02*
D03*
D80*
X-4990D02*
D03*
X-6260D02*
D03*
Y-21305D02*
D03*
X-2450D02*
D03*
D81*
X-41638Y-39812D02*
D03*
X-36100Y-48925D02*
D03*
X-40125Y-37838D02*
D03*
X-21837Y-2162D02*
D03*
X-35875Y-13725D02*
D03*
X-36713Y-21375D02*
D03*
X-45550Y-33175D02*
D03*
X-38925Y-35525D02*
D03*
X-41550Y-34275D02*
D03*
X-44900Y-20700D02*
D03*
X-45225Y-26825D02*
D03*
X-46375Y-27050D02*
D03*
X-47550Y-39775D02*
D03*
X-31688Y-26150D02*
D03*
X-33200Y-32300D02*
D03*
X-46600Y-27850D02*
D03*
X-47825Y-36000D02*
D03*
X-43450Y-25325D02*
D03*
X-43600Y-24600D02*
D03*
X-39152Y-27001D02*
D03*
X-35588Y-25462D02*
D03*
X-32750Y-21425D02*
D03*
X-30875Y-38500D02*
D03*
X-32050Y-32075D02*
D03*
X-36350Y-40775D02*
D03*
X-35950Y-27600D02*
D03*
X-43375Y-23145D02*
D03*
X-31300Y-28250D02*
D03*
X-40550Y-26875D02*
D03*
X-37300Y-32100D02*
D03*
X-32575Y-29825D02*
D03*
X-32675Y-29000D02*
D03*
X-43125Y-27750D02*
D03*
X-43375Y-28525D02*
D03*
X-19600Y-36025D02*
D03*
X-27875Y-16625D02*
D03*
X-30462Y-12938D02*
D03*
X-28700Y-72450D02*
D03*
X-28850Y-73825D02*
D03*
X-28900Y-75075D02*
D03*
X-30650Y-35200D02*
D03*
X-34475Y-10800D02*
D03*
X-29525Y-39000D02*
D03*
X-28175Y-70025D02*
D03*
X-20550Y-68325D02*
D03*
X-33375Y-79200D02*
D03*
X-24825Y-49975D02*
D03*
X-22290Y-71910D02*
D03*
X-31450Y-54725D02*
D03*
X-21775Y-52475D02*
D03*
X-25351Y-39702D02*
D03*
X-29150Y-36625D02*
D03*
X-21100Y-21425D02*
D03*
X-34875Y-47225D02*
D03*
X-31800Y-38375D02*
D03*
X-33302Y-38850D02*
D03*
X-39350Y-36425D02*
D03*
X-31750Y-59825D02*
D03*
X-29675Y-59425D02*
D03*
X-31750Y-59025D02*
D03*
X-29675Y-58625D02*
D03*
X-33325Y-59825D02*
D03*
X-34150Y-59750D02*
D03*
X-29700Y-54675D02*
D03*
X-14175Y-36650D02*
D03*
X-19375Y-39200D02*
D03*
X-25025Y-28800D02*
D03*
X-27750Y-29425D02*
D03*
X-24075Y-26725D02*
D03*
X-45875Y-28775D02*
D03*
X-22350Y-32150D02*
D03*
X-24850Y-37550D02*
D03*
X-47500Y-17070D02*
D03*
X-26375Y-72800D02*
D03*
X-30000Y-69700D02*
D03*
X-37675Y-71125D02*
D03*
X-36200Y-17013D02*
D03*
X-38025Y-38450D02*
D03*
X-7650Y-1525D02*
D03*
X-12175Y-11575D02*
D03*
X-9825Y-15450D02*
D03*
X-8450Y-12450D02*
D03*
X-21100Y-23300D02*
D03*
X-33775Y-53775D02*
D03*
X-34200Y-45775D02*
D03*
X-32100Y-66500D02*
D03*
X-21562Y-53713D02*
D03*
X-29250Y-22050D02*
D03*
X-26525Y-48875D02*
D03*
X-31663Y-49925D02*
D03*
X-29350Y-16075D02*
D03*
X-30075Y-1525D02*
D03*
X-24925Y-1500D02*
D03*
X-4900Y-26500D02*
D03*
Y-25200D02*
D03*
X-4550Y-9800D02*
D03*
X-40325Y-57225D02*
D03*
X-26550Y-25500D02*
D03*
X-13350Y-7400D02*
D03*
X-14125Y-25100D02*
D03*
X-24500Y-14375D02*
D03*
X-21200Y-15075D02*
D03*
X-36062Y-8538D02*
D03*
X-21742Y-61976D02*
D03*
X-19600Y-18200D02*
D03*
X-19150Y-17400D02*
D03*
X-40675Y-63050D02*
D03*
X-14075Y-27425D02*
D03*
X-19525Y-27475D02*
D03*
X-21600Y-29675D02*
D03*
X-14750Y-31350D02*
D03*
X-20175D02*
D03*
X-25675D02*
D03*
X-16775Y-36050D02*
D03*
X-36150Y-24800D02*
D03*
X-31525Y-21425D02*
D03*
X-33900Y-20000D02*
D03*
X-27750Y-36075D02*
D03*
X-33200Y-36850D02*
D03*
X-22250Y-36025D02*
D03*
X-13425Y-32200D02*
D03*
X-22650Y-24450D02*
D03*
X-23375Y-16725D02*
D03*
X-25150Y-34375D02*
D03*
X-51175Y-47925D02*
D03*
X-56975Y-13495D02*
D03*
X-37650Y-62425D02*
D03*
X-26450Y-36950D02*
D03*
X-15450Y-36850D02*
D03*
X-20175Y-32100D02*
D03*
X-16775Y-29300D02*
D03*
X-16100Y-29775D02*
D03*
X-22494Y-56250D02*
D03*
X-23075Y-56750D02*
D03*
X-22375Y-59750D02*
D03*
X-25663Y-60250D02*
D03*
X-21750Y-60750D02*
D03*
X-20050Y-59250D02*
D03*
X-28250Y-62025D02*
D03*
X-27641Y-56625D02*
D03*
X-29750Y-61475D02*
D03*
X-29250Y-62150D02*
D03*
X-28750Y-61300D02*
D03*
X-28438Y-57350D02*
D03*
X-30250Y-62275D02*
D03*
X-23825Y-41500D02*
D03*
X-21950Y-64600D02*
D03*
X-17275D02*
D03*
X-16600Y-68125D02*
D03*
X-40600Y-77225D02*
D03*
X-23575Y-72700D02*
D03*
X-21125Y-73200D02*
D03*
X-19900Y-74450D02*
D03*
X-19925Y-75750D02*
D03*
X-32750Y-62300D02*
D03*
X-23151Y-57453D02*
D03*
X-25950Y-59550D02*
D03*
X-25900Y-61100D02*
D03*
X-20900Y-63750D02*
D03*
X-11775Y-71225D02*
D03*
X-22500Y-72925D02*
D03*
X-32000Y-61775D02*
D03*
X-21000Y-58250D02*
D03*
X-32000Y-44950D02*
D03*
X-23400Y-43200D02*
D03*
X-32760Y-49625D02*
D03*
X-23275Y-45975D02*
D03*
X-23400Y-44925D02*
D03*
X-22175Y-44300D02*
D03*
X-41550Y-76275D02*
D03*
X-32250Y-53703D02*
D03*
X-31650Y-48050D02*
D03*
X-34200Y-48250D02*
D03*
X-14125Y-88050D02*
D03*
X-39450Y-61875D02*
D03*
X-53875Y-83350D02*
D03*
X-43150Y-83375D02*
D03*
X-42375Y-84075D02*
D03*
X-18875Y-33625D02*
D03*
X-10275Y-27513D02*
D03*
X-10288Y-28712D02*
D03*
X-46850Y-85975D02*
D03*
X-37650Y-87662D02*
D03*
X-40188Y-87875D02*
D03*
X-42150Y-18575D02*
D03*
X-35862Y-15675D02*
D03*
X-38775Y-37100D02*
D03*
X-18325Y-27350D02*
D03*
X-23925Y-25475D02*
D03*
X-22881Y-29644D02*
D03*
X-10650Y-34838D02*
D03*
X-24375Y-33750D02*
D03*
X-7988Y-25212D02*
D03*
X-14288Y-44987D02*
D03*
X-21792Y-77000D02*
D03*
X-37975Y-14375D02*
D03*
X-28625Y-28925D02*
D03*
X-29852Y-19202D02*
D03*
X-30625Y-32525D02*
D03*
X-30351Y-25851D02*
D03*
X-16300Y-37450D02*
D03*
X-13950Y-33725D02*
D03*
X-27650Y-28725D02*
D03*
X-29300Y-33875D02*
D03*
X-6625Y-8600D02*
D03*
X-16250Y-39425D02*
D03*
X-16775Y-39975D02*
D03*
X-18575Y-40925D02*
D03*
X-53950Y-28550D02*
D03*
X-48050Y-78275D02*
D03*
X-49800Y-80775D02*
D03*
X-27375Y-41500D02*
D03*
D82*
X-46638Y-10850D02*
D03*
X-32213Y-6863D02*
D03*
Y-7656D02*
D03*
X-41250Y-14400D02*
D03*
X-37325Y-9900D02*
D03*
X-45362Y-12000D02*
D03*
Y-9700D02*
D03*
X-41787Y-17625D02*
D03*
X-28962Y-48175D02*
D03*
D83*
X-30487Y-14913D02*
D03*
X-45125Y-27850D02*
D03*
X-17250Y-37400D02*
D03*
X-21212Y-27737D02*
D03*
X-44700Y-17095D02*
D03*
X-21538Y-37575D02*
D03*
X-21462Y-38900D02*
D03*
X-1075Y-6750D02*
D03*
X-6725Y-10550D02*
D03*
X-29900Y-20025D02*
D03*
X-39675Y-59050D02*
D03*
X-29925Y-25000D02*
D03*
X-33425Y-17025D02*
D03*
X-18475Y-22812D02*
D03*
X-16100Y-16213D02*
D03*
X-34150Y-13225D02*
D03*
X-38525Y-61950D02*
D03*
X-27750Y-27425D02*
D03*
X-30875Y-61200D02*
D03*
X-52375Y-18725D02*
D03*
X-20263Y-52888D02*
D03*
X-29038Y-37500D02*
D03*
X-47675Y-28575D02*
D03*
X-47525Y-20800D02*
D03*
X-49550Y-32345D02*
D03*
X-35912Y-42888D02*
D03*
X-35450Y-37825D02*
D03*
X-46650Y-24538D02*
D03*
X-34725Y-26475D02*
D03*
X-1200Y-12725D02*
D03*
X-22237Y-28750D02*
D03*
X-26263Y-28525D02*
D03*
X-37463Y-48688D02*
D03*
X-16125Y-28125D02*
D03*
X-14500Y-16200D02*
D03*
X-13238Y-14525D02*
D03*
D84*
X-26325Y-21425D02*
D03*
X-23525Y-17375D02*
D03*
X-25025Y-20125D02*
D03*
X-25025Y-21425D02*
D03*
X-23726Y-20126D02*
D03*
X-25675Y-20125D02*
D03*
X-25675Y-22725D02*
D03*
X-23050Y-19500D02*
D03*
X-26975Y-23375D02*
D03*
X-23175Y-14075D02*
D03*
X-25678Y-22079D02*
D03*
X-23075Y-21425D02*
D03*
X-23725Y-19475D02*
D03*
X-25675Y-18175D02*
D03*
X-25025D02*
D03*
X-26325Y-20125D02*
D03*
Y-19475D02*
D03*
M02*
