M48
;Layer_Color=9474304
;FILE_FORMAT=2:4
INCH,TZ
;TYPE=PLATED
T1F00S00C0.0079
T2F00S00C0.0098
T3F00S00C0.0256
T6F00S00C0.0394
T7F00S00C0.1063
%
T01
X-10620Y-9203
X-10364Y-8947
X-10108Y-8947
X-10110Y-8692
X-10364Y-8435
Y-7923
Y-7667
X-10108Y-7923
X-10108Y-7156
X-10620Y-7411
X-9852Y-7156
X-9852Y-7923
Y-8179
X-9852Y-8435
X-9085Y-8435
X-9085Y-8691
X-9075Y-7677
X-9085Y-7411
X-9341Y-7667
X-9341Y-7924
X-9262Y-6841
X-9124Y-5541
X-9852Y-9203
T02
X-18150Y-35364
X-15817Y-34075
X-14823Y-34104
X-16683Y-33100
X-5561Y-34665
X-8602Y-30807
X-7844Y-29823
X-7835Y-29311
X-8317Y-28819
X-8858Y-28711
X-8776Y-28311
X-9281Y-28622
X-8091Y-26900
X-6535Y-26821
X-6801Y-25433
X-8228Y-25098
X-8642Y-25433
X-8560Y-24400
X-8563Y-23917
X-8809Y-23524
X-7894Y-23327
X-8268Y-22933
X-9115Y-22619
X-9085Y-22343
X-8856Y-22146
X-8622Y-21417
X-8489Y-21147
X-8573Y-20659
X-7977Y-20822
X-9774Y-19675
X-9163Y-18100
X-9213Y-17687
X-8730Y-17441
X-5226Y-18199
X-4636Y-28041
X-9843Y-25394
X-9355Y-24695
X-10197Y-24055
X-10103Y-23720
X-10217Y-23445
X-11683Y-23396
Y-23081
X-12500Y-23238
Y-23553
X-13120
X-13445Y-23524
X-13002Y-22687
X-12382Y-21545
X-11693Y-21526
X-11319Y-21152
X-12697Y-21143
X-13297Y-21171
X-12898Y-19537
X-12205Y-19656
X-12461Y-18917
X-11841Y-18976
X-11083Y-19528
X-10443Y-19242
X-13465Y-18996
X-13730Y-18593
X-13465Y-18022
X-12598Y-17697
X-15817Y-18100
X-15266Y-20620
X-15876Y-22530
X-15620Y-23248
X-15532Y-24360
X-15167Y-24390
X-14823Y-24577
X-16014Y-24823
X-16033Y-28002
X-14833
X-14685Y-29567
X-15984Y-30404
X-16358Y-30030
X-16988Y-32825
X-20148Y-31811
X-19222Y-30817
X-21211Y-32815
X-13140Y-31181
X-11378Y-29557
X-11358Y-29065
X-11299Y-28524
X-10384Y-28661
X-10512Y-27776
X-11093Y-27569
X-11811Y-27441
X-13317
X-12638Y-26181
X-12205
X-11909Y-24518
X-11516Y-24469
X-11122Y-24419
X-11319Y-24134
X-11713Y-24203
X-12156Y-24094
X-12598Y-24321
X-12894Y-24528
X-11196Y-22579
X-10882Y-22293
X-18396Y-21132
Y-19557
X-20148Y-18868
X-19892Y-23809
X-18720Y-15659
X-18524Y-15343
X-17874Y-15659
X-18829Y-14173
X-18755Y-13105
X-17933Y-13061
X-18061Y-11947
Y-11329
X-18346Y-10965
X-18258Y-10650
X-17805Y-10561
X-17766Y-10965
X-16978Y-10925
X-17077Y-11230
X-16801Y-11358
X-15965Y-10581
X-15414Y-10630
X-15167Y-11752
X-14685Y-11658
Y-12638
X-13071Y-12717
X-12618Y-12628
X-12057Y-12805
X-11535Y-13337
X-11230Y-13474
X-10925Y-14203
X-11476Y-14419
X-11230Y-14764
X-11860Y-14823
X-12156Y-15157
X-12520Y-15108
X-13111Y-15295
X-13071Y-14508
X-13061Y-13888
X-12067Y-13858
X-11624Y-15354
X-10837Y-15098
X-10413Y-14547
X-10266Y-16339
X-10108Y-12343
X-10413Y-11486
X-10925Y-11585
X-11230Y-11683
X-11132Y-11358
X-10827Y-11250
X-10925Y-10797
X-10453Y-10039
X-11782Y-9843
X-12165Y-10030
X-12475Y-10295
X-12323Y-11122
X-12638
X-12864Y-11417
X-12825Y-11742
X-13396Y-10945
X-13671Y-10581
X-14154Y-10866
X-14272Y-10197
X-14011Y-10025
X-14232Y-9764
X-14193Y-8415
X-12894Y-8435
X-12411Y-8435
X-12441Y-8809
X-11516Y-8681
X-11752Y-7972
X-11841Y-7648
X-12982Y-7441
X-13346Y-7874
X-13159Y-6703
X-14095Y-6280
X-14263Y-5403
X-14911Y-5650
X-16289
X-16063Y-4990
X-15837Y-6683
X-15325Y-6683
X-17598Y-6730
X-18701Y-6720
X-19449Y-6494
X-18238Y-5923
X-18159Y-8148
X-17677Y-8150
X-17116Y-7980
X-17077Y-9112
X-17165Y-9685
X-17106Y-9970
X-17953Y-9112
X-18711Y-8189
X-20620Y-7372
X-22431Y-5313
X-23317Y-5362
X-13445Y-5207
X-13573Y-4252
X-13907Y-3917
X-14198Y-3361
X-13106Y-3018
X-12752Y-2703
Y-3333
X-10600Y-3140
Y-2657
X-10797Y-1663
X-10394Y-5630
X-10974Y-6545
X-11555Y-6329
X-12106Y-5581
X-11801Y-5128
X-14006Y-14537
X-14567Y-15148
X-14970Y-15138
X-15266Y-14606
X-15492Y-14341
X-15325Y-13986
X-15827Y-14818
X-16358Y-13494
X-16821Y-13878
X-17293Y-13780
X-19508Y-12734
X-18770Y-11250
X-14311Y-16053
X-14139Y-16885
X-9213Y-17008
X-9380Y-16339
X-9400Y-15778
X-9981Y-15631
X-9537Y-14783
X-8219Y-14793
X-8307Y-15285
X-7628Y-15433
X-7347Y-15403
X-7077Y-15305
X-6732Y-15295
X-6467Y-15138
X-5827Y-15079
X-6083Y-14508
X-5581Y-14429
X-6722Y-14508
X-6604Y-14193
X-7156Y-14478
X-7864Y-14557
X-7717Y-14183
X-8760
X-9065Y-13317
X-9596Y-13287
X-9941Y-13199
X-9902Y-13533
X-8799Y-12657
X-7943Y-12638
Y-12343
X-8248Y-11476
X-8504Y-11683
X-8770Y-11486
X-9085Y-11673
X-9016Y-11093
X-8351Y-10920
X-7687Y-10817
X-7215Y-10768
X-6860Y-11093
X-6604Y-11535
X-6339Y-11722
X-6102Y-11486
X-5807Y-12343
X-5935Y-12648
X-5285Y-12677
X-5492Y-13273
X-4577Y-12933
X-4419Y-13701
X-4094Y-11860
X-4847Y-11093
X-5541Y-10797
X-5561Y-9882
X-6348Y-7982
X-7008Y-7520
X-7717Y-7165
X-7539Y-6850
X-6339Y-6467
X-5837Y-6427
X-4931Y-5555
X-4793Y-4557
X-5226Y-4513
X-4705Y-3770
X-5256Y-2913
X-6841Y-2963
X-8012Y-2904
X-8898Y-2480
X-8701Y-5945
X-8346Y-5935
X-9203Y-6585
X-9646Y-5659
X-8307Y-8435
Y-9173
X-8917Y-9626
X-9429Y-10030
X-9478Y-10522
X-9695Y-10689
X-9852Y-11339
X-7431Y-13238
X-6900Y-13317
X-7224Y-8770
X-7293Y-8386
X-3868Y-6083
X-3524Y-6112
X-3327Y-4902
X-2500Y-3957
Y-3445
X-1791Y-3858
X-1526Y-2766
X-472Y-2854
X-305Y-4370
X-1102Y-4823
X-1929Y-9409
Y-9921
Y-10433
X-3012Y-600
X-9813Y-591
X-9990Y-1339
X-11467Y-600
X-11841
X-13435Y-846
X-15945Y-591
T03
X-2965Y-8888
Y-8388
X-2465
Y-8888
X-1965
X-1465
X-965
Y-8388
X-1465
X-1965
T06
X-22747Y-33811
X-13767Y-33866
X-12767
X-11767
Y-34866
X-12767
X-13767
X-13311Y-36626
X-14311
X-15311
X-16311
Y-37626
X-15311
X-14311
X-13311
X-12311
X-11311
X-10311
Y-36626
X-11311
X-12311
X-9311
X-8311
Y-37626
X-7311
Y-36626
X-9311Y-37626
X-3747Y-33811
X-2744Y-33311
X-1744
Y-34311
X-2744
Y-32311
Y-31311
Y-30311
X-1744
Y-31311
Y-32311
X-3747Y-32811
Y-31811
Y-30811
Y-29811
Y-28811
Y-27811
Y-26811
X-2744Y-27311
Y-28311
Y-29311
X-1744
Y-28311
Y-27311
Y-26311
X-2744
Y-25311
X-1744
X-3747Y-25211
Y-24211
Y-23211
Y-22211
Y-21211
Y-20211
Y-19211
Y-18211
X-2744Y-18311
Y-17311
X-1744
Y-18311
Y-19311
Y-20311
X-2744
Y-19311
X-16992Y-22425
Y-23425
X-17992
X-18992
Y-22425
X-17992
X-22747Y-22811
Y-21811
Y-20811
Y-19811
X-22018Y-17535
X-22747Y-23811
Y-24811
Y-25811
Y-26811
Y-28811
Y-29811
Y-30811
Y-31811
Y-32811
X-22018Y-16535
X-20197Y-16128
Y-15128
X-22028Y-14004
Y-13004
Y-12004
X-20236Y-11996
Y-10996
X-22047Y-7850
Y-6850
X-16248Y-4311
X-15248
X-9081Y-4931
X-8081
X-7081
X-2744Y-5311
Y-6311
X-1744
Y-5311
Y-11311
X-2744
Y-12311
Y-13311
Y-14311
Y-15311
Y-16311
X-1744
Y-15311
Y-14311
Y-13311
Y-12311
X-3747Y-16211
Y-17211
T07
X-22697Y-38445
X-925
Y-925
X-22697
M30
