M48
;Layer_Color=9474304
;FILE_FORMAT=4:3
METRIC,TZ
;TYPE=PLATED
T1F00S00C0.200
T2F00S00C0.250
T3F00S00C0.300
T4F00S00C0.650
T7F00S00C1.000
T8F00S00C2.700
%
T01
X-26975Y-23375
X-26325Y-22725
X-25675Y-22725
X-25678Y-22079
X-26325Y-21425
Y-20125
Y-19475
X-25675Y-20125
X-25675Y-18175
X-26975Y-18825
X-25025Y-18175
X-25025Y-20125
Y-20775
X-25025Y-21425
X-23075Y-21425
X-23075Y-22075
X-23050Y-19500
X-23075Y-18825
X-23725Y-19475
X-23726Y-20126
X-23525Y-17375
X-23175Y-14075
X-19413Y-9488
Y-8688
X-25025Y-23375
T02
X-46100Y-89825
X-46850Y-85975
X-42375Y-84075
X-40188Y-87875
X-37650Y-87662
X-23050Y-88350
X-21225Y-88375
X-14125Y-88050
X-11100Y-85725
X-11775Y-71225
X-16600Y-68125
X-20550Y-68325
X-20900Y-63750
X-21950Y-64600
X-21742Y-61976
X-21750Y-60750
X-22375Y-59750
X-20050Y-59250
X-21000Y-58250
X-23151Y-57453
X-23075Y-56750
X-22494Y-56250
X-21900Y-54400
X-21562Y-53713
X-21775Y-52475
X-20263Y-52888
X-16900Y-55500
X-17275Y-64600
X-12775Y-63650
X-8250Y-61500
X-11725Y-50175
X-14288Y-44987
X-22175Y-44300
X-23400Y-44925
X-23275Y-45975
X-24825Y-49975
X-23762Y-62725
X-25000Y-64500
X-23575Y-72700
X-22500Y-72925
X-22290Y-71910
X-21125Y-73200
X-19900Y-74450
X-19925Y-75750
X-21792Y-77000
X-26375Y-72800
X-26700Y-70550
X-28175Y-70025
X-30000Y-69700
X-33825
X-32100Y-66500
X-31000
X-30250Y-62275
X-29250Y-62150
X-28250Y-62025
X-28750Y-61300
X-29750Y-61475
X-30875Y-61200
X-32000Y-61775
X-32750Y-62300
X-33325Y-59825
X-34150Y-59750
X-31750Y-59825
Y-59025
X-29675Y-59425
Y-58625
X-28438Y-57350
X-27641Y-56625
X-29700Y-54675
X-31450Y-54725
X-32250Y-53703
X-33775Y-53775
X-36100Y-52350
X-38775Y-52375
X-37463Y-48688
X-36100Y-48925
X-34200Y-48250
X-34875Y-47225
X-34200Y-45775
X-32000Y-44950
X-31650Y-48050
X-30737Y-48200
X-31663Y-49925
X-32760Y-49625
X-26525Y-48875
X-28750Y-53725
X-33025Y-57625
X-40325Y-57225
X-39675Y-59050
X-39450Y-61875
X-38525Y-61950
X-37650Y-62425
X-40675Y-63050
X-40725Y-71125
X-37675
X-37300Y-75100
X-40600Y-77225
X-41550Y-76275
X-48050Y-78275
X-49800Y-80775
X-53875Y-83350
X-43150Y-83375
X-33375Y-79200
X-28900Y-75075
X-28850Y-73825
X-28700Y-72450
X-25900Y-61100
X-25663Y-60250
X-25950Y-59550
X-50525Y-60475
X-46725Y-53675
Y-49675
X-51175Y-47925
X-47550Y-39775
X-47050Y-38970
X-47825Y-36000
X-47638Y-33287
X-45550Y-33175
X-45875Y-30345
Y-28775
X-46600Y-27850
X-46375Y-27050
X-45225Y-26825
X-45125Y-27850
X-43125Y-27750
X-43375Y-28525
X-42675Y-28850
X-40550Y-26875
X-39152Y-27001
X-38525Y-29850
X-37300Y-29612
Y-32100
X-33200Y-32300
X-32050Y-32075
X-30625Y-32525
X-29300Y-33875
X-28525Y-34225
X-27750Y-36075
X-29150Y-36625
X-29038Y-37500
X-30150Y-38275
X-30875Y-38500
X-31800Y-38375
X-33302Y-38850
X-33200Y-36850
X-33175Y-35275
X-30650Y-35200
X-29525Y-39000
X-27525Y-38350
X-26450Y-36950
X-27375Y-41500
X-36350Y-40775
X-35912Y-42888
X-37000Y-38475
X-38025Y-38450
X-38775Y-37100
X-39350Y-36425
X-38925Y-35525
X-40125Y-37838
X-41638Y-39812
X-41550Y-34275
X-42725Y-35250
X-49550Y-32345
X-47675Y-28575
X-46650Y-24538
X-43600Y-24600
X-43450Y-25325
X-43375Y-23145
X-43475Y-20270
X-44900Y-20700
X-46125Y-20695
X-47525Y-20800
X-47500Y-17070
X-49400Y-16495
X-52375Y-18725
X-44700Y-17095
X-42150Y-18575
X-36200Y-17013
X-35862Y-15675
X-35875Y-13725
X-34150Y-13225
X-34475Y-10800
X-35325Y-9950
X-36062Y-8538
X-37975Y-14375
X-33425Y-17025
X-34075Y-18025
X-32975Y-18900
X-33900Y-20000
X-32750Y-21425
X-31525Y-21425
X-31600Y-22375
X-29250Y-22050
X-29900Y-20025
X-29852Y-19202
X-29350Y-16075
X-27875Y-16625
X-25975Y-14300
X-30487Y-14913
X-30462Y-12938
X-29925Y-25000
X-30351Y-25851
X-31688Y-26150
X-31300Y-28250
X-32100
X-32675Y-29000
X-32575Y-29825
X-34025Y-27800
X-34725Y-26475
X-35588Y-25462
X-36250Y-25900
X-36150Y-24800
X-35950Y-27600
X-36713Y-21375
X-26550Y-25500
X-27750Y-27425
X-28149Y-28236
X-27650Y-28725
X-27750Y-29425
X-28625Y-28925
X-26263Y-28525
X-25675Y-30300
Y-31350
X-35450Y-37825
X-53950Y-28550
X-56975Y-13495
X-24500Y-14375
X-22100Y-15100
X-21200Y-15075
X-23375Y-16725
X-19150Y-17400
X-19600Y-18200
X-17800Y-19100
X-16125Y-20275
X-18525Y-21300
X-18475Y-22812
X-21100Y-23300
Y-21425
X-22650Y-24450
X-23925Y-25475
X-24075Y-26725
X-24625Y-27150
X-25025Y-28800
X-23225Y-28175
X-22237Y-28750
X-22881Y-29644
X-21600Y-29675
X-20950Y-29150
X-21212Y-27737
X-19525Y-27475
X-18325Y-27350
X-17425Y-28175
X-16125Y-28125
X-16100Y-29775
X-16775Y-29300
X-15500Y-29175
X-14750Y-31350
X-15075Y-32125
X-13425Y-32200
X-13950Y-33725
X-14175Y-36650
X-15450Y-36850
X-16300Y-37450
X-17250Y-37400
X-16775Y-36050
X-19600Y-36025
X-19975Y-36975
X-21538Y-37575
X-21462Y-38900
X-19375Y-39200
X-18662Y-39123
X-18575Y-40925
X-16775Y-39975
X-16250Y-39425
X-14800Y-38300
X-17525Y-33825
X-18875Y-33625
X-20175Y-32100
Y-31350
X-22350Y-32150
X-23025Y-33825
X-24375Y-33750
X-25250Y-33525
X-25150Y-34375
X-24850Y-37550
X-25351Y-39702
X-24225Y-40075
X-23825Y-41500
X-23400Y-43200
X-22250Y-36025
X-10650Y-34838
X-11625Y-32850
X-12312Y-28175
X-14075Y-27425
X-14125Y-25100
X-7988Y-25212
X-4900Y-25200
Y-26500
X-10275Y-27513
X-10288Y-28712
X-9825Y-15450
X-8950Y-15525
X-8450Y-12450
X-6725Y-10550
X-6625Y-8600
X-4550Y-9800
X-3875Y-7025
X-1075Y-6750
X-775Y-11100
X-1200Y-12725
X-12175Y-11575
X-13275Y-11462
X-13238Y-14525
X-14500Y-16200
X-16100Y-16213
X-17375Y-7525
X-19763Y-6175
X-21475Y-5725
X-13350Y-7400
X-11950Y-9575
X-7650Y-1525
X-21837Y-2162
X-24925Y-1500
X-30075Y-1525
X-34125Y-2150
X-40500Y-1500
T03
X-28962Y-48175
X-27550Y-14300
X-28000Y-5225
X-32213Y-6863
Y-7656
X-37325Y-9900
X-41250Y-12965
Y-14400
X-41787Y-17625
X-38612Y-20050
X-45362Y-12000
Y-9700
X-46638Y-10850
T04
X-7530Y-22575
Y-21305
X-6260
Y-22575
X-4990
X-3720
X-2450
Y-21305
X-3720
X-4990
T07
X-57778Y-84610
X-34969Y-84750
X-32429
X-29889
Y-87290
X-32429
X-34969
X-33810Y-93030
X-36350
X-38890
X-41430
Y-95570
X-38890
X-36350
X-33810
X-31270
X-28730
X-26190
Y-93030
X-28730
X-31270
X-23650
X-21110
Y-95570
X-18570
Y-93030
X-23650Y-95570
X-9518Y-84610
X-6970
X-4430
Y-87150
X-6970
Y-82070
Y-79530
Y-76990
X-4430
Y-79530
Y-82070
X-9518
Y-79530
Y-76990
Y-74450
Y-71910
Y-69370
Y-66830
X-6970
Y-64290
X-4430
Y-66830
Y-69370
Y-71910
X-6970
Y-74450
X-4430
X-6970Y-69370
X-9518Y-62766
Y-60226
Y-57686
Y-55146
Y-52606
Y-50066
Y-47526
Y-44986
X-6970Y-43970
X-4430
Y-46510
X-6970
Y-49050
X-4430
Y-51590
X-6970
X-43160Y-56960
Y-59500
X-45700
X-48240
Y-56960
X-45700
X-57778Y-56670
Y-54130
Y-51590
Y-49050
Y-59210
Y-61750
Y-64290
Y-66830
Y-71910
Y-74450
Y-76990
Y-79530
Y-82070
X-48240Y-69660
Y-67120
X-51300Y-41465
Y-38925
X-51400Y-29958
Y-27417
X-57778Y-30490
Y-33030
Y-35570
X-56000Y-19940
Y-17400
X-41270Y-10950
X-38730
X-23065Y-12525
X-20525
X-17985
X-6970Y-13490
Y-16030
X-4430
Y-13490
Y-28730
X-6970
Y-31270
Y-33810
Y-36350
Y-38890
Y-41430
X-4430
Y-38890
Y-36350
Y-33810
Y-31270
X-9518Y-39906
Y-42446
T08
X-57650Y-97650
X-2350
Y-2350
X-57650
M30
